G75*
%MOIN*%
%OFA0B0*%
%FSLAX25Y25*%
%IPPOS*%
%LPD*%
%AMOC8*
5,1,8,0,0,1.08239X$1,22.5*
%
%ADD10C,0.00000*%
%ADD11R,0.05906X0.05118*%
%ADD12R,0.11024X0.09449*%
%ADD13R,0.03937X0.04331*%
%ADD14R,0.06299X0.07087*%
%ADD15R,0.07087X0.06299*%
%ADD16R,0.04331X0.03937*%
%ADD17C,0.05600*%
%ADD18OC8,0.05600*%
%ADD19R,0.05512X0.05512*%
%ADD20C,0.05200*%
%ADD21R,0.11024X0.14961*%
%ADD22R,0.07874X0.15354*%
%ADD23R,0.08661X0.02362*%
%ADD24R,0.04134X0.01772*%
%ADD25R,0.11575X0.14094*%
%ADD26R,0.03900X0.01200*%
%ADD27R,0.05600X0.05600*%
%ADD28C,0.09600*%
%ADD29R,0.08858X0.17717*%
%ADD30R,0.05906X0.03937*%
%ADD31R,0.07500X0.04000*%
%ADD32R,0.02165X0.04724*%
%ADD33R,0.03543X0.03543*%
%ADD34R,0.03937X0.05512*%
%ADD35R,0.03500X0.01201*%
%ADD36R,0.05118X0.03150*%
%ADD37R,0.11811X0.08268*%
%ADD38R,0.02362X0.06693*%
%ADD39R,0.03937X0.10630*%
%ADD40R,0.08268X0.08268*%
%ADD41R,0.05118X0.04134*%
%ADD42R,0.01181X0.04724*%
%ADD43R,0.04724X0.01181*%
%ADD44R,0.04724X0.04724*%
%ADD45R,0.05118X0.05906*%
%ADD46R,0.04724X0.03937*%
%ADD47R,0.03937X0.04724*%
%ADD48R,0.03937X0.07874*%
%ADD49R,0.03937X0.03937*%
%ADD50R,0.07800X0.02200*%
%ADD51R,0.02362X0.07874*%
%ADD52R,0.07874X0.09843*%
%ADD53OC8,0.08500*%
%ADD54C,0.01200*%
%ADD55R,0.03962X0.03962*%
%ADD56C,0.01600*%
%ADD57C,0.01000*%
%ADD58C,0.02400*%
%ADD59C,0.05000*%
%ADD60C,0.04000*%
%ADD61C,0.06600*%
%ADD62C,0.03200*%
D10*
X0001800Y0003000D02*
X0001800Y0395961D01*
X0395251Y0395961D01*
X0395501Y0003000D01*
X0001800Y0003000D01*
X0020501Y0028000D02*
X0020503Y0028158D01*
X0020509Y0028316D01*
X0020519Y0028474D01*
X0020533Y0028632D01*
X0020551Y0028789D01*
X0020572Y0028946D01*
X0020598Y0029102D01*
X0020628Y0029258D01*
X0020661Y0029413D01*
X0020699Y0029566D01*
X0020740Y0029719D01*
X0020785Y0029871D01*
X0020834Y0030022D01*
X0020887Y0030171D01*
X0020943Y0030319D01*
X0021003Y0030465D01*
X0021067Y0030610D01*
X0021135Y0030753D01*
X0021206Y0030895D01*
X0021280Y0031035D01*
X0021358Y0031172D01*
X0021440Y0031308D01*
X0021524Y0031442D01*
X0021613Y0031573D01*
X0021704Y0031702D01*
X0021799Y0031829D01*
X0021896Y0031954D01*
X0021997Y0032076D01*
X0022101Y0032195D01*
X0022208Y0032312D01*
X0022318Y0032426D01*
X0022431Y0032537D01*
X0022546Y0032646D01*
X0022664Y0032751D01*
X0022785Y0032853D01*
X0022908Y0032953D01*
X0023034Y0033049D01*
X0023162Y0033142D01*
X0023292Y0033232D01*
X0023425Y0033318D01*
X0023560Y0033402D01*
X0023696Y0033481D01*
X0023835Y0033558D01*
X0023976Y0033630D01*
X0024118Y0033700D01*
X0024262Y0033765D01*
X0024408Y0033827D01*
X0024555Y0033885D01*
X0024704Y0033940D01*
X0024854Y0033991D01*
X0025005Y0034038D01*
X0025157Y0034081D01*
X0025310Y0034120D01*
X0025465Y0034156D01*
X0025620Y0034187D01*
X0025776Y0034215D01*
X0025932Y0034239D01*
X0026089Y0034259D01*
X0026247Y0034275D01*
X0026404Y0034287D01*
X0026563Y0034295D01*
X0026721Y0034299D01*
X0026879Y0034299D01*
X0027037Y0034295D01*
X0027196Y0034287D01*
X0027353Y0034275D01*
X0027511Y0034259D01*
X0027668Y0034239D01*
X0027824Y0034215D01*
X0027980Y0034187D01*
X0028135Y0034156D01*
X0028290Y0034120D01*
X0028443Y0034081D01*
X0028595Y0034038D01*
X0028746Y0033991D01*
X0028896Y0033940D01*
X0029045Y0033885D01*
X0029192Y0033827D01*
X0029338Y0033765D01*
X0029482Y0033700D01*
X0029624Y0033630D01*
X0029765Y0033558D01*
X0029904Y0033481D01*
X0030040Y0033402D01*
X0030175Y0033318D01*
X0030308Y0033232D01*
X0030438Y0033142D01*
X0030566Y0033049D01*
X0030692Y0032953D01*
X0030815Y0032853D01*
X0030936Y0032751D01*
X0031054Y0032646D01*
X0031169Y0032537D01*
X0031282Y0032426D01*
X0031392Y0032312D01*
X0031499Y0032195D01*
X0031603Y0032076D01*
X0031704Y0031954D01*
X0031801Y0031829D01*
X0031896Y0031702D01*
X0031987Y0031573D01*
X0032076Y0031442D01*
X0032160Y0031308D01*
X0032242Y0031172D01*
X0032320Y0031035D01*
X0032394Y0030895D01*
X0032465Y0030753D01*
X0032533Y0030610D01*
X0032597Y0030465D01*
X0032657Y0030319D01*
X0032713Y0030171D01*
X0032766Y0030022D01*
X0032815Y0029871D01*
X0032860Y0029719D01*
X0032901Y0029566D01*
X0032939Y0029413D01*
X0032972Y0029258D01*
X0033002Y0029102D01*
X0033028Y0028946D01*
X0033049Y0028789D01*
X0033067Y0028632D01*
X0033081Y0028474D01*
X0033091Y0028316D01*
X0033097Y0028158D01*
X0033099Y0028000D01*
X0033097Y0027842D01*
X0033091Y0027684D01*
X0033081Y0027526D01*
X0033067Y0027368D01*
X0033049Y0027211D01*
X0033028Y0027054D01*
X0033002Y0026898D01*
X0032972Y0026742D01*
X0032939Y0026587D01*
X0032901Y0026434D01*
X0032860Y0026281D01*
X0032815Y0026129D01*
X0032766Y0025978D01*
X0032713Y0025829D01*
X0032657Y0025681D01*
X0032597Y0025535D01*
X0032533Y0025390D01*
X0032465Y0025247D01*
X0032394Y0025105D01*
X0032320Y0024965D01*
X0032242Y0024828D01*
X0032160Y0024692D01*
X0032076Y0024558D01*
X0031987Y0024427D01*
X0031896Y0024298D01*
X0031801Y0024171D01*
X0031704Y0024046D01*
X0031603Y0023924D01*
X0031499Y0023805D01*
X0031392Y0023688D01*
X0031282Y0023574D01*
X0031169Y0023463D01*
X0031054Y0023354D01*
X0030936Y0023249D01*
X0030815Y0023147D01*
X0030692Y0023047D01*
X0030566Y0022951D01*
X0030438Y0022858D01*
X0030308Y0022768D01*
X0030175Y0022682D01*
X0030040Y0022598D01*
X0029904Y0022519D01*
X0029765Y0022442D01*
X0029624Y0022370D01*
X0029482Y0022300D01*
X0029338Y0022235D01*
X0029192Y0022173D01*
X0029045Y0022115D01*
X0028896Y0022060D01*
X0028746Y0022009D01*
X0028595Y0021962D01*
X0028443Y0021919D01*
X0028290Y0021880D01*
X0028135Y0021844D01*
X0027980Y0021813D01*
X0027824Y0021785D01*
X0027668Y0021761D01*
X0027511Y0021741D01*
X0027353Y0021725D01*
X0027196Y0021713D01*
X0027037Y0021705D01*
X0026879Y0021701D01*
X0026721Y0021701D01*
X0026563Y0021705D01*
X0026404Y0021713D01*
X0026247Y0021725D01*
X0026089Y0021741D01*
X0025932Y0021761D01*
X0025776Y0021785D01*
X0025620Y0021813D01*
X0025465Y0021844D01*
X0025310Y0021880D01*
X0025157Y0021919D01*
X0025005Y0021962D01*
X0024854Y0022009D01*
X0024704Y0022060D01*
X0024555Y0022115D01*
X0024408Y0022173D01*
X0024262Y0022235D01*
X0024118Y0022300D01*
X0023976Y0022370D01*
X0023835Y0022442D01*
X0023696Y0022519D01*
X0023560Y0022598D01*
X0023425Y0022682D01*
X0023292Y0022768D01*
X0023162Y0022858D01*
X0023034Y0022951D01*
X0022908Y0023047D01*
X0022785Y0023147D01*
X0022664Y0023249D01*
X0022546Y0023354D01*
X0022431Y0023463D01*
X0022318Y0023574D01*
X0022208Y0023688D01*
X0022101Y0023805D01*
X0021997Y0023924D01*
X0021896Y0024046D01*
X0021799Y0024171D01*
X0021704Y0024298D01*
X0021613Y0024427D01*
X0021524Y0024558D01*
X0021440Y0024692D01*
X0021358Y0024828D01*
X0021280Y0024965D01*
X0021206Y0025105D01*
X0021135Y0025247D01*
X0021067Y0025390D01*
X0021003Y0025535D01*
X0020943Y0025681D01*
X0020887Y0025829D01*
X0020834Y0025978D01*
X0020785Y0026129D01*
X0020740Y0026281D01*
X0020699Y0026434D01*
X0020661Y0026587D01*
X0020628Y0026742D01*
X0020598Y0026898D01*
X0020572Y0027054D01*
X0020551Y0027211D01*
X0020533Y0027368D01*
X0020519Y0027526D01*
X0020509Y0027684D01*
X0020503Y0027842D01*
X0020501Y0028000D01*
X0026778Y0170110D02*
X0026780Y0170194D01*
X0026786Y0170277D01*
X0026796Y0170360D01*
X0026810Y0170443D01*
X0026827Y0170525D01*
X0026849Y0170606D01*
X0026874Y0170685D01*
X0026903Y0170764D01*
X0026936Y0170841D01*
X0026972Y0170916D01*
X0027012Y0170990D01*
X0027055Y0171062D01*
X0027102Y0171131D01*
X0027152Y0171198D01*
X0027205Y0171263D01*
X0027261Y0171325D01*
X0027319Y0171385D01*
X0027381Y0171442D01*
X0027445Y0171495D01*
X0027512Y0171546D01*
X0027581Y0171593D01*
X0027652Y0171638D01*
X0027725Y0171678D01*
X0027800Y0171715D01*
X0027877Y0171749D01*
X0027955Y0171779D01*
X0028034Y0171805D01*
X0028115Y0171828D01*
X0028197Y0171846D01*
X0028279Y0171861D01*
X0028362Y0171872D01*
X0028445Y0171879D01*
X0028529Y0171882D01*
X0028613Y0171881D01*
X0028696Y0171876D01*
X0028780Y0171867D01*
X0028862Y0171854D01*
X0028944Y0171838D01*
X0029025Y0171817D01*
X0029106Y0171793D01*
X0029184Y0171765D01*
X0029262Y0171733D01*
X0029338Y0171697D01*
X0029412Y0171658D01*
X0029484Y0171616D01*
X0029554Y0171570D01*
X0029622Y0171521D01*
X0029687Y0171469D01*
X0029750Y0171414D01*
X0029810Y0171356D01*
X0029868Y0171295D01*
X0029922Y0171231D01*
X0029974Y0171165D01*
X0030022Y0171097D01*
X0030067Y0171026D01*
X0030108Y0170953D01*
X0030147Y0170879D01*
X0030181Y0170803D01*
X0030212Y0170725D01*
X0030239Y0170646D01*
X0030263Y0170565D01*
X0030282Y0170484D01*
X0030298Y0170402D01*
X0030310Y0170319D01*
X0030318Y0170235D01*
X0030322Y0170152D01*
X0030322Y0170068D01*
X0030318Y0169985D01*
X0030310Y0169901D01*
X0030298Y0169818D01*
X0030282Y0169736D01*
X0030263Y0169655D01*
X0030239Y0169574D01*
X0030212Y0169495D01*
X0030181Y0169417D01*
X0030147Y0169341D01*
X0030108Y0169267D01*
X0030067Y0169194D01*
X0030022Y0169123D01*
X0029974Y0169055D01*
X0029922Y0168989D01*
X0029868Y0168925D01*
X0029810Y0168864D01*
X0029750Y0168806D01*
X0029687Y0168751D01*
X0029622Y0168699D01*
X0029554Y0168650D01*
X0029484Y0168604D01*
X0029412Y0168562D01*
X0029338Y0168523D01*
X0029262Y0168487D01*
X0029184Y0168455D01*
X0029106Y0168427D01*
X0029025Y0168403D01*
X0028944Y0168382D01*
X0028862Y0168366D01*
X0028780Y0168353D01*
X0028696Y0168344D01*
X0028613Y0168339D01*
X0028529Y0168338D01*
X0028445Y0168341D01*
X0028362Y0168348D01*
X0028279Y0168359D01*
X0028197Y0168374D01*
X0028115Y0168392D01*
X0028034Y0168415D01*
X0027955Y0168441D01*
X0027877Y0168471D01*
X0027800Y0168505D01*
X0027725Y0168542D01*
X0027652Y0168582D01*
X0027581Y0168627D01*
X0027512Y0168674D01*
X0027445Y0168725D01*
X0027381Y0168778D01*
X0027319Y0168835D01*
X0027261Y0168895D01*
X0027205Y0168957D01*
X0027152Y0169022D01*
X0027102Y0169089D01*
X0027055Y0169158D01*
X0027012Y0169230D01*
X0026972Y0169304D01*
X0026936Y0169379D01*
X0026903Y0169456D01*
X0026874Y0169535D01*
X0026849Y0169614D01*
X0026827Y0169695D01*
X0026810Y0169777D01*
X0026796Y0169860D01*
X0026786Y0169943D01*
X0026780Y0170026D01*
X0026778Y0170110D01*
X0026778Y0183890D02*
X0026780Y0183974D01*
X0026786Y0184057D01*
X0026796Y0184140D01*
X0026810Y0184223D01*
X0026827Y0184305D01*
X0026849Y0184386D01*
X0026874Y0184465D01*
X0026903Y0184544D01*
X0026936Y0184621D01*
X0026972Y0184696D01*
X0027012Y0184770D01*
X0027055Y0184842D01*
X0027102Y0184911D01*
X0027152Y0184978D01*
X0027205Y0185043D01*
X0027261Y0185105D01*
X0027319Y0185165D01*
X0027381Y0185222D01*
X0027445Y0185275D01*
X0027512Y0185326D01*
X0027581Y0185373D01*
X0027652Y0185418D01*
X0027725Y0185458D01*
X0027800Y0185495D01*
X0027877Y0185529D01*
X0027955Y0185559D01*
X0028034Y0185585D01*
X0028115Y0185608D01*
X0028197Y0185626D01*
X0028279Y0185641D01*
X0028362Y0185652D01*
X0028445Y0185659D01*
X0028529Y0185662D01*
X0028613Y0185661D01*
X0028696Y0185656D01*
X0028780Y0185647D01*
X0028862Y0185634D01*
X0028944Y0185618D01*
X0029025Y0185597D01*
X0029106Y0185573D01*
X0029184Y0185545D01*
X0029262Y0185513D01*
X0029338Y0185477D01*
X0029412Y0185438D01*
X0029484Y0185396D01*
X0029554Y0185350D01*
X0029622Y0185301D01*
X0029687Y0185249D01*
X0029750Y0185194D01*
X0029810Y0185136D01*
X0029868Y0185075D01*
X0029922Y0185011D01*
X0029974Y0184945D01*
X0030022Y0184877D01*
X0030067Y0184806D01*
X0030108Y0184733D01*
X0030147Y0184659D01*
X0030181Y0184583D01*
X0030212Y0184505D01*
X0030239Y0184426D01*
X0030263Y0184345D01*
X0030282Y0184264D01*
X0030298Y0184182D01*
X0030310Y0184099D01*
X0030318Y0184015D01*
X0030322Y0183932D01*
X0030322Y0183848D01*
X0030318Y0183765D01*
X0030310Y0183681D01*
X0030298Y0183598D01*
X0030282Y0183516D01*
X0030263Y0183435D01*
X0030239Y0183354D01*
X0030212Y0183275D01*
X0030181Y0183197D01*
X0030147Y0183121D01*
X0030108Y0183047D01*
X0030067Y0182974D01*
X0030022Y0182903D01*
X0029974Y0182835D01*
X0029922Y0182769D01*
X0029868Y0182705D01*
X0029810Y0182644D01*
X0029750Y0182586D01*
X0029687Y0182531D01*
X0029622Y0182479D01*
X0029554Y0182430D01*
X0029484Y0182384D01*
X0029412Y0182342D01*
X0029338Y0182303D01*
X0029262Y0182267D01*
X0029184Y0182235D01*
X0029106Y0182207D01*
X0029025Y0182183D01*
X0028944Y0182162D01*
X0028862Y0182146D01*
X0028780Y0182133D01*
X0028696Y0182124D01*
X0028613Y0182119D01*
X0028529Y0182118D01*
X0028445Y0182121D01*
X0028362Y0182128D01*
X0028279Y0182139D01*
X0028197Y0182154D01*
X0028115Y0182172D01*
X0028034Y0182195D01*
X0027955Y0182221D01*
X0027877Y0182251D01*
X0027800Y0182285D01*
X0027725Y0182322D01*
X0027652Y0182362D01*
X0027581Y0182407D01*
X0027512Y0182454D01*
X0027445Y0182505D01*
X0027381Y0182558D01*
X0027319Y0182615D01*
X0027261Y0182675D01*
X0027205Y0182737D01*
X0027152Y0182802D01*
X0027102Y0182869D01*
X0027055Y0182938D01*
X0027012Y0183010D01*
X0026972Y0183084D01*
X0026936Y0183159D01*
X0026903Y0183236D01*
X0026874Y0183315D01*
X0026849Y0183394D01*
X0026827Y0183475D01*
X0026810Y0183557D01*
X0026796Y0183640D01*
X0026786Y0183723D01*
X0026780Y0183806D01*
X0026778Y0183890D01*
X0038650Y0225000D02*
X0038652Y0225160D01*
X0038658Y0225319D01*
X0038668Y0225478D01*
X0038682Y0225637D01*
X0038700Y0225796D01*
X0038721Y0225954D01*
X0038747Y0226111D01*
X0038777Y0226268D01*
X0038810Y0226424D01*
X0038848Y0226579D01*
X0038889Y0226733D01*
X0038934Y0226886D01*
X0038983Y0227038D01*
X0039036Y0227189D01*
X0039092Y0227338D01*
X0039153Y0227486D01*
X0039216Y0227632D01*
X0039284Y0227777D01*
X0039355Y0227920D01*
X0039429Y0228061D01*
X0039507Y0228200D01*
X0039589Y0228337D01*
X0039674Y0228472D01*
X0039762Y0228605D01*
X0039854Y0228736D01*
X0039948Y0228864D01*
X0040046Y0228990D01*
X0040147Y0229114D01*
X0040251Y0229235D01*
X0040358Y0229353D01*
X0040468Y0229469D01*
X0040581Y0229582D01*
X0040697Y0229692D01*
X0040815Y0229799D01*
X0040936Y0229903D01*
X0041060Y0230004D01*
X0041186Y0230102D01*
X0041314Y0230196D01*
X0041445Y0230288D01*
X0041578Y0230376D01*
X0041713Y0230461D01*
X0041850Y0230543D01*
X0041989Y0230621D01*
X0042130Y0230695D01*
X0042273Y0230766D01*
X0042418Y0230834D01*
X0042564Y0230897D01*
X0042712Y0230958D01*
X0042861Y0231014D01*
X0043012Y0231067D01*
X0043164Y0231116D01*
X0043317Y0231161D01*
X0043471Y0231202D01*
X0043626Y0231240D01*
X0043782Y0231273D01*
X0043939Y0231303D01*
X0044096Y0231329D01*
X0044254Y0231350D01*
X0044413Y0231368D01*
X0044572Y0231382D01*
X0044731Y0231392D01*
X0044890Y0231398D01*
X0045050Y0231400D01*
X0045210Y0231398D01*
X0045369Y0231392D01*
X0045528Y0231382D01*
X0045687Y0231368D01*
X0045846Y0231350D01*
X0046004Y0231329D01*
X0046161Y0231303D01*
X0046318Y0231273D01*
X0046474Y0231240D01*
X0046629Y0231202D01*
X0046783Y0231161D01*
X0046936Y0231116D01*
X0047088Y0231067D01*
X0047239Y0231014D01*
X0047388Y0230958D01*
X0047536Y0230897D01*
X0047682Y0230834D01*
X0047827Y0230766D01*
X0047970Y0230695D01*
X0048111Y0230621D01*
X0048250Y0230543D01*
X0048387Y0230461D01*
X0048522Y0230376D01*
X0048655Y0230288D01*
X0048786Y0230196D01*
X0048914Y0230102D01*
X0049040Y0230004D01*
X0049164Y0229903D01*
X0049285Y0229799D01*
X0049403Y0229692D01*
X0049519Y0229582D01*
X0049632Y0229469D01*
X0049742Y0229353D01*
X0049849Y0229235D01*
X0049953Y0229114D01*
X0050054Y0228990D01*
X0050152Y0228864D01*
X0050246Y0228736D01*
X0050338Y0228605D01*
X0050426Y0228472D01*
X0050511Y0228337D01*
X0050593Y0228200D01*
X0050671Y0228061D01*
X0050745Y0227920D01*
X0050816Y0227777D01*
X0050884Y0227632D01*
X0050947Y0227486D01*
X0051008Y0227338D01*
X0051064Y0227189D01*
X0051117Y0227038D01*
X0051166Y0226886D01*
X0051211Y0226733D01*
X0051252Y0226579D01*
X0051290Y0226424D01*
X0051323Y0226268D01*
X0051353Y0226111D01*
X0051379Y0225954D01*
X0051400Y0225796D01*
X0051418Y0225637D01*
X0051432Y0225478D01*
X0051442Y0225319D01*
X0051448Y0225160D01*
X0051450Y0225000D01*
X0051448Y0224840D01*
X0051442Y0224681D01*
X0051432Y0224522D01*
X0051418Y0224363D01*
X0051400Y0224204D01*
X0051379Y0224046D01*
X0051353Y0223889D01*
X0051323Y0223732D01*
X0051290Y0223576D01*
X0051252Y0223421D01*
X0051211Y0223267D01*
X0051166Y0223114D01*
X0051117Y0222962D01*
X0051064Y0222811D01*
X0051008Y0222662D01*
X0050947Y0222514D01*
X0050884Y0222368D01*
X0050816Y0222223D01*
X0050745Y0222080D01*
X0050671Y0221939D01*
X0050593Y0221800D01*
X0050511Y0221663D01*
X0050426Y0221528D01*
X0050338Y0221395D01*
X0050246Y0221264D01*
X0050152Y0221136D01*
X0050054Y0221010D01*
X0049953Y0220886D01*
X0049849Y0220765D01*
X0049742Y0220647D01*
X0049632Y0220531D01*
X0049519Y0220418D01*
X0049403Y0220308D01*
X0049285Y0220201D01*
X0049164Y0220097D01*
X0049040Y0219996D01*
X0048914Y0219898D01*
X0048786Y0219804D01*
X0048655Y0219712D01*
X0048522Y0219624D01*
X0048387Y0219539D01*
X0048250Y0219457D01*
X0048111Y0219379D01*
X0047970Y0219305D01*
X0047827Y0219234D01*
X0047682Y0219166D01*
X0047536Y0219103D01*
X0047388Y0219042D01*
X0047239Y0218986D01*
X0047088Y0218933D01*
X0046936Y0218884D01*
X0046783Y0218839D01*
X0046629Y0218798D01*
X0046474Y0218760D01*
X0046318Y0218727D01*
X0046161Y0218697D01*
X0046004Y0218671D01*
X0045846Y0218650D01*
X0045687Y0218632D01*
X0045528Y0218618D01*
X0045369Y0218608D01*
X0045210Y0218602D01*
X0045050Y0218600D01*
X0044890Y0218602D01*
X0044731Y0218608D01*
X0044572Y0218618D01*
X0044413Y0218632D01*
X0044254Y0218650D01*
X0044096Y0218671D01*
X0043939Y0218697D01*
X0043782Y0218727D01*
X0043626Y0218760D01*
X0043471Y0218798D01*
X0043317Y0218839D01*
X0043164Y0218884D01*
X0043012Y0218933D01*
X0042861Y0218986D01*
X0042712Y0219042D01*
X0042564Y0219103D01*
X0042418Y0219166D01*
X0042273Y0219234D01*
X0042130Y0219305D01*
X0041989Y0219379D01*
X0041850Y0219457D01*
X0041713Y0219539D01*
X0041578Y0219624D01*
X0041445Y0219712D01*
X0041314Y0219804D01*
X0041186Y0219898D01*
X0041060Y0219996D01*
X0040936Y0220097D01*
X0040815Y0220201D01*
X0040697Y0220308D01*
X0040581Y0220418D01*
X0040468Y0220531D01*
X0040358Y0220647D01*
X0040251Y0220765D01*
X0040147Y0220886D01*
X0040046Y0221010D01*
X0039948Y0221136D01*
X0039854Y0221264D01*
X0039762Y0221395D01*
X0039674Y0221528D01*
X0039589Y0221663D01*
X0039507Y0221800D01*
X0039429Y0221939D01*
X0039355Y0222080D01*
X0039284Y0222223D01*
X0039216Y0222368D01*
X0039153Y0222514D01*
X0039092Y0222662D01*
X0039036Y0222811D01*
X0038983Y0222962D01*
X0038934Y0223114D01*
X0038889Y0223267D01*
X0038848Y0223421D01*
X0038810Y0223576D01*
X0038777Y0223732D01*
X0038747Y0223889D01*
X0038721Y0224046D01*
X0038700Y0224204D01*
X0038682Y0224363D01*
X0038668Y0224522D01*
X0038658Y0224681D01*
X0038652Y0224840D01*
X0038650Y0225000D01*
X0038650Y0270000D02*
X0038652Y0270160D01*
X0038658Y0270319D01*
X0038668Y0270478D01*
X0038682Y0270637D01*
X0038700Y0270796D01*
X0038721Y0270954D01*
X0038747Y0271111D01*
X0038777Y0271268D01*
X0038810Y0271424D01*
X0038848Y0271579D01*
X0038889Y0271733D01*
X0038934Y0271886D01*
X0038983Y0272038D01*
X0039036Y0272189D01*
X0039092Y0272338D01*
X0039153Y0272486D01*
X0039216Y0272632D01*
X0039284Y0272777D01*
X0039355Y0272920D01*
X0039429Y0273061D01*
X0039507Y0273200D01*
X0039589Y0273337D01*
X0039674Y0273472D01*
X0039762Y0273605D01*
X0039854Y0273736D01*
X0039948Y0273864D01*
X0040046Y0273990D01*
X0040147Y0274114D01*
X0040251Y0274235D01*
X0040358Y0274353D01*
X0040468Y0274469D01*
X0040581Y0274582D01*
X0040697Y0274692D01*
X0040815Y0274799D01*
X0040936Y0274903D01*
X0041060Y0275004D01*
X0041186Y0275102D01*
X0041314Y0275196D01*
X0041445Y0275288D01*
X0041578Y0275376D01*
X0041713Y0275461D01*
X0041850Y0275543D01*
X0041989Y0275621D01*
X0042130Y0275695D01*
X0042273Y0275766D01*
X0042418Y0275834D01*
X0042564Y0275897D01*
X0042712Y0275958D01*
X0042861Y0276014D01*
X0043012Y0276067D01*
X0043164Y0276116D01*
X0043317Y0276161D01*
X0043471Y0276202D01*
X0043626Y0276240D01*
X0043782Y0276273D01*
X0043939Y0276303D01*
X0044096Y0276329D01*
X0044254Y0276350D01*
X0044413Y0276368D01*
X0044572Y0276382D01*
X0044731Y0276392D01*
X0044890Y0276398D01*
X0045050Y0276400D01*
X0045210Y0276398D01*
X0045369Y0276392D01*
X0045528Y0276382D01*
X0045687Y0276368D01*
X0045846Y0276350D01*
X0046004Y0276329D01*
X0046161Y0276303D01*
X0046318Y0276273D01*
X0046474Y0276240D01*
X0046629Y0276202D01*
X0046783Y0276161D01*
X0046936Y0276116D01*
X0047088Y0276067D01*
X0047239Y0276014D01*
X0047388Y0275958D01*
X0047536Y0275897D01*
X0047682Y0275834D01*
X0047827Y0275766D01*
X0047970Y0275695D01*
X0048111Y0275621D01*
X0048250Y0275543D01*
X0048387Y0275461D01*
X0048522Y0275376D01*
X0048655Y0275288D01*
X0048786Y0275196D01*
X0048914Y0275102D01*
X0049040Y0275004D01*
X0049164Y0274903D01*
X0049285Y0274799D01*
X0049403Y0274692D01*
X0049519Y0274582D01*
X0049632Y0274469D01*
X0049742Y0274353D01*
X0049849Y0274235D01*
X0049953Y0274114D01*
X0050054Y0273990D01*
X0050152Y0273864D01*
X0050246Y0273736D01*
X0050338Y0273605D01*
X0050426Y0273472D01*
X0050511Y0273337D01*
X0050593Y0273200D01*
X0050671Y0273061D01*
X0050745Y0272920D01*
X0050816Y0272777D01*
X0050884Y0272632D01*
X0050947Y0272486D01*
X0051008Y0272338D01*
X0051064Y0272189D01*
X0051117Y0272038D01*
X0051166Y0271886D01*
X0051211Y0271733D01*
X0051252Y0271579D01*
X0051290Y0271424D01*
X0051323Y0271268D01*
X0051353Y0271111D01*
X0051379Y0270954D01*
X0051400Y0270796D01*
X0051418Y0270637D01*
X0051432Y0270478D01*
X0051442Y0270319D01*
X0051448Y0270160D01*
X0051450Y0270000D01*
X0051448Y0269840D01*
X0051442Y0269681D01*
X0051432Y0269522D01*
X0051418Y0269363D01*
X0051400Y0269204D01*
X0051379Y0269046D01*
X0051353Y0268889D01*
X0051323Y0268732D01*
X0051290Y0268576D01*
X0051252Y0268421D01*
X0051211Y0268267D01*
X0051166Y0268114D01*
X0051117Y0267962D01*
X0051064Y0267811D01*
X0051008Y0267662D01*
X0050947Y0267514D01*
X0050884Y0267368D01*
X0050816Y0267223D01*
X0050745Y0267080D01*
X0050671Y0266939D01*
X0050593Y0266800D01*
X0050511Y0266663D01*
X0050426Y0266528D01*
X0050338Y0266395D01*
X0050246Y0266264D01*
X0050152Y0266136D01*
X0050054Y0266010D01*
X0049953Y0265886D01*
X0049849Y0265765D01*
X0049742Y0265647D01*
X0049632Y0265531D01*
X0049519Y0265418D01*
X0049403Y0265308D01*
X0049285Y0265201D01*
X0049164Y0265097D01*
X0049040Y0264996D01*
X0048914Y0264898D01*
X0048786Y0264804D01*
X0048655Y0264712D01*
X0048522Y0264624D01*
X0048387Y0264539D01*
X0048250Y0264457D01*
X0048111Y0264379D01*
X0047970Y0264305D01*
X0047827Y0264234D01*
X0047682Y0264166D01*
X0047536Y0264103D01*
X0047388Y0264042D01*
X0047239Y0263986D01*
X0047088Y0263933D01*
X0046936Y0263884D01*
X0046783Y0263839D01*
X0046629Y0263798D01*
X0046474Y0263760D01*
X0046318Y0263727D01*
X0046161Y0263697D01*
X0046004Y0263671D01*
X0045846Y0263650D01*
X0045687Y0263632D01*
X0045528Y0263618D01*
X0045369Y0263608D01*
X0045210Y0263602D01*
X0045050Y0263600D01*
X0044890Y0263602D01*
X0044731Y0263608D01*
X0044572Y0263618D01*
X0044413Y0263632D01*
X0044254Y0263650D01*
X0044096Y0263671D01*
X0043939Y0263697D01*
X0043782Y0263727D01*
X0043626Y0263760D01*
X0043471Y0263798D01*
X0043317Y0263839D01*
X0043164Y0263884D01*
X0043012Y0263933D01*
X0042861Y0263986D01*
X0042712Y0264042D01*
X0042564Y0264103D01*
X0042418Y0264166D01*
X0042273Y0264234D01*
X0042130Y0264305D01*
X0041989Y0264379D01*
X0041850Y0264457D01*
X0041713Y0264539D01*
X0041578Y0264624D01*
X0041445Y0264712D01*
X0041314Y0264804D01*
X0041186Y0264898D01*
X0041060Y0264996D01*
X0040936Y0265097D01*
X0040815Y0265201D01*
X0040697Y0265308D01*
X0040581Y0265418D01*
X0040468Y0265531D01*
X0040358Y0265647D01*
X0040251Y0265765D01*
X0040147Y0265886D01*
X0040046Y0266010D01*
X0039948Y0266136D01*
X0039854Y0266264D01*
X0039762Y0266395D01*
X0039674Y0266528D01*
X0039589Y0266663D01*
X0039507Y0266800D01*
X0039429Y0266939D01*
X0039355Y0267080D01*
X0039284Y0267223D01*
X0039216Y0267368D01*
X0039153Y0267514D01*
X0039092Y0267662D01*
X0039036Y0267811D01*
X0038983Y0267962D01*
X0038934Y0268114D01*
X0038889Y0268267D01*
X0038848Y0268421D01*
X0038810Y0268576D01*
X0038777Y0268732D01*
X0038747Y0268889D01*
X0038721Y0269046D01*
X0038700Y0269204D01*
X0038682Y0269363D01*
X0038668Y0269522D01*
X0038658Y0269681D01*
X0038652Y0269840D01*
X0038650Y0270000D01*
X0020251Y0371250D02*
X0020253Y0371408D01*
X0020259Y0371566D01*
X0020269Y0371724D01*
X0020283Y0371882D01*
X0020301Y0372039D01*
X0020322Y0372196D01*
X0020348Y0372352D01*
X0020378Y0372508D01*
X0020411Y0372663D01*
X0020449Y0372816D01*
X0020490Y0372969D01*
X0020535Y0373121D01*
X0020584Y0373272D01*
X0020637Y0373421D01*
X0020693Y0373569D01*
X0020753Y0373715D01*
X0020817Y0373860D01*
X0020885Y0374003D01*
X0020956Y0374145D01*
X0021030Y0374285D01*
X0021108Y0374422D01*
X0021190Y0374558D01*
X0021274Y0374692D01*
X0021363Y0374823D01*
X0021454Y0374952D01*
X0021549Y0375079D01*
X0021646Y0375204D01*
X0021747Y0375326D01*
X0021851Y0375445D01*
X0021958Y0375562D01*
X0022068Y0375676D01*
X0022181Y0375787D01*
X0022296Y0375896D01*
X0022414Y0376001D01*
X0022535Y0376103D01*
X0022658Y0376203D01*
X0022784Y0376299D01*
X0022912Y0376392D01*
X0023042Y0376482D01*
X0023175Y0376568D01*
X0023310Y0376652D01*
X0023446Y0376731D01*
X0023585Y0376808D01*
X0023726Y0376880D01*
X0023868Y0376950D01*
X0024012Y0377015D01*
X0024158Y0377077D01*
X0024305Y0377135D01*
X0024454Y0377190D01*
X0024604Y0377241D01*
X0024755Y0377288D01*
X0024907Y0377331D01*
X0025060Y0377370D01*
X0025215Y0377406D01*
X0025370Y0377437D01*
X0025526Y0377465D01*
X0025682Y0377489D01*
X0025839Y0377509D01*
X0025997Y0377525D01*
X0026154Y0377537D01*
X0026313Y0377545D01*
X0026471Y0377549D01*
X0026629Y0377549D01*
X0026787Y0377545D01*
X0026946Y0377537D01*
X0027103Y0377525D01*
X0027261Y0377509D01*
X0027418Y0377489D01*
X0027574Y0377465D01*
X0027730Y0377437D01*
X0027885Y0377406D01*
X0028040Y0377370D01*
X0028193Y0377331D01*
X0028345Y0377288D01*
X0028496Y0377241D01*
X0028646Y0377190D01*
X0028795Y0377135D01*
X0028942Y0377077D01*
X0029088Y0377015D01*
X0029232Y0376950D01*
X0029374Y0376880D01*
X0029515Y0376808D01*
X0029654Y0376731D01*
X0029790Y0376652D01*
X0029925Y0376568D01*
X0030058Y0376482D01*
X0030188Y0376392D01*
X0030316Y0376299D01*
X0030442Y0376203D01*
X0030565Y0376103D01*
X0030686Y0376001D01*
X0030804Y0375896D01*
X0030919Y0375787D01*
X0031032Y0375676D01*
X0031142Y0375562D01*
X0031249Y0375445D01*
X0031353Y0375326D01*
X0031454Y0375204D01*
X0031551Y0375079D01*
X0031646Y0374952D01*
X0031737Y0374823D01*
X0031826Y0374692D01*
X0031910Y0374558D01*
X0031992Y0374422D01*
X0032070Y0374285D01*
X0032144Y0374145D01*
X0032215Y0374003D01*
X0032283Y0373860D01*
X0032347Y0373715D01*
X0032407Y0373569D01*
X0032463Y0373421D01*
X0032516Y0373272D01*
X0032565Y0373121D01*
X0032610Y0372969D01*
X0032651Y0372816D01*
X0032689Y0372663D01*
X0032722Y0372508D01*
X0032752Y0372352D01*
X0032778Y0372196D01*
X0032799Y0372039D01*
X0032817Y0371882D01*
X0032831Y0371724D01*
X0032841Y0371566D01*
X0032847Y0371408D01*
X0032849Y0371250D01*
X0032847Y0371092D01*
X0032841Y0370934D01*
X0032831Y0370776D01*
X0032817Y0370618D01*
X0032799Y0370461D01*
X0032778Y0370304D01*
X0032752Y0370148D01*
X0032722Y0369992D01*
X0032689Y0369837D01*
X0032651Y0369684D01*
X0032610Y0369531D01*
X0032565Y0369379D01*
X0032516Y0369228D01*
X0032463Y0369079D01*
X0032407Y0368931D01*
X0032347Y0368785D01*
X0032283Y0368640D01*
X0032215Y0368497D01*
X0032144Y0368355D01*
X0032070Y0368215D01*
X0031992Y0368078D01*
X0031910Y0367942D01*
X0031826Y0367808D01*
X0031737Y0367677D01*
X0031646Y0367548D01*
X0031551Y0367421D01*
X0031454Y0367296D01*
X0031353Y0367174D01*
X0031249Y0367055D01*
X0031142Y0366938D01*
X0031032Y0366824D01*
X0030919Y0366713D01*
X0030804Y0366604D01*
X0030686Y0366499D01*
X0030565Y0366397D01*
X0030442Y0366297D01*
X0030316Y0366201D01*
X0030188Y0366108D01*
X0030058Y0366018D01*
X0029925Y0365932D01*
X0029790Y0365848D01*
X0029654Y0365769D01*
X0029515Y0365692D01*
X0029374Y0365620D01*
X0029232Y0365550D01*
X0029088Y0365485D01*
X0028942Y0365423D01*
X0028795Y0365365D01*
X0028646Y0365310D01*
X0028496Y0365259D01*
X0028345Y0365212D01*
X0028193Y0365169D01*
X0028040Y0365130D01*
X0027885Y0365094D01*
X0027730Y0365063D01*
X0027574Y0365035D01*
X0027418Y0365011D01*
X0027261Y0364991D01*
X0027103Y0364975D01*
X0026946Y0364963D01*
X0026787Y0364955D01*
X0026629Y0364951D01*
X0026471Y0364951D01*
X0026313Y0364955D01*
X0026154Y0364963D01*
X0025997Y0364975D01*
X0025839Y0364991D01*
X0025682Y0365011D01*
X0025526Y0365035D01*
X0025370Y0365063D01*
X0025215Y0365094D01*
X0025060Y0365130D01*
X0024907Y0365169D01*
X0024755Y0365212D01*
X0024604Y0365259D01*
X0024454Y0365310D01*
X0024305Y0365365D01*
X0024158Y0365423D01*
X0024012Y0365485D01*
X0023868Y0365550D01*
X0023726Y0365620D01*
X0023585Y0365692D01*
X0023446Y0365769D01*
X0023310Y0365848D01*
X0023175Y0365932D01*
X0023042Y0366018D01*
X0022912Y0366108D01*
X0022784Y0366201D01*
X0022658Y0366297D01*
X0022535Y0366397D01*
X0022414Y0366499D01*
X0022296Y0366604D01*
X0022181Y0366713D01*
X0022068Y0366824D01*
X0021958Y0366938D01*
X0021851Y0367055D01*
X0021747Y0367174D01*
X0021646Y0367296D01*
X0021549Y0367421D01*
X0021454Y0367548D01*
X0021363Y0367677D01*
X0021274Y0367808D01*
X0021190Y0367942D01*
X0021108Y0368078D01*
X0021030Y0368215D01*
X0020956Y0368355D01*
X0020885Y0368497D01*
X0020817Y0368640D01*
X0020753Y0368785D01*
X0020693Y0368931D01*
X0020637Y0369079D01*
X0020584Y0369228D01*
X0020535Y0369379D01*
X0020490Y0369531D01*
X0020449Y0369684D01*
X0020411Y0369837D01*
X0020378Y0369992D01*
X0020348Y0370148D01*
X0020322Y0370304D01*
X0020301Y0370461D01*
X0020283Y0370618D01*
X0020269Y0370776D01*
X0020259Y0370934D01*
X0020253Y0371092D01*
X0020251Y0371250D01*
X0167493Y0118073D02*
X0167495Y0118152D01*
X0167501Y0118231D01*
X0167511Y0118310D01*
X0167525Y0118388D01*
X0167542Y0118465D01*
X0167564Y0118541D01*
X0167589Y0118616D01*
X0167619Y0118689D01*
X0167651Y0118761D01*
X0167688Y0118832D01*
X0167728Y0118900D01*
X0167771Y0118966D01*
X0167817Y0119030D01*
X0167867Y0119092D01*
X0167920Y0119151D01*
X0167975Y0119207D01*
X0168034Y0119261D01*
X0168095Y0119311D01*
X0168158Y0119359D01*
X0168224Y0119403D01*
X0168292Y0119444D01*
X0168362Y0119481D01*
X0168433Y0119515D01*
X0168507Y0119545D01*
X0168581Y0119571D01*
X0168657Y0119593D01*
X0168734Y0119612D01*
X0168812Y0119627D01*
X0168890Y0119638D01*
X0168969Y0119645D01*
X0169048Y0119648D01*
X0169127Y0119647D01*
X0169206Y0119642D01*
X0169285Y0119633D01*
X0169363Y0119620D01*
X0169440Y0119603D01*
X0169517Y0119583D01*
X0169592Y0119558D01*
X0169666Y0119530D01*
X0169739Y0119498D01*
X0169809Y0119463D01*
X0169878Y0119424D01*
X0169945Y0119381D01*
X0170010Y0119335D01*
X0170072Y0119287D01*
X0170132Y0119235D01*
X0170189Y0119180D01*
X0170243Y0119122D01*
X0170294Y0119062D01*
X0170342Y0118999D01*
X0170387Y0118934D01*
X0170429Y0118866D01*
X0170467Y0118797D01*
X0170501Y0118726D01*
X0170532Y0118653D01*
X0170560Y0118578D01*
X0170583Y0118503D01*
X0170603Y0118426D01*
X0170619Y0118349D01*
X0170631Y0118270D01*
X0170639Y0118192D01*
X0170643Y0118113D01*
X0170643Y0118033D01*
X0170639Y0117954D01*
X0170631Y0117876D01*
X0170619Y0117797D01*
X0170603Y0117720D01*
X0170583Y0117643D01*
X0170560Y0117568D01*
X0170532Y0117493D01*
X0170501Y0117420D01*
X0170467Y0117349D01*
X0170429Y0117280D01*
X0170387Y0117212D01*
X0170342Y0117147D01*
X0170294Y0117084D01*
X0170243Y0117024D01*
X0170189Y0116966D01*
X0170132Y0116911D01*
X0170072Y0116859D01*
X0170010Y0116811D01*
X0169945Y0116765D01*
X0169878Y0116722D01*
X0169809Y0116683D01*
X0169739Y0116648D01*
X0169666Y0116616D01*
X0169592Y0116588D01*
X0169517Y0116563D01*
X0169440Y0116543D01*
X0169363Y0116526D01*
X0169285Y0116513D01*
X0169206Y0116504D01*
X0169127Y0116499D01*
X0169048Y0116498D01*
X0168969Y0116501D01*
X0168890Y0116508D01*
X0168812Y0116519D01*
X0168734Y0116534D01*
X0168657Y0116553D01*
X0168581Y0116575D01*
X0168507Y0116601D01*
X0168433Y0116631D01*
X0168362Y0116665D01*
X0168292Y0116702D01*
X0168224Y0116743D01*
X0168158Y0116787D01*
X0168095Y0116835D01*
X0168034Y0116885D01*
X0167975Y0116939D01*
X0167920Y0116995D01*
X0167867Y0117054D01*
X0167817Y0117116D01*
X0167771Y0117180D01*
X0167728Y0117246D01*
X0167688Y0117314D01*
X0167651Y0117385D01*
X0167619Y0117457D01*
X0167589Y0117530D01*
X0167564Y0117605D01*
X0167542Y0117681D01*
X0167525Y0117758D01*
X0167511Y0117836D01*
X0167501Y0117915D01*
X0167495Y0117994D01*
X0167493Y0118073D01*
X0167493Y0086577D02*
X0167495Y0086656D01*
X0167501Y0086735D01*
X0167511Y0086814D01*
X0167525Y0086892D01*
X0167542Y0086969D01*
X0167564Y0087045D01*
X0167589Y0087120D01*
X0167619Y0087193D01*
X0167651Y0087265D01*
X0167688Y0087336D01*
X0167728Y0087404D01*
X0167771Y0087470D01*
X0167817Y0087534D01*
X0167867Y0087596D01*
X0167920Y0087655D01*
X0167975Y0087711D01*
X0168034Y0087765D01*
X0168095Y0087815D01*
X0168158Y0087863D01*
X0168224Y0087907D01*
X0168292Y0087948D01*
X0168362Y0087985D01*
X0168433Y0088019D01*
X0168507Y0088049D01*
X0168581Y0088075D01*
X0168657Y0088097D01*
X0168734Y0088116D01*
X0168812Y0088131D01*
X0168890Y0088142D01*
X0168969Y0088149D01*
X0169048Y0088152D01*
X0169127Y0088151D01*
X0169206Y0088146D01*
X0169285Y0088137D01*
X0169363Y0088124D01*
X0169440Y0088107D01*
X0169517Y0088087D01*
X0169592Y0088062D01*
X0169666Y0088034D01*
X0169739Y0088002D01*
X0169809Y0087967D01*
X0169878Y0087928D01*
X0169945Y0087885D01*
X0170010Y0087839D01*
X0170072Y0087791D01*
X0170132Y0087739D01*
X0170189Y0087684D01*
X0170243Y0087626D01*
X0170294Y0087566D01*
X0170342Y0087503D01*
X0170387Y0087438D01*
X0170429Y0087370D01*
X0170467Y0087301D01*
X0170501Y0087230D01*
X0170532Y0087157D01*
X0170560Y0087082D01*
X0170583Y0087007D01*
X0170603Y0086930D01*
X0170619Y0086853D01*
X0170631Y0086774D01*
X0170639Y0086696D01*
X0170643Y0086617D01*
X0170643Y0086537D01*
X0170639Y0086458D01*
X0170631Y0086380D01*
X0170619Y0086301D01*
X0170603Y0086224D01*
X0170583Y0086147D01*
X0170560Y0086072D01*
X0170532Y0085997D01*
X0170501Y0085924D01*
X0170467Y0085853D01*
X0170429Y0085784D01*
X0170387Y0085716D01*
X0170342Y0085651D01*
X0170294Y0085588D01*
X0170243Y0085528D01*
X0170189Y0085470D01*
X0170132Y0085415D01*
X0170072Y0085363D01*
X0170010Y0085315D01*
X0169945Y0085269D01*
X0169878Y0085226D01*
X0169809Y0085187D01*
X0169739Y0085152D01*
X0169666Y0085120D01*
X0169592Y0085092D01*
X0169517Y0085067D01*
X0169440Y0085047D01*
X0169363Y0085030D01*
X0169285Y0085017D01*
X0169206Y0085008D01*
X0169127Y0085003D01*
X0169048Y0085002D01*
X0168969Y0085005D01*
X0168890Y0085012D01*
X0168812Y0085023D01*
X0168734Y0085038D01*
X0168657Y0085057D01*
X0168581Y0085079D01*
X0168507Y0085105D01*
X0168433Y0085135D01*
X0168362Y0085169D01*
X0168292Y0085206D01*
X0168224Y0085247D01*
X0168158Y0085291D01*
X0168095Y0085339D01*
X0168034Y0085389D01*
X0167975Y0085443D01*
X0167920Y0085499D01*
X0167867Y0085558D01*
X0167817Y0085620D01*
X0167771Y0085684D01*
X0167728Y0085750D01*
X0167688Y0085818D01*
X0167651Y0085889D01*
X0167619Y0085961D01*
X0167589Y0086034D01*
X0167564Y0086109D01*
X0167542Y0086185D01*
X0167525Y0086262D01*
X0167511Y0086340D01*
X0167501Y0086419D01*
X0167495Y0086498D01*
X0167493Y0086577D01*
X0365501Y0028000D02*
X0365503Y0028158D01*
X0365509Y0028316D01*
X0365519Y0028474D01*
X0365533Y0028632D01*
X0365551Y0028789D01*
X0365572Y0028946D01*
X0365598Y0029102D01*
X0365628Y0029258D01*
X0365661Y0029413D01*
X0365699Y0029566D01*
X0365740Y0029719D01*
X0365785Y0029871D01*
X0365834Y0030022D01*
X0365887Y0030171D01*
X0365943Y0030319D01*
X0366003Y0030465D01*
X0366067Y0030610D01*
X0366135Y0030753D01*
X0366206Y0030895D01*
X0366280Y0031035D01*
X0366358Y0031172D01*
X0366440Y0031308D01*
X0366524Y0031442D01*
X0366613Y0031573D01*
X0366704Y0031702D01*
X0366799Y0031829D01*
X0366896Y0031954D01*
X0366997Y0032076D01*
X0367101Y0032195D01*
X0367208Y0032312D01*
X0367318Y0032426D01*
X0367431Y0032537D01*
X0367546Y0032646D01*
X0367664Y0032751D01*
X0367785Y0032853D01*
X0367908Y0032953D01*
X0368034Y0033049D01*
X0368162Y0033142D01*
X0368292Y0033232D01*
X0368425Y0033318D01*
X0368560Y0033402D01*
X0368696Y0033481D01*
X0368835Y0033558D01*
X0368976Y0033630D01*
X0369118Y0033700D01*
X0369262Y0033765D01*
X0369408Y0033827D01*
X0369555Y0033885D01*
X0369704Y0033940D01*
X0369854Y0033991D01*
X0370005Y0034038D01*
X0370157Y0034081D01*
X0370310Y0034120D01*
X0370465Y0034156D01*
X0370620Y0034187D01*
X0370776Y0034215D01*
X0370932Y0034239D01*
X0371089Y0034259D01*
X0371247Y0034275D01*
X0371404Y0034287D01*
X0371563Y0034295D01*
X0371721Y0034299D01*
X0371879Y0034299D01*
X0372037Y0034295D01*
X0372196Y0034287D01*
X0372353Y0034275D01*
X0372511Y0034259D01*
X0372668Y0034239D01*
X0372824Y0034215D01*
X0372980Y0034187D01*
X0373135Y0034156D01*
X0373290Y0034120D01*
X0373443Y0034081D01*
X0373595Y0034038D01*
X0373746Y0033991D01*
X0373896Y0033940D01*
X0374045Y0033885D01*
X0374192Y0033827D01*
X0374338Y0033765D01*
X0374482Y0033700D01*
X0374624Y0033630D01*
X0374765Y0033558D01*
X0374904Y0033481D01*
X0375040Y0033402D01*
X0375175Y0033318D01*
X0375308Y0033232D01*
X0375438Y0033142D01*
X0375566Y0033049D01*
X0375692Y0032953D01*
X0375815Y0032853D01*
X0375936Y0032751D01*
X0376054Y0032646D01*
X0376169Y0032537D01*
X0376282Y0032426D01*
X0376392Y0032312D01*
X0376499Y0032195D01*
X0376603Y0032076D01*
X0376704Y0031954D01*
X0376801Y0031829D01*
X0376896Y0031702D01*
X0376987Y0031573D01*
X0377076Y0031442D01*
X0377160Y0031308D01*
X0377242Y0031172D01*
X0377320Y0031035D01*
X0377394Y0030895D01*
X0377465Y0030753D01*
X0377533Y0030610D01*
X0377597Y0030465D01*
X0377657Y0030319D01*
X0377713Y0030171D01*
X0377766Y0030022D01*
X0377815Y0029871D01*
X0377860Y0029719D01*
X0377901Y0029566D01*
X0377939Y0029413D01*
X0377972Y0029258D01*
X0378002Y0029102D01*
X0378028Y0028946D01*
X0378049Y0028789D01*
X0378067Y0028632D01*
X0378081Y0028474D01*
X0378091Y0028316D01*
X0378097Y0028158D01*
X0378099Y0028000D01*
X0378097Y0027842D01*
X0378091Y0027684D01*
X0378081Y0027526D01*
X0378067Y0027368D01*
X0378049Y0027211D01*
X0378028Y0027054D01*
X0378002Y0026898D01*
X0377972Y0026742D01*
X0377939Y0026587D01*
X0377901Y0026434D01*
X0377860Y0026281D01*
X0377815Y0026129D01*
X0377766Y0025978D01*
X0377713Y0025829D01*
X0377657Y0025681D01*
X0377597Y0025535D01*
X0377533Y0025390D01*
X0377465Y0025247D01*
X0377394Y0025105D01*
X0377320Y0024965D01*
X0377242Y0024828D01*
X0377160Y0024692D01*
X0377076Y0024558D01*
X0376987Y0024427D01*
X0376896Y0024298D01*
X0376801Y0024171D01*
X0376704Y0024046D01*
X0376603Y0023924D01*
X0376499Y0023805D01*
X0376392Y0023688D01*
X0376282Y0023574D01*
X0376169Y0023463D01*
X0376054Y0023354D01*
X0375936Y0023249D01*
X0375815Y0023147D01*
X0375692Y0023047D01*
X0375566Y0022951D01*
X0375438Y0022858D01*
X0375308Y0022768D01*
X0375175Y0022682D01*
X0375040Y0022598D01*
X0374904Y0022519D01*
X0374765Y0022442D01*
X0374624Y0022370D01*
X0374482Y0022300D01*
X0374338Y0022235D01*
X0374192Y0022173D01*
X0374045Y0022115D01*
X0373896Y0022060D01*
X0373746Y0022009D01*
X0373595Y0021962D01*
X0373443Y0021919D01*
X0373290Y0021880D01*
X0373135Y0021844D01*
X0372980Y0021813D01*
X0372824Y0021785D01*
X0372668Y0021761D01*
X0372511Y0021741D01*
X0372353Y0021725D01*
X0372196Y0021713D01*
X0372037Y0021705D01*
X0371879Y0021701D01*
X0371721Y0021701D01*
X0371563Y0021705D01*
X0371404Y0021713D01*
X0371247Y0021725D01*
X0371089Y0021741D01*
X0370932Y0021761D01*
X0370776Y0021785D01*
X0370620Y0021813D01*
X0370465Y0021844D01*
X0370310Y0021880D01*
X0370157Y0021919D01*
X0370005Y0021962D01*
X0369854Y0022009D01*
X0369704Y0022060D01*
X0369555Y0022115D01*
X0369408Y0022173D01*
X0369262Y0022235D01*
X0369118Y0022300D01*
X0368976Y0022370D01*
X0368835Y0022442D01*
X0368696Y0022519D01*
X0368560Y0022598D01*
X0368425Y0022682D01*
X0368292Y0022768D01*
X0368162Y0022858D01*
X0368034Y0022951D01*
X0367908Y0023047D01*
X0367785Y0023147D01*
X0367664Y0023249D01*
X0367546Y0023354D01*
X0367431Y0023463D01*
X0367318Y0023574D01*
X0367208Y0023688D01*
X0367101Y0023805D01*
X0366997Y0023924D01*
X0366896Y0024046D01*
X0366799Y0024171D01*
X0366704Y0024298D01*
X0366613Y0024427D01*
X0366524Y0024558D01*
X0366440Y0024692D01*
X0366358Y0024828D01*
X0366280Y0024965D01*
X0366206Y0025105D01*
X0366135Y0025247D01*
X0366067Y0025390D01*
X0366003Y0025535D01*
X0365943Y0025681D01*
X0365887Y0025829D01*
X0365834Y0025978D01*
X0365785Y0026129D01*
X0365740Y0026281D01*
X0365699Y0026434D01*
X0365661Y0026587D01*
X0365628Y0026742D01*
X0365598Y0026898D01*
X0365572Y0027054D01*
X0365551Y0027211D01*
X0365533Y0027368D01*
X0365519Y0027526D01*
X0365509Y0027684D01*
X0365503Y0027842D01*
X0365501Y0028000D01*
X0379910Y0050496D02*
X0379912Y0050649D01*
X0379918Y0050803D01*
X0379928Y0050956D01*
X0379942Y0051108D01*
X0379960Y0051261D01*
X0379982Y0051412D01*
X0380007Y0051563D01*
X0380037Y0051714D01*
X0380071Y0051864D01*
X0380108Y0052012D01*
X0380149Y0052160D01*
X0380194Y0052306D01*
X0380243Y0052452D01*
X0380296Y0052596D01*
X0380352Y0052738D01*
X0380412Y0052879D01*
X0380476Y0053019D01*
X0380543Y0053157D01*
X0380614Y0053293D01*
X0380689Y0053427D01*
X0380766Y0053559D01*
X0380848Y0053689D01*
X0380932Y0053817D01*
X0381020Y0053943D01*
X0381111Y0054066D01*
X0381205Y0054187D01*
X0381303Y0054305D01*
X0381403Y0054421D01*
X0381507Y0054534D01*
X0381613Y0054645D01*
X0381722Y0054753D01*
X0381834Y0054858D01*
X0381948Y0054959D01*
X0382066Y0055058D01*
X0382185Y0055154D01*
X0382307Y0055247D01*
X0382432Y0055336D01*
X0382559Y0055423D01*
X0382688Y0055505D01*
X0382819Y0055585D01*
X0382952Y0055661D01*
X0383087Y0055734D01*
X0383224Y0055803D01*
X0383363Y0055868D01*
X0383503Y0055930D01*
X0383645Y0055988D01*
X0383788Y0056043D01*
X0383933Y0056094D01*
X0384079Y0056141D01*
X0384226Y0056184D01*
X0384374Y0056223D01*
X0384523Y0056259D01*
X0384673Y0056290D01*
X0384824Y0056318D01*
X0384975Y0056342D01*
X0385128Y0056362D01*
X0385280Y0056378D01*
X0385433Y0056390D01*
X0385586Y0056398D01*
X0385739Y0056402D01*
X0385893Y0056402D01*
X0386046Y0056398D01*
X0386199Y0056390D01*
X0386352Y0056378D01*
X0386504Y0056362D01*
X0386657Y0056342D01*
X0386808Y0056318D01*
X0386959Y0056290D01*
X0387109Y0056259D01*
X0387258Y0056223D01*
X0387406Y0056184D01*
X0387553Y0056141D01*
X0387699Y0056094D01*
X0387844Y0056043D01*
X0387987Y0055988D01*
X0388129Y0055930D01*
X0388269Y0055868D01*
X0388408Y0055803D01*
X0388545Y0055734D01*
X0388680Y0055661D01*
X0388813Y0055585D01*
X0388944Y0055505D01*
X0389073Y0055423D01*
X0389200Y0055336D01*
X0389325Y0055247D01*
X0389447Y0055154D01*
X0389566Y0055058D01*
X0389684Y0054959D01*
X0389798Y0054858D01*
X0389910Y0054753D01*
X0390019Y0054645D01*
X0390125Y0054534D01*
X0390229Y0054421D01*
X0390329Y0054305D01*
X0390427Y0054187D01*
X0390521Y0054066D01*
X0390612Y0053943D01*
X0390700Y0053817D01*
X0390784Y0053689D01*
X0390866Y0053559D01*
X0390943Y0053427D01*
X0391018Y0053293D01*
X0391089Y0053157D01*
X0391156Y0053019D01*
X0391220Y0052879D01*
X0391280Y0052738D01*
X0391336Y0052596D01*
X0391389Y0052452D01*
X0391438Y0052306D01*
X0391483Y0052160D01*
X0391524Y0052012D01*
X0391561Y0051864D01*
X0391595Y0051714D01*
X0391625Y0051563D01*
X0391650Y0051412D01*
X0391672Y0051261D01*
X0391690Y0051108D01*
X0391704Y0050956D01*
X0391714Y0050803D01*
X0391720Y0050649D01*
X0391722Y0050496D01*
X0391720Y0050343D01*
X0391714Y0050189D01*
X0391704Y0050036D01*
X0391690Y0049884D01*
X0391672Y0049731D01*
X0391650Y0049580D01*
X0391625Y0049429D01*
X0391595Y0049278D01*
X0391561Y0049128D01*
X0391524Y0048980D01*
X0391483Y0048832D01*
X0391438Y0048686D01*
X0391389Y0048540D01*
X0391336Y0048396D01*
X0391280Y0048254D01*
X0391220Y0048113D01*
X0391156Y0047973D01*
X0391089Y0047835D01*
X0391018Y0047699D01*
X0390943Y0047565D01*
X0390866Y0047433D01*
X0390784Y0047303D01*
X0390700Y0047175D01*
X0390612Y0047049D01*
X0390521Y0046926D01*
X0390427Y0046805D01*
X0390329Y0046687D01*
X0390229Y0046571D01*
X0390125Y0046458D01*
X0390019Y0046347D01*
X0389910Y0046239D01*
X0389798Y0046134D01*
X0389684Y0046033D01*
X0389566Y0045934D01*
X0389447Y0045838D01*
X0389325Y0045745D01*
X0389200Y0045656D01*
X0389073Y0045569D01*
X0388944Y0045487D01*
X0388813Y0045407D01*
X0388680Y0045331D01*
X0388545Y0045258D01*
X0388408Y0045189D01*
X0388269Y0045124D01*
X0388129Y0045062D01*
X0387987Y0045004D01*
X0387844Y0044949D01*
X0387699Y0044898D01*
X0387553Y0044851D01*
X0387406Y0044808D01*
X0387258Y0044769D01*
X0387109Y0044733D01*
X0386959Y0044702D01*
X0386808Y0044674D01*
X0386657Y0044650D01*
X0386504Y0044630D01*
X0386352Y0044614D01*
X0386199Y0044602D01*
X0386046Y0044594D01*
X0385893Y0044590D01*
X0385739Y0044590D01*
X0385586Y0044594D01*
X0385433Y0044602D01*
X0385280Y0044614D01*
X0385128Y0044630D01*
X0384975Y0044650D01*
X0384824Y0044674D01*
X0384673Y0044702D01*
X0384523Y0044733D01*
X0384374Y0044769D01*
X0384226Y0044808D01*
X0384079Y0044851D01*
X0383933Y0044898D01*
X0383788Y0044949D01*
X0383645Y0045004D01*
X0383503Y0045062D01*
X0383363Y0045124D01*
X0383224Y0045189D01*
X0383087Y0045258D01*
X0382952Y0045331D01*
X0382819Y0045407D01*
X0382688Y0045487D01*
X0382559Y0045569D01*
X0382432Y0045656D01*
X0382307Y0045745D01*
X0382185Y0045838D01*
X0382066Y0045934D01*
X0381948Y0046033D01*
X0381834Y0046134D01*
X0381722Y0046239D01*
X0381613Y0046347D01*
X0381507Y0046458D01*
X0381403Y0046571D01*
X0381303Y0046687D01*
X0381205Y0046805D01*
X0381111Y0046926D01*
X0381020Y0047049D01*
X0380932Y0047175D01*
X0380848Y0047303D01*
X0380766Y0047433D01*
X0380689Y0047565D01*
X0380614Y0047699D01*
X0380543Y0047835D01*
X0380476Y0047973D01*
X0380412Y0048113D01*
X0380352Y0048254D01*
X0380296Y0048396D01*
X0380243Y0048540D01*
X0380194Y0048686D01*
X0380149Y0048832D01*
X0380108Y0048980D01*
X0380071Y0049128D01*
X0380037Y0049278D01*
X0380007Y0049429D01*
X0379982Y0049580D01*
X0379960Y0049731D01*
X0379942Y0049884D01*
X0379928Y0050036D01*
X0379918Y0050189D01*
X0379912Y0050343D01*
X0379910Y0050496D01*
X0379910Y0087504D02*
X0379912Y0087657D01*
X0379918Y0087811D01*
X0379928Y0087964D01*
X0379942Y0088116D01*
X0379960Y0088269D01*
X0379982Y0088420D01*
X0380007Y0088571D01*
X0380037Y0088722D01*
X0380071Y0088872D01*
X0380108Y0089020D01*
X0380149Y0089168D01*
X0380194Y0089314D01*
X0380243Y0089460D01*
X0380296Y0089604D01*
X0380352Y0089746D01*
X0380412Y0089887D01*
X0380476Y0090027D01*
X0380543Y0090165D01*
X0380614Y0090301D01*
X0380689Y0090435D01*
X0380766Y0090567D01*
X0380848Y0090697D01*
X0380932Y0090825D01*
X0381020Y0090951D01*
X0381111Y0091074D01*
X0381205Y0091195D01*
X0381303Y0091313D01*
X0381403Y0091429D01*
X0381507Y0091542D01*
X0381613Y0091653D01*
X0381722Y0091761D01*
X0381834Y0091866D01*
X0381948Y0091967D01*
X0382066Y0092066D01*
X0382185Y0092162D01*
X0382307Y0092255D01*
X0382432Y0092344D01*
X0382559Y0092431D01*
X0382688Y0092513D01*
X0382819Y0092593D01*
X0382952Y0092669D01*
X0383087Y0092742D01*
X0383224Y0092811D01*
X0383363Y0092876D01*
X0383503Y0092938D01*
X0383645Y0092996D01*
X0383788Y0093051D01*
X0383933Y0093102D01*
X0384079Y0093149D01*
X0384226Y0093192D01*
X0384374Y0093231D01*
X0384523Y0093267D01*
X0384673Y0093298D01*
X0384824Y0093326D01*
X0384975Y0093350D01*
X0385128Y0093370D01*
X0385280Y0093386D01*
X0385433Y0093398D01*
X0385586Y0093406D01*
X0385739Y0093410D01*
X0385893Y0093410D01*
X0386046Y0093406D01*
X0386199Y0093398D01*
X0386352Y0093386D01*
X0386504Y0093370D01*
X0386657Y0093350D01*
X0386808Y0093326D01*
X0386959Y0093298D01*
X0387109Y0093267D01*
X0387258Y0093231D01*
X0387406Y0093192D01*
X0387553Y0093149D01*
X0387699Y0093102D01*
X0387844Y0093051D01*
X0387987Y0092996D01*
X0388129Y0092938D01*
X0388269Y0092876D01*
X0388408Y0092811D01*
X0388545Y0092742D01*
X0388680Y0092669D01*
X0388813Y0092593D01*
X0388944Y0092513D01*
X0389073Y0092431D01*
X0389200Y0092344D01*
X0389325Y0092255D01*
X0389447Y0092162D01*
X0389566Y0092066D01*
X0389684Y0091967D01*
X0389798Y0091866D01*
X0389910Y0091761D01*
X0390019Y0091653D01*
X0390125Y0091542D01*
X0390229Y0091429D01*
X0390329Y0091313D01*
X0390427Y0091195D01*
X0390521Y0091074D01*
X0390612Y0090951D01*
X0390700Y0090825D01*
X0390784Y0090697D01*
X0390866Y0090567D01*
X0390943Y0090435D01*
X0391018Y0090301D01*
X0391089Y0090165D01*
X0391156Y0090027D01*
X0391220Y0089887D01*
X0391280Y0089746D01*
X0391336Y0089604D01*
X0391389Y0089460D01*
X0391438Y0089314D01*
X0391483Y0089168D01*
X0391524Y0089020D01*
X0391561Y0088872D01*
X0391595Y0088722D01*
X0391625Y0088571D01*
X0391650Y0088420D01*
X0391672Y0088269D01*
X0391690Y0088116D01*
X0391704Y0087964D01*
X0391714Y0087811D01*
X0391720Y0087657D01*
X0391722Y0087504D01*
X0391720Y0087351D01*
X0391714Y0087197D01*
X0391704Y0087044D01*
X0391690Y0086892D01*
X0391672Y0086739D01*
X0391650Y0086588D01*
X0391625Y0086437D01*
X0391595Y0086286D01*
X0391561Y0086136D01*
X0391524Y0085988D01*
X0391483Y0085840D01*
X0391438Y0085694D01*
X0391389Y0085548D01*
X0391336Y0085404D01*
X0391280Y0085262D01*
X0391220Y0085121D01*
X0391156Y0084981D01*
X0391089Y0084843D01*
X0391018Y0084707D01*
X0390943Y0084573D01*
X0390866Y0084441D01*
X0390784Y0084311D01*
X0390700Y0084183D01*
X0390612Y0084057D01*
X0390521Y0083934D01*
X0390427Y0083813D01*
X0390329Y0083695D01*
X0390229Y0083579D01*
X0390125Y0083466D01*
X0390019Y0083355D01*
X0389910Y0083247D01*
X0389798Y0083142D01*
X0389684Y0083041D01*
X0389566Y0082942D01*
X0389447Y0082846D01*
X0389325Y0082753D01*
X0389200Y0082664D01*
X0389073Y0082577D01*
X0388944Y0082495D01*
X0388813Y0082415D01*
X0388680Y0082339D01*
X0388545Y0082266D01*
X0388408Y0082197D01*
X0388269Y0082132D01*
X0388129Y0082070D01*
X0387987Y0082012D01*
X0387844Y0081957D01*
X0387699Y0081906D01*
X0387553Y0081859D01*
X0387406Y0081816D01*
X0387258Y0081777D01*
X0387109Y0081741D01*
X0386959Y0081710D01*
X0386808Y0081682D01*
X0386657Y0081658D01*
X0386504Y0081638D01*
X0386352Y0081622D01*
X0386199Y0081610D01*
X0386046Y0081602D01*
X0385893Y0081598D01*
X0385739Y0081598D01*
X0385586Y0081602D01*
X0385433Y0081610D01*
X0385280Y0081622D01*
X0385128Y0081638D01*
X0384975Y0081658D01*
X0384824Y0081682D01*
X0384673Y0081710D01*
X0384523Y0081741D01*
X0384374Y0081777D01*
X0384226Y0081816D01*
X0384079Y0081859D01*
X0383933Y0081906D01*
X0383788Y0081957D01*
X0383645Y0082012D01*
X0383503Y0082070D01*
X0383363Y0082132D01*
X0383224Y0082197D01*
X0383087Y0082266D01*
X0382952Y0082339D01*
X0382819Y0082415D01*
X0382688Y0082495D01*
X0382559Y0082577D01*
X0382432Y0082664D01*
X0382307Y0082753D01*
X0382185Y0082846D01*
X0382066Y0082942D01*
X0381948Y0083041D01*
X0381834Y0083142D01*
X0381722Y0083247D01*
X0381613Y0083355D01*
X0381507Y0083466D01*
X0381403Y0083579D01*
X0381303Y0083695D01*
X0381205Y0083813D01*
X0381111Y0083934D01*
X0381020Y0084057D01*
X0380932Y0084183D01*
X0380848Y0084311D01*
X0380766Y0084441D01*
X0380689Y0084573D01*
X0380614Y0084707D01*
X0380543Y0084843D01*
X0380476Y0084981D01*
X0380412Y0085121D01*
X0380352Y0085262D01*
X0380296Y0085404D01*
X0380243Y0085548D01*
X0380194Y0085694D01*
X0380149Y0085840D01*
X0380108Y0085988D01*
X0380071Y0086136D01*
X0380037Y0086286D01*
X0380007Y0086437D01*
X0379982Y0086588D01*
X0379960Y0086739D01*
X0379942Y0086892D01*
X0379928Y0087044D01*
X0379918Y0087197D01*
X0379912Y0087351D01*
X0379910Y0087504D01*
X0364251Y0371500D02*
X0364253Y0371658D01*
X0364259Y0371816D01*
X0364269Y0371974D01*
X0364283Y0372132D01*
X0364301Y0372289D01*
X0364322Y0372446D01*
X0364348Y0372602D01*
X0364378Y0372758D01*
X0364411Y0372913D01*
X0364449Y0373066D01*
X0364490Y0373219D01*
X0364535Y0373371D01*
X0364584Y0373522D01*
X0364637Y0373671D01*
X0364693Y0373819D01*
X0364753Y0373965D01*
X0364817Y0374110D01*
X0364885Y0374253D01*
X0364956Y0374395D01*
X0365030Y0374535D01*
X0365108Y0374672D01*
X0365190Y0374808D01*
X0365274Y0374942D01*
X0365363Y0375073D01*
X0365454Y0375202D01*
X0365549Y0375329D01*
X0365646Y0375454D01*
X0365747Y0375576D01*
X0365851Y0375695D01*
X0365958Y0375812D01*
X0366068Y0375926D01*
X0366181Y0376037D01*
X0366296Y0376146D01*
X0366414Y0376251D01*
X0366535Y0376353D01*
X0366658Y0376453D01*
X0366784Y0376549D01*
X0366912Y0376642D01*
X0367042Y0376732D01*
X0367175Y0376818D01*
X0367310Y0376902D01*
X0367446Y0376981D01*
X0367585Y0377058D01*
X0367726Y0377130D01*
X0367868Y0377200D01*
X0368012Y0377265D01*
X0368158Y0377327D01*
X0368305Y0377385D01*
X0368454Y0377440D01*
X0368604Y0377491D01*
X0368755Y0377538D01*
X0368907Y0377581D01*
X0369060Y0377620D01*
X0369215Y0377656D01*
X0369370Y0377687D01*
X0369526Y0377715D01*
X0369682Y0377739D01*
X0369839Y0377759D01*
X0369997Y0377775D01*
X0370154Y0377787D01*
X0370313Y0377795D01*
X0370471Y0377799D01*
X0370629Y0377799D01*
X0370787Y0377795D01*
X0370946Y0377787D01*
X0371103Y0377775D01*
X0371261Y0377759D01*
X0371418Y0377739D01*
X0371574Y0377715D01*
X0371730Y0377687D01*
X0371885Y0377656D01*
X0372040Y0377620D01*
X0372193Y0377581D01*
X0372345Y0377538D01*
X0372496Y0377491D01*
X0372646Y0377440D01*
X0372795Y0377385D01*
X0372942Y0377327D01*
X0373088Y0377265D01*
X0373232Y0377200D01*
X0373374Y0377130D01*
X0373515Y0377058D01*
X0373654Y0376981D01*
X0373790Y0376902D01*
X0373925Y0376818D01*
X0374058Y0376732D01*
X0374188Y0376642D01*
X0374316Y0376549D01*
X0374442Y0376453D01*
X0374565Y0376353D01*
X0374686Y0376251D01*
X0374804Y0376146D01*
X0374919Y0376037D01*
X0375032Y0375926D01*
X0375142Y0375812D01*
X0375249Y0375695D01*
X0375353Y0375576D01*
X0375454Y0375454D01*
X0375551Y0375329D01*
X0375646Y0375202D01*
X0375737Y0375073D01*
X0375826Y0374942D01*
X0375910Y0374808D01*
X0375992Y0374672D01*
X0376070Y0374535D01*
X0376144Y0374395D01*
X0376215Y0374253D01*
X0376283Y0374110D01*
X0376347Y0373965D01*
X0376407Y0373819D01*
X0376463Y0373671D01*
X0376516Y0373522D01*
X0376565Y0373371D01*
X0376610Y0373219D01*
X0376651Y0373066D01*
X0376689Y0372913D01*
X0376722Y0372758D01*
X0376752Y0372602D01*
X0376778Y0372446D01*
X0376799Y0372289D01*
X0376817Y0372132D01*
X0376831Y0371974D01*
X0376841Y0371816D01*
X0376847Y0371658D01*
X0376849Y0371500D01*
X0376847Y0371342D01*
X0376841Y0371184D01*
X0376831Y0371026D01*
X0376817Y0370868D01*
X0376799Y0370711D01*
X0376778Y0370554D01*
X0376752Y0370398D01*
X0376722Y0370242D01*
X0376689Y0370087D01*
X0376651Y0369934D01*
X0376610Y0369781D01*
X0376565Y0369629D01*
X0376516Y0369478D01*
X0376463Y0369329D01*
X0376407Y0369181D01*
X0376347Y0369035D01*
X0376283Y0368890D01*
X0376215Y0368747D01*
X0376144Y0368605D01*
X0376070Y0368465D01*
X0375992Y0368328D01*
X0375910Y0368192D01*
X0375826Y0368058D01*
X0375737Y0367927D01*
X0375646Y0367798D01*
X0375551Y0367671D01*
X0375454Y0367546D01*
X0375353Y0367424D01*
X0375249Y0367305D01*
X0375142Y0367188D01*
X0375032Y0367074D01*
X0374919Y0366963D01*
X0374804Y0366854D01*
X0374686Y0366749D01*
X0374565Y0366647D01*
X0374442Y0366547D01*
X0374316Y0366451D01*
X0374188Y0366358D01*
X0374058Y0366268D01*
X0373925Y0366182D01*
X0373790Y0366098D01*
X0373654Y0366019D01*
X0373515Y0365942D01*
X0373374Y0365870D01*
X0373232Y0365800D01*
X0373088Y0365735D01*
X0372942Y0365673D01*
X0372795Y0365615D01*
X0372646Y0365560D01*
X0372496Y0365509D01*
X0372345Y0365462D01*
X0372193Y0365419D01*
X0372040Y0365380D01*
X0371885Y0365344D01*
X0371730Y0365313D01*
X0371574Y0365285D01*
X0371418Y0365261D01*
X0371261Y0365241D01*
X0371103Y0365225D01*
X0370946Y0365213D01*
X0370787Y0365205D01*
X0370629Y0365201D01*
X0370471Y0365201D01*
X0370313Y0365205D01*
X0370154Y0365213D01*
X0369997Y0365225D01*
X0369839Y0365241D01*
X0369682Y0365261D01*
X0369526Y0365285D01*
X0369370Y0365313D01*
X0369215Y0365344D01*
X0369060Y0365380D01*
X0368907Y0365419D01*
X0368755Y0365462D01*
X0368604Y0365509D01*
X0368454Y0365560D01*
X0368305Y0365615D01*
X0368158Y0365673D01*
X0368012Y0365735D01*
X0367868Y0365800D01*
X0367726Y0365870D01*
X0367585Y0365942D01*
X0367446Y0366019D01*
X0367310Y0366098D01*
X0367175Y0366182D01*
X0367042Y0366268D01*
X0366912Y0366358D01*
X0366784Y0366451D01*
X0366658Y0366547D01*
X0366535Y0366647D01*
X0366414Y0366749D01*
X0366296Y0366854D01*
X0366181Y0366963D01*
X0366068Y0367074D01*
X0365958Y0367188D01*
X0365851Y0367305D01*
X0365747Y0367424D01*
X0365646Y0367546D01*
X0365549Y0367671D01*
X0365454Y0367798D01*
X0365363Y0367927D01*
X0365274Y0368058D01*
X0365190Y0368192D01*
X0365108Y0368328D01*
X0365030Y0368465D01*
X0364956Y0368605D01*
X0364885Y0368747D01*
X0364817Y0368890D01*
X0364753Y0369035D01*
X0364693Y0369181D01*
X0364637Y0369329D01*
X0364584Y0369478D01*
X0364535Y0369629D01*
X0364490Y0369781D01*
X0364449Y0369934D01*
X0364411Y0370087D01*
X0364378Y0370242D01*
X0364348Y0370398D01*
X0364322Y0370554D01*
X0364301Y0370711D01*
X0364283Y0370868D01*
X0364269Y0371026D01*
X0364259Y0371184D01*
X0364253Y0371342D01*
X0364251Y0371500D01*
D11*
X0359550Y0233990D03*
X0359550Y0226510D03*
X0359050Y0200240D03*
X0359050Y0192760D03*
X0350550Y0192760D03*
X0350550Y0200240D03*
X0331550Y0209760D03*
X0331550Y0217240D03*
X0332800Y0156490D03*
X0332800Y0149010D03*
X0341550Y0149260D03*
X0341550Y0156740D03*
X0261800Y0158740D03*
X0261800Y0151260D03*
X0220300Y0126740D03*
X0220300Y0119260D03*
X0168800Y0105740D03*
X0168800Y0098260D03*
X0213800Y0176760D03*
X0213800Y0184240D03*
X0195550Y0184260D03*
X0195550Y0191740D03*
X0146300Y0194260D03*
X0146300Y0201740D03*
X0073800Y0164990D03*
X0073800Y0157510D03*
D12*
X0069300Y0123902D03*
X0069300Y0099098D03*
X0246800Y0057402D03*
X0246800Y0032598D03*
X0250800Y0089598D03*
X0250800Y0114402D03*
D13*
X0220800Y0056346D03*
X0220800Y0049654D03*
X0211800Y0049654D03*
X0211800Y0056346D03*
X0211800Y0040346D03*
X0211800Y0033654D03*
X0220800Y0033654D03*
X0220800Y0040346D03*
X0273800Y0040346D03*
X0273800Y0033654D03*
X0312300Y0061904D03*
X0312300Y0068596D03*
X0321454Y0068000D03*
X0328146Y0068000D03*
X0328146Y0059000D03*
X0321454Y0059000D03*
X0334454Y0050250D03*
X0341146Y0050250D03*
X0159800Y0043346D03*
X0159800Y0036654D03*
X0097550Y0053404D03*
X0097550Y0060096D03*
X0054300Y0110154D03*
X0054300Y0116846D03*
X0190954Y0236750D03*
X0197646Y0236750D03*
X0208800Y0252904D03*
X0208800Y0259596D03*
X0191146Y0258500D03*
X0184454Y0258500D03*
X0189454Y0289250D03*
X0196146Y0289250D03*
X0209800Y0286096D03*
X0209800Y0279404D03*
D14*
X0286538Y0155750D03*
X0297562Y0155750D03*
X0297562Y0146500D03*
X0286538Y0146500D03*
X0193312Y0116000D03*
X0182288Y0116000D03*
X0059812Y0077500D03*
X0048788Y0077500D03*
X0070788Y0303000D03*
X0081812Y0303000D03*
D15*
X0032300Y0120012D03*
X0032300Y0108988D03*
X0078300Y0051012D03*
X0078300Y0039988D03*
X0236800Y0095488D03*
X0236800Y0106512D03*
X0259800Y0051512D03*
X0259800Y0040488D03*
D16*
X0321454Y0041000D03*
X0328146Y0041000D03*
X0328146Y0032000D03*
X0321454Y0032000D03*
X0321454Y0050000D03*
X0328146Y0050000D03*
X0309146Y0128500D03*
X0302454Y0128500D03*
X0183800Y0244904D03*
X0183800Y0251596D03*
X0173800Y0251596D03*
X0173800Y0244904D03*
X0167800Y0274904D03*
X0167800Y0281596D03*
X0037300Y0089846D03*
X0037300Y0083154D03*
X0037300Y0071846D03*
X0037300Y0065154D03*
D17*
X0080050Y0230000D03*
X0070050Y0235000D03*
X0070050Y0245000D03*
X0080050Y0240000D03*
X0080050Y0250000D03*
X0070050Y0255000D03*
X0080050Y0260000D03*
X0383050Y0239000D03*
X0382800Y0166250D03*
D18*
X0372800Y0166250D03*
X0372800Y0176250D03*
X0372800Y0186250D03*
X0382800Y0186250D03*
X0382800Y0176250D03*
X0382800Y0196250D03*
X0382800Y0206250D03*
X0372800Y0206250D03*
X0372800Y0196250D03*
X0373050Y0239000D03*
X0373050Y0249000D03*
X0383050Y0249000D03*
X0383050Y0259000D03*
X0373050Y0259000D03*
D19*
X0099030Y0136250D03*
X0084070Y0136250D03*
X0083820Y0112500D03*
X0098780Y0112500D03*
D20*
X0259450Y0130500D02*
X0264650Y0130500D01*
X0289450Y0130500D02*
X0294650Y0130500D01*
D21*
X0282233Y0087000D03*
X0311367Y0087000D03*
X0350733Y0111000D03*
X0357733Y0136750D03*
X0386867Y0136750D03*
X0379867Y0111000D03*
D22*
X0372282Y0089132D03*
X0355550Y0089132D03*
D23*
X0147300Y0086000D03*
X0147300Y0076000D03*
X0147300Y0066000D03*
X0147300Y0096000D03*
X0112300Y0096000D03*
X0112300Y0086000D03*
X0112300Y0076000D03*
X0112300Y0066000D03*
D24*
X0284903Y0055957D03*
X0284903Y0053398D03*
X0284903Y0050839D03*
X0284903Y0048280D03*
X0284903Y0045720D03*
X0284903Y0043161D03*
X0284903Y0040602D03*
X0284903Y0038043D03*
X0306697Y0038043D03*
X0306697Y0040602D03*
X0306697Y0043161D03*
X0306697Y0045720D03*
X0306697Y0048280D03*
X0306697Y0050839D03*
X0306697Y0053398D03*
X0306697Y0055957D03*
D25*
X0295800Y0047000D03*
D26*
X0199287Y0046602D03*
X0199287Y0044043D03*
X0199287Y0049161D03*
X0199287Y0051720D03*
X0199287Y0054280D03*
X0199287Y0056839D03*
X0199287Y0059398D03*
X0199287Y0061957D03*
X0176313Y0061957D03*
X0176313Y0059398D03*
X0176313Y0056839D03*
X0176313Y0054280D03*
X0176313Y0051720D03*
X0176313Y0049161D03*
X0176313Y0046602D03*
X0176313Y0044043D03*
D27*
X0070050Y0265000D03*
D28*
X0057050Y0278500D03*
X0057050Y0216500D03*
D29*
X0282481Y0112000D03*
X0309119Y0112000D03*
D30*
X0110300Y0296750D03*
X0110300Y0308750D03*
X0092300Y0308750D03*
X0092300Y0296750D03*
D31*
X0057550Y0298000D03*
X0057550Y0308000D03*
X0057550Y0318000D03*
X0024550Y0318000D03*
X0024550Y0308000D03*
X0024550Y0298000D03*
D32*
X0173060Y0140118D03*
X0180540Y0140118D03*
X0180540Y0129882D03*
X0176800Y0129882D03*
X0173060Y0129882D03*
X0047040Y0119618D03*
X0039560Y0119618D03*
X0039560Y0109382D03*
X0043300Y0109382D03*
X0047040Y0109382D03*
D33*
X0107267Y0112400D03*
X0107267Y0124250D03*
X0107306Y0136179D03*
X0151794Y0136179D03*
X0151755Y0124250D03*
X0151755Y0112321D03*
D34*
X0082040Y0073831D03*
X0074560Y0073831D03*
X0078300Y0065169D03*
D35*
X0184265Y0267250D03*
X0184265Y0269219D03*
X0184265Y0271187D03*
X0184265Y0273156D03*
X0184265Y0275124D03*
X0184265Y0277093D03*
X0184265Y0279061D03*
X0184265Y0281030D03*
X0200800Y0281030D03*
X0200800Y0279061D03*
X0200800Y0277093D03*
X0200800Y0275124D03*
X0200800Y0273156D03*
X0200800Y0271187D03*
X0200800Y0269219D03*
X0200800Y0267250D03*
D36*
X0020721Y0099185D03*
X0020721Y0094264D03*
X0020721Y0089343D03*
X0020721Y0084421D03*
X0020721Y0079500D03*
X0020721Y0074579D03*
X0020721Y0069657D03*
X0020721Y0064736D03*
X0020721Y0059815D03*
D37*
X0009894Y0049776D03*
X0009894Y0109224D03*
D38*
X0181957Y0024913D03*
X0186879Y0024913D03*
X0191800Y0024913D03*
X0196721Y0024913D03*
X0201643Y0024913D03*
D39*
X0208926Y0011921D03*
X0174674Y0011921D03*
D40*
X0365973Y0069000D03*
X0387627Y0069000D03*
D41*
X0322828Y0146608D03*
X0322828Y0153892D03*
X0313772Y0153892D03*
X0313772Y0146608D03*
D42*
X0310999Y0184730D03*
X0309030Y0184730D03*
X0307062Y0184730D03*
X0305093Y0184730D03*
X0303125Y0184730D03*
X0301156Y0184730D03*
X0299188Y0184730D03*
X0297219Y0184730D03*
X0295251Y0184730D03*
X0293282Y0184730D03*
X0291314Y0184730D03*
X0289345Y0184730D03*
X0287377Y0184730D03*
X0285408Y0184730D03*
X0283440Y0184730D03*
X0281471Y0184730D03*
X0279503Y0184730D03*
X0277534Y0184730D03*
X0275566Y0184730D03*
X0273597Y0184730D03*
X0271629Y0184730D03*
X0269660Y0184730D03*
X0267692Y0184730D03*
X0265723Y0184730D03*
X0263755Y0184730D03*
X0261786Y0184730D03*
X0259818Y0184730D03*
X0257849Y0184730D03*
X0255881Y0184730D03*
X0253912Y0184730D03*
X0251944Y0184730D03*
X0249975Y0184730D03*
X0248007Y0184730D03*
X0246038Y0184730D03*
X0244070Y0184730D03*
X0242101Y0184730D03*
X0242101Y0269770D03*
X0244070Y0269770D03*
X0246038Y0269770D03*
X0248007Y0269770D03*
X0249975Y0269770D03*
X0251944Y0269770D03*
X0253912Y0269770D03*
X0255881Y0269770D03*
X0257849Y0269770D03*
X0259818Y0269770D03*
X0261786Y0269770D03*
X0263755Y0269770D03*
X0265723Y0269770D03*
X0267692Y0269770D03*
X0269660Y0269770D03*
X0271629Y0269770D03*
X0273597Y0269770D03*
X0275566Y0269770D03*
X0277534Y0269770D03*
X0279503Y0269770D03*
X0281471Y0269770D03*
X0283440Y0269770D03*
X0285408Y0269770D03*
X0287377Y0269770D03*
X0289345Y0269770D03*
X0291314Y0269770D03*
X0293282Y0269770D03*
X0295251Y0269770D03*
X0297219Y0269770D03*
X0299188Y0269770D03*
X0301156Y0269770D03*
X0303125Y0269770D03*
X0305093Y0269770D03*
X0307062Y0269770D03*
X0309030Y0269770D03*
X0310999Y0269770D03*
D43*
X0319070Y0261699D03*
X0319070Y0259730D03*
X0319070Y0257762D03*
X0319070Y0255793D03*
X0319070Y0253825D03*
X0319070Y0251856D03*
X0319070Y0249888D03*
X0319070Y0247919D03*
X0319070Y0245951D03*
X0319070Y0243982D03*
X0319070Y0242014D03*
X0319070Y0240045D03*
X0319070Y0238077D03*
X0319070Y0236108D03*
X0319070Y0234140D03*
X0319070Y0232171D03*
X0319070Y0230203D03*
X0319070Y0228234D03*
X0319070Y0226266D03*
X0319070Y0224297D03*
X0319070Y0222329D03*
X0319070Y0220360D03*
X0319070Y0218392D03*
X0319070Y0216423D03*
X0319070Y0214455D03*
X0319070Y0212486D03*
X0319070Y0210518D03*
X0319070Y0208549D03*
X0319070Y0206581D03*
X0319070Y0204612D03*
X0319070Y0202644D03*
X0319070Y0200675D03*
X0319070Y0198707D03*
X0319070Y0196738D03*
X0319070Y0194770D03*
X0319070Y0192801D03*
X0234030Y0192801D03*
X0234030Y0194770D03*
X0234030Y0196738D03*
X0234030Y0198707D03*
X0234030Y0200675D03*
X0234030Y0202644D03*
X0234030Y0204612D03*
X0234030Y0206581D03*
X0234030Y0208549D03*
X0234030Y0210518D03*
X0234030Y0212486D03*
X0234030Y0214455D03*
X0234030Y0216423D03*
X0234030Y0218392D03*
X0234030Y0220360D03*
X0234030Y0222329D03*
X0234030Y0224297D03*
X0234030Y0226266D03*
X0234030Y0228234D03*
X0234030Y0230203D03*
X0234030Y0232171D03*
X0234030Y0234140D03*
X0234030Y0236108D03*
X0234030Y0238077D03*
X0234030Y0240045D03*
X0234030Y0242014D03*
X0234030Y0243982D03*
X0234030Y0245951D03*
X0234030Y0247919D03*
X0234030Y0249888D03*
X0234030Y0251856D03*
X0234030Y0253825D03*
X0234030Y0255793D03*
X0234030Y0257762D03*
X0234030Y0259730D03*
X0234030Y0261699D03*
D44*
X0195300Y0174884D03*
X0195300Y0166616D03*
X0213800Y0167384D03*
X0213800Y0159116D03*
X0164800Y0020134D03*
X0156550Y0020134D03*
X0156550Y0011866D03*
X0164800Y0011866D03*
D45*
X0149290Y0049000D03*
X0141810Y0049000D03*
X0141810Y0057500D03*
X0149290Y0057500D03*
X0150560Y0161000D03*
X0158040Y0161000D03*
X0158290Y0171500D03*
X0150810Y0171500D03*
X0212060Y0230250D03*
X0219540Y0230250D03*
X0233060Y0279250D03*
X0240540Y0279250D03*
X0313810Y0280750D03*
X0321290Y0280750D03*
X0323540Y0288750D03*
X0316060Y0288750D03*
X0340060Y0242250D03*
X0347540Y0242250D03*
X0347540Y0233750D03*
X0340060Y0233750D03*
X0340060Y0225000D03*
X0347540Y0225000D03*
X0351310Y0209500D03*
X0358790Y0209500D03*
X0325790Y0181250D03*
X0318310Y0181250D03*
X0318310Y0172500D03*
X0325790Y0172500D03*
X0062290Y0165500D03*
X0054810Y0165500D03*
X0054810Y0182250D03*
X0062290Y0182250D03*
D46*
X0330969Y0290000D03*
X0339631Y0290000D03*
D47*
X0335300Y0182581D03*
X0335300Y0173919D03*
D48*
X0329800Y0249189D03*
X0329800Y0272811D03*
X0211800Y0219061D03*
X0211800Y0195439D03*
D49*
X0173050Y0187937D03*
X0173050Y0180063D03*
X0164300Y0180063D03*
X0164300Y0187937D03*
D50*
X0128550Y0186500D03*
X0128550Y0181500D03*
X0128550Y0176500D03*
X0128550Y0171500D03*
X0128550Y0166500D03*
X0128550Y0161500D03*
X0128550Y0191500D03*
X0128550Y0196500D03*
X0091550Y0196500D03*
X0091550Y0191500D03*
X0091550Y0186500D03*
X0091550Y0181500D03*
X0091550Y0176500D03*
X0091550Y0171500D03*
X0091550Y0166500D03*
X0091550Y0161500D03*
D51*
X0177800Y0315000D03*
X0181737Y0315000D03*
X0185674Y0315000D03*
X0189611Y0315000D03*
X0193548Y0315000D03*
X0197485Y0315000D03*
X0201422Y0315000D03*
X0205359Y0315000D03*
X0209296Y0315000D03*
X0213233Y0315000D03*
X0217170Y0315000D03*
X0221107Y0315000D03*
X0225044Y0315000D03*
X0228981Y0315000D03*
X0232918Y0315000D03*
X0236855Y0315000D03*
X0240792Y0315000D03*
X0244729Y0315000D03*
X0248666Y0315000D03*
X0252603Y0315000D03*
X0256540Y0315000D03*
X0260477Y0315000D03*
X0264414Y0315000D03*
X0268351Y0315000D03*
X0272288Y0315000D03*
X0276225Y0315000D03*
X0280162Y0315000D03*
X0284099Y0315000D03*
X0288036Y0315000D03*
X0291973Y0315000D03*
X0295910Y0315000D03*
X0299847Y0315000D03*
X0303784Y0315000D03*
X0307721Y0315000D03*
X0311658Y0315000D03*
X0315595Y0315000D03*
X0319532Y0315000D03*
X0323469Y0315000D03*
X0327406Y0315000D03*
X0331343Y0315000D03*
D52*
X0343154Y0322874D03*
X0165989Y0322874D03*
D53*
X0175300Y0298500D03*
X0175550Y0287000D03*
X0209300Y0244750D03*
X0225050Y0238500D03*
X0190800Y0227000D03*
X0224050Y0201250D03*
X0234300Y0168500D03*
X0250550Y0168750D03*
X0237550Y0148500D03*
X0265300Y0115500D03*
X0274050Y0162500D03*
X0364800Y0279000D03*
X0350800Y0298000D03*
D54*
X0352300Y0242250D02*
X0347540Y0242250D01*
X0340060Y0242250D02*
X0339824Y0242014D01*
X0319070Y0242014D01*
X0319070Y0232171D02*
X0338879Y0232171D01*
X0339550Y0231500D01*
X0340060Y0233750D02*
X0340060Y0242250D01*
X0340060Y0233750D02*
X0340060Y0225000D01*
X0339550Y0224000D02*
X0338721Y0222329D01*
X0319070Y0222329D01*
X0346274Y0226266D02*
X0346274Y0232484D01*
X0347540Y0233750D01*
X0347150Y0234140D01*
X0347540Y0233750D02*
X0353050Y0233750D01*
X0346274Y0226266D02*
X0347540Y0225000D01*
X0358790Y0209500D02*
X0358790Y0208990D01*
X0358800Y0209500D01*
X0343050Y0197250D02*
X0342538Y0196738D01*
X0338925Y0190375D02*
X0337550Y0189000D01*
X0338925Y0190375D02*
X0341550Y0187750D01*
X0341550Y0179500D01*
X0345800Y0187750D02*
X0357800Y0187750D01*
X0358300Y0187750D01*
X0359300Y0186750D01*
X0359300Y0184500D01*
X0359550Y0184250D01*
X0357800Y0187750D02*
X0359050Y0189000D01*
X0359050Y0192760D01*
X0359050Y0192010D01*
X0350550Y0192760D02*
X0350040Y0192760D01*
X0349550Y0193250D01*
X0377800Y0199750D02*
X0377800Y0212750D01*
X0376050Y0214500D01*
X0377800Y0199750D02*
X0381300Y0196250D01*
X0382800Y0196250D01*
X0319070Y0192801D02*
X0319019Y0192750D01*
X0306800Y0140750D02*
X0277300Y0140750D01*
X0273831Y0141493D01*
X0273831Y0137273D01*
X0272777Y0136219D01*
X0267323Y0136219D01*
X0266269Y0137273D01*
X0266269Y0141500D01*
X0260050Y0141500D01*
X0252850Y0141300D01*
X0252850Y0136297D01*
X0252081Y0135528D01*
X0252081Y0132273D01*
X0251027Y0131219D01*
X0245573Y0131219D01*
X0244519Y0132273D01*
X0244519Y0137727D01*
X0245573Y0138781D01*
X0248250Y0138781D01*
X0248250Y0141483D01*
X0245050Y0141750D01*
X0241550Y0141500D01*
X0239550Y0141500D01*
X0233800Y0141750D01*
X0231550Y0139750D01*
X0231300Y0138000D01*
X0231300Y0137500D01*
X0230800Y0137750D01*
X0230800Y0104000D01*
X0231660Y0103140D01*
X0231657Y0103152D01*
X0231657Y0105912D01*
X0236200Y0105912D01*
X0236200Y0107112D01*
X0236200Y0111261D01*
X0233046Y0111261D01*
X0232639Y0111152D01*
X0232274Y0110942D01*
X0231976Y0110644D01*
X0231766Y0110279D01*
X0231657Y0109872D01*
X0231657Y0107112D01*
X0236200Y0107112D01*
X0237400Y0107112D01*
X0237400Y0111261D01*
X0240554Y0111261D01*
X0240961Y0111152D01*
X0241326Y0110942D01*
X0241624Y0110644D01*
X0241834Y0110279D01*
X0241943Y0109872D01*
X0241943Y0107112D01*
X0237400Y0107112D01*
X0237400Y0105912D01*
X0241943Y0105912D01*
X0241943Y0103152D01*
X0241834Y0102745D01*
X0241624Y0102380D01*
X0241326Y0102082D01*
X0240961Y0101871D01*
X0240554Y0101762D01*
X0237400Y0101762D01*
X0237400Y0105912D01*
X0236200Y0105912D01*
X0236200Y0101762D01*
X0233046Y0101762D01*
X0233035Y0101765D01*
X0233800Y0101000D01*
X0291050Y0101000D01*
X0291300Y0101250D01*
X0291300Y0122250D01*
X0291550Y0122500D01*
X0298050Y0122500D01*
X0300281Y0124731D01*
X0299543Y0124731D01*
X0298488Y0125786D01*
X0298488Y0127100D01*
X0297473Y0127100D01*
X0297142Y0126770D01*
X0295525Y0126100D01*
X0288575Y0126100D01*
X0286958Y0126770D01*
X0285720Y0128008D01*
X0285050Y0129625D01*
X0285050Y0131375D01*
X0285720Y0132992D01*
X0286958Y0134230D01*
X0288575Y0134900D01*
X0295525Y0134900D01*
X0297142Y0134230D01*
X0297473Y0133900D01*
X0301130Y0133900D01*
X0302379Y0133382D01*
X0303493Y0132268D01*
X0305364Y0132268D01*
X0305800Y0131833D01*
X0306236Y0132268D01*
X0306800Y0132268D01*
X0306800Y0140750D01*
X0306800Y0139630D02*
X0273831Y0139630D01*
X0273831Y0138432D02*
X0306800Y0138432D01*
X0306800Y0137233D02*
X0273791Y0137233D01*
X0273831Y0140829D02*
X0276932Y0140829D01*
X0266269Y0140829D02*
X0252850Y0140829D01*
X0252850Y0139630D02*
X0266269Y0139630D01*
X0266269Y0138432D02*
X0252850Y0138432D01*
X0252850Y0137233D02*
X0266309Y0137233D01*
X0265634Y0134597D02*
X0264981Y0134700D01*
X0262250Y0134700D01*
X0262250Y0130700D01*
X0261850Y0130700D01*
X0261850Y0134700D01*
X0259119Y0134700D01*
X0258466Y0134597D01*
X0257838Y0134392D01*
X0257249Y0134092D01*
X0256714Y0133704D01*
X0256246Y0133236D01*
X0255858Y0132701D01*
X0255558Y0132112D01*
X0255353Y0131484D01*
X0255250Y0130831D01*
X0255250Y0130700D01*
X0261850Y0130700D01*
X0261850Y0130300D01*
X0262250Y0130300D01*
X0262250Y0130700D01*
X0268850Y0130700D01*
X0268850Y0130831D01*
X0268747Y0131484D01*
X0268542Y0132112D01*
X0268242Y0132701D01*
X0267854Y0133236D01*
X0267386Y0133704D01*
X0266851Y0134092D01*
X0266262Y0134392D01*
X0265634Y0134597D01*
X0267452Y0133638D02*
X0286365Y0133638D01*
X0285491Y0132439D02*
X0268376Y0132439D01*
X0268785Y0131241D02*
X0285050Y0131241D01*
X0285050Y0130042D02*
X0268830Y0130042D01*
X0268850Y0130169D02*
X0268850Y0130300D01*
X0262250Y0130300D01*
X0262250Y0126300D01*
X0264981Y0126300D01*
X0265634Y0126403D01*
X0266262Y0126608D01*
X0266851Y0126908D01*
X0267386Y0127296D01*
X0267854Y0127764D01*
X0268242Y0128299D01*
X0268542Y0128888D01*
X0268747Y0129516D01*
X0268850Y0130169D01*
X0268520Y0128844D02*
X0285374Y0128844D01*
X0286082Y0127645D02*
X0267735Y0127645D01*
X0265767Y0126447D02*
X0287738Y0126447D01*
X0287121Y0122458D02*
X0283081Y0122458D01*
X0283081Y0112600D01*
X0281881Y0112600D01*
X0281881Y0111400D01*
X0276452Y0111400D01*
X0276452Y0102931D01*
X0276561Y0102524D01*
X0276772Y0102159D01*
X0277070Y0101861D01*
X0277434Y0101651D01*
X0277841Y0101542D01*
X0281881Y0101542D01*
X0281881Y0111400D01*
X0283081Y0111400D01*
X0283081Y0101542D01*
X0287121Y0101542D01*
X0287528Y0101651D01*
X0287893Y0101861D01*
X0288191Y0102159D01*
X0288401Y0102524D01*
X0288510Y0102931D01*
X0288510Y0111400D01*
X0283081Y0111400D01*
X0283081Y0112600D01*
X0288510Y0112600D01*
X0288510Y0121069D01*
X0288401Y0121476D01*
X0288191Y0121841D01*
X0287893Y0122139D01*
X0287528Y0122349D01*
X0287121Y0122458D01*
X0288299Y0121653D02*
X0291300Y0121653D01*
X0291300Y0120454D02*
X0288510Y0120454D01*
X0288510Y0119256D02*
X0291300Y0119256D01*
X0291300Y0118057D02*
X0288510Y0118057D01*
X0288510Y0116859D02*
X0291300Y0116859D01*
X0291300Y0115660D02*
X0288510Y0115660D01*
X0288510Y0114462D02*
X0291300Y0114462D01*
X0291300Y0113263D02*
X0288510Y0113263D01*
X0288510Y0110866D02*
X0291300Y0110866D01*
X0291300Y0109668D02*
X0288510Y0109668D01*
X0288510Y0108469D02*
X0291300Y0108469D01*
X0291300Y0107270D02*
X0288510Y0107270D01*
X0288510Y0106072D02*
X0291300Y0106072D01*
X0291300Y0104873D02*
X0288510Y0104873D01*
X0288510Y0103675D02*
X0291300Y0103675D01*
X0291300Y0102476D02*
X0288374Y0102476D01*
X0291300Y0101278D02*
X0233522Y0101278D01*
X0236200Y0102476D02*
X0237400Y0102476D01*
X0237400Y0103675D02*
X0236200Y0103675D01*
X0236200Y0104873D02*
X0237400Y0104873D01*
X0237400Y0106072D02*
X0276452Y0106072D01*
X0276452Y0107270D02*
X0241943Y0107270D01*
X0241943Y0108469D02*
X0244234Y0108469D01*
X0244306Y0108397D02*
X0244671Y0108186D01*
X0245078Y0108077D01*
X0250200Y0108077D01*
X0250200Y0113802D01*
X0243688Y0113802D01*
X0243688Y0109467D01*
X0243797Y0109060D01*
X0244008Y0108695D01*
X0244306Y0108397D01*
X0243688Y0109668D02*
X0241943Y0109668D01*
X0241401Y0110866D02*
X0243688Y0110866D01*
X0243688Y0112065D02*
X0230800Y0112065D01*
X0230800Y0113263D02*
X0243688Y0113263D01*
X0243688Y0115002D02*
X0250200Y0115002D01*
X0250200Y0120726D01*
X0245078Y0120726D01*
X0244671Y0120617D01*
X0244306Y0120406D01*
X0244008Y0120108D01*
X0243797Y0119744D01*
X0243688Y0119337D01*
X0243688Y0115002D01*
X0243688Y0115660D02*
X0230800Y0115660D01*
X0230800Y0114462D02*
X0250200Y0114462D01*
X0250200Y0115002D02*
X0250200Y0113802D01*
X0251400Y0113802D01*
X0251400Y0115002D01*
X0250200Y0115002D01*
X0250200Y0115660D02*
X0251400Y0115660D01*
X0251400Y0115002D02*
X0251400Y0120726D01*
X0256522Y0120726D01*
X0256929Y0120617D01*
X0257294Y0120406D01*
X0257592Y0120108D01*
X0257803Y0119744D01*
X0257912Y0119337D01*
X0257912Y0115002D01*
X0251400Y0115002D01*
X0251400Y0114462D02*
X0259450Y0114462D01*
X0259450Y0114900D02*
X0259450Y0113077D01*
X0262877Y0109650D01*
X0264700Y0109650D01*
X0264700Y0114900D01*
X0265900Y0114900D01*
X0265900Y0116100D01*
X0271150Y0116100D01*
X0271150Y0117923D01*
X0267723Y0121350D01*
X0265900Y0121350D01*
X0265900Y0116100D01*
X0264700Y0116100D01*
X0264700Y0121350D01*
X0262877Y0121350D01*
X0259450Y0117923D01*
X0259450Y0116100D01*
X0264700Y0116100D01*
X0264700Y0114900D01*
X0259450Y0114900D01*
X0259450Y0113263D02*
X0257912Y0113263D01*
X0257912Y0113802D02*
X0257912Y0109467D01*
X0257803Y0109060D01*
X0257592Y0108695D01*
X0257294Y0108397D01*
X0256929Y0108186D01*
X0256522Y0108077D01*
X0251400Y0108077D01*
X0251400Y0113802D01*
X0257912Y0113802D01*
X0257912Y0112065D02*
X0260462Y0112065D01*
X0261661Y0110866D02*
X0257912Y0110866D01*
X0257912Y0109668D02*
X0262859Y0109668D01*
X0264700Y0109668D02*
X0265900Y0109668D01*
X0265900Y0109650D02*
X0267723Y0109650D01*
X0271150Y0113077D01*
X0271150Y0114900D01*
X0265900Y0114900D01*
X0265900Y0109650D01*
X0265900Y0110866D02*
X0264700Y0110866D01*
X0264700Y0112065D02*
X0265900Y0112065D01*
X0265900Y0113263D02*
X0264700Y0113263D01*
X0264700Y0114462D02*
X0265900Y0114462D01*
X0265900Y0115660D02*
X0276452Y0115660D01*
X0276452Y0114462D02*
X0271150Y0114462D01*
X0271150Y0113263D02*
X0276452Y0113263D01*
X0276452Y0112600D02*
X0276452Y0121069D01*
X0276561Y0121476D01*
X0276772Y0121841D01*
X0277070Y0122139D01*
X0277434Y0122349D01*
X0277841Y0122458D01*
X0281881Y0122458D01*
X0281881Y0112600D01*
X0276452Y0112600D01*
X0276452Y0110866D02*
X0268939Y0110866D01*
X0267741Y0109668D02*
X0276452Y0109668D01*
X0276452Y0108469D02*
X0257366Y0108469D01*
X0251400Y0108469D02*
X0250200Y0108469D01*
X0250200Y0109668D02*
X0251400Y0109668D01*
X0251400Y0110866D02*
X0250200Y0110866D01*
X0250200Y0112065D02*
X0251400Y0112065D01*
X0251400Y0113263D02*
X0250200Y0113263D01*
X0250200Y0116859D02*
X0251400Y0116859D01*
X0251400Y0118057D02*
X0250200Y0118057D01*
X0250200Y0119256D02*
X0251400Y0119256D01*
X0251400Y0120454D02*
X0250200Y0120454D01*
X0257211Y0120454D02*
X0261981Y0120454D01*
X0260782Y0119256D02*
X0257912Y0119256D01*
X0257912Y0118057D02*
X0259584Y0118057D01*
X0259450Y0116859D02*
X0257912Y0116859D01*
X0257912Y0115660D02*
X0264700Y0115660D01*
X0264700Y0116859D02*
X0265900Y0116859D01*
X0265900Y0118057D02*
X0264700Y0118057D01*
X0264700Y0119256D02*
X0265900Y0119256D01*
X0265900Y0120454D02*
X0264700Y0120454D01*
X0268619Y0120454D02*
X0276452Y0120454D01*
X0276452Y0119256D02*
X0269818Y0119256D01*
X0271016Y0118057D02*
X0276452Y0118057D01*
X0276452Y0116859D02*
X0271150Y0116859D01*
X0270138Y0112065D02*
X0281881Y0112065D01*
X0281881Y0113263D02*
X0283081Y0113263D01*
X0283081Y0112065D02*
X0291300Y0112065D01*
X0283081Y0110866D02*
X0281881Y0110866D01*
X0281881Y0109668D02*
X0283081Y0109668D01*
X0283081Y0108469D02*
X0281881Y0108469D01*
X0281881Y0107270D02*
X0283081Y0107270D01*
X0283081Y0106072D02*
X0281881Y0106072D01*
X0281881Y0104873D02*
X0283081Y0104873D01*
X0283081Y0103675D02*
X0281881Y0103675D01*
X0281881Y0102476D02*
X0283081Y0102476D01*
X0282833Y0096080D02*
X0282833Y0087600D01*
X0281633Y0087600D01*
X0281633Y0086400D01*
X0275121Y0086400D01*
X0275121Y0079309D01*
X0275230Y0078902D01*
X0275441Y0078537D01*
X0275739Y0078239D01*
X0276104Y0078029D01*
X0276511Y0077920D01*
X0281633Y0077920D01*
X0281633Y0086400D01*
X0282833Y0086400D01*
X0282833Y0077920D01*
X0287956Y0077920D01*
X0288362Y0078029D01*
X0288727Y0078239D01*
X0289025Y0078537D01*
X0289236Y0078902D01*
X0289345Y0079309D01*
X0289345Y0086400D01*
X0282833Y0086400D01*
X0282833Y0087600D01*
X0289345Y0087600D01*
X0289345Y0094691D01*
X0289236Y0095098D01*
X0289025Y0095463D01*
X0288727Y0095761D01*
X0288362Y0095971D01*
X0287956Y0096080D01*
X0282833Y0096080D01*
X0282833Y0095285D02*
X0281633Y0095285D01*
X0281633Y0096080D02*
X0276511Y0096080D01*
X0276104Y0095971D01*
X0275739Y0095761D01*
X0275441Y0095463D01*
X0275230Y0095098D01*
X0275121Y0094691D01*
X0275121Y0087600D01*
X0281633Y0087600D01*
X0281633Y0096080D01*
X0281633Y0094087D02*
X0282833Y0094087D01*
X0282833Y0092888D02*
X0281633Y0092888D01*
X0281633Y0091690D02*
X0282833Y0091690D01*
X0282833Y0090491D02*
X0281633Y0090491D01*
X0281633Y0089293D02*
X0282833Y0089293D01*
X0282833Y0088094D02*
X0281633Y0088094D01*
X0281633Y0086896D02*
X0257912Y0086896D01*
X0257912Y0088094D02*
X0275121Y0088094D01*
X0275121Y0089293D02*
X0251400Y0089293D01*
X0251400Y0088998D02*
X0251400Y0090198D01*
X0257912Y0090198D01*
X0257912Y0094533D01*
X0257803Y0094940D01*
X0257592Y0095305D01*
X0257294Y0095603D01*
X0256929Y0095814D01*
X0256522Y0095923D01*
X0251400Y0095923D01*
X0251400Y0090198D01*
X0250200Y0090198D01*
X0250200Y0088998D01*
X0251400Y0088998D01*
X0251400Y0083274D01*
X0256522Y0083274D01*
X0256929Y0083383D01*
X0257294Y0083594D01*
X0257592Y0083892D01*
X0257803Y0084256D01*
X0257912Y0084663D01*
X0257912Y0088998D01*
X0251400Y0088998D01*
X0251400Y0088094D02*
X0250200Y0088094D01*
X0250200Y0088998D02*
X0250200Y0083274D01*
X0245078Y0083274D01*
X0244671Y0083383D01*
X0244306Y0083594D01*
X0244008Y0083892D01*
X0243797Y0084256D01*
X0243688Y0084663D01*
X0243688Y0088998D01*
X0250200Y0088998D01*
X0250200Y0089293D02*
X0225550Y0089293D01*
X0225550Y0090491D02*
X0243688Y0090491D01*
X0243688Y0090198D02*
X0243688Y0094533D01*
X0243797Y0094940D01*
X0244008Y0095305D01*
X0244306Y0095603D01*
X0244671Y0095814D01*
X0245078Y0095923D01*
X0250200Y0095923D01*
X0250200Y0090198D01*
X0243688Y0090198D01*
X0243688Y0091690D02*
X0241816Y0091690D01*
X0241834Y0091721D02*
X0241943Y0092128D01*
X0241943Y0094888D01*
X0237400Y0094888D01*
X0237400Y0090739D01*
X0240554Y0090739D01*
X0240961Y0090848D01*
X0241326Y0091058D01*
X0241624Y0091356D01*
X0241834Y0091721D01*
X0241943Y0092888D02*
X0243688Y0092888D01*
X0243688Y0094087D02*
X0241943Y0094087D01*
X0241943Y0096088D02*
X0237400Y0096088D01*
X0237400Y0094888D01*
X0236200Y0094888D01*
X0236200Y0090739D01*
X0233046Y0090739D01*
X0232639Y0090848D01*
X0232274Y0091058D01*
X0231976Y0091356D01*
X0231766Y0091721D01*
X0231657Y0092128D01*
X0231657Y0094888D01*
X0236200Y0094888D01*
X0236200Y0096088D01*
X0231657Y0096088D01*
X0231657Y0097250D01*
X0226050Y0097250D01*
X0225800Y0097000D01*
X0225800Y0096750D01*
X0225550Y0096500D01*
X0225550Y0005600D01*
X0353300Y0005600D01*
X0353300Y0069000D01*
X0349550Y0072750D01*
X0309550Y0072750D01*
X0295050Y0058250D01*
X0293300Y0058250D01*
X0291050Y0056000D01*
X0291050Y0055647D01*
X0295200Y0055647D01*
X0295200Y0047600D01*
X0296400Y0047600D01*
X0302830Y0047600D01*
X0302830Y0046400D01*
X0296400Y0046400D01*
X0296400Y0047600D01*
X0296400Y0055647D01*
X0301798Y0055647D01*
X0302205Y0055538D01*
X0302570Y0055328D01*
X0302830Y0055067D01*
X0302830Y0057588D01*
X0303884Y0058643D01*
X0308882Y0058643D01*
X0308531Y0058993D01*
X0308531Y0064814D01*
X0308967Y0065250D01*
X0308531Y0065686D01*
X0308531Y0071507D01*
X0309586Y0072562D01*
X0315014Y0072562D01*
X0316068Y0071507D01*
X0316068Y0070600D01*
X0317685Y0070600D01*
X0317685Y0070911D01*
X0318739Y0071965D01*
X0324168Y0071965D01*
X0324941Y0071192D01*
X0325196Y0071446D01*
X0325560Y0071656D01*
X0325967Y0071765D01*
X0327762Y0071765D01*
X0327762Y0068384D01*
X0328531Y0068384D01*
X0331715Y0068384D01*
X0331715Y0070376D01*
X0331606Y0070783D01*
X0331395Y0071148D01*
X0331097Y0071446D01*
X0330733Y0071656D01*
X0330326Y0071765D01*
X0328531Y0071765D01*
X0328531Y0068384D01*
X0328531Y0067616D01*
X0331715Y0067616D01*
X0331715Y0065624D01*
X0331606Y0065217D01*
X0331395Y0064852D01*
X0331097Y0064554D01*
X0330733Y0064344D01*
X0330326Y0064235D01*
X0328531Y0064235D01*
X0328531Y0067616D01*
X0327762Y0067616D01*
X0327762Y0064235D01*
X0325967Y0064235D01*
X0325560Y0064344D01*
X0325196Y0064554D01*
X0324941Y0064808D01*
X0324168Y0064035D01*
X0324054Y0064035D01*
X0324054Y0062965D01*
X0324168Y0062965D01*
X0324800Y0062333D01*
X0325432Y0062965D01*
X0330861Y0062965D01*
X0331045Y0062781D01*
X0336277Y0062781D01*
X0337331Y0061727D01*
X0353300Y0061727D01*
X0353300Y0060529D02*
X0337331Y0060529D01*
X0337331Y0061727D02*
X0337331Y0056273D01*
X0336277Y0055219D01*
X0331045Y0055219D01*
X0330861Y0055035D01*
X0325432Y0055035D01*
X0324800Y0055667D01*
X0324168Y0055035D01*
X0321165Y0055035D01*
X0319899Y0053768D01*
X0324364Y0053768D01*
X0324800Y0053333D01*
X0325236Y0053768D01*
X0331057Y0053768D01*
X0331175Y0053651D01*
X0331739Y0054215D01*
X0337168Y0054215D01*
X0337941Y0053442D01*
X0338196Y0053696D01*
X0338560Y0053906D01*
X0338967Y0054015D01*
X0340762Y0054015D01*
X0340762Y0050634D01*
X0341531Y0050634D01*
X0344715Y0050634D01*
X0344715Y0052626D01*
X0344606Y0053033D01*
X0344395Y0053398D01*
X0344097Y0053696D01*
X0343733Y0053906D01*
X0343326Y0054015D01*
X0341531Y0054015D01*
X0341531Y0050634D01*
X0341531Y0049866D01*
X0344715Y0049866D01*
X0344715Y0047874D01*
X0344606Y0047467D01*
X0344395Y0047102D01*
X0344097Y0046804D01*
X0343733Y0046594D01*
X0343326Y0046485D01*
X0341531Y0046485D01*
X0341531Y0049866D01*
X0340762Y0049866D01*
X0340762Y0046485D01*
X0338967Y0046485D01*
X0338560Y0046594D01*
X0338196Y0046804D01*
X0337941Y0047058D01*
X0337168Y0046285D01*
X0331739Y0046285D01*
X0331425Y0046599D01*
X0331057Y0046231D01*
X0325236Y0046231D01*
X0324800Y0046667D01*
X0324364Y0046231D01*
X0324054Y0046231D01*
X0324054Y0044768D01*
X0324364Y0044768D01*
X0324941Y0044192D01*
X0324999Y0044249D01*
X0325364Y0044459D01*
X0325770Y0044568D01*
X0327762Y0044568D01*
X0327762Y0041384D01*
X0328531Y0041384D01*
X0331912Y0041384D01*
X0331912Y0043179D01*
X0331803Y0043586D01*
X0331592Y0043951D01*
X0331294Y0044249D01*
X0330929Y0044459D01*
X0330522Y0044568D01*
X0328531Y0044568D01*
X0328531Y0041384D01*
X0328531Y0040616D01*
X0331912Y0040616D01*
X0331912Y0038821D01*
X0331803Y0038414D01*
X0331592Y0038049D01*
X0331294Y0037751D01*
X0330929Y0037541D01*
X0330522Y0037431D01*
X0328531Y0037431D01*
X0328531Y0040616D01*
X0327762Y0040616D01*
X0327762Y0037431D01*
X0326392Y0037431D01*
X0328055Y0035768D01*
X0331057Y0035768D01*
X0332112Y0034714D01*
X0332112Y0029286D01*
X0331057Y0028231D01*
X0330331Y0028231D01*
X0330331Y0024773D01*
X0329277Y0023719D01*
X0323823Y0023719D01*
X0322769Y0024773D01*
X0322769Y0028231D01*
X0318543Y0028231D01*
X0317488Y0029286D01*
X0317488Y0029400D01*
X0315533Y0029400D01*
X0314577Y0029796D01*
X0313846Y0030527D01*
X0309016Y0035357D01*
X0303884Y0035357D01*
X0302830Y0036412D01*
X0302830Y0038933D01*
X0302570Y0038672D01*
X0302205Y0038462D01*
X0301798Y0038353D01*
X0296400Y0038353D01*
X0296400Y0046400D01*
X0295200Y0046400D01*
X0291149Y0046400D01*
X0291200Y0046523D01*
X0291200Y0046548D01*
X0291209Y0046571D01*
X0291200Y0047024D01*
X0291200Y0047600D01*
X0295200Y0047600D01*
X0295200Y0046400D01*
X0295200Y0038353D01*
X0289802Y0038353D01*
X0289395Y0038462D01*
X0289030Y0038672D01*
X0288876Y0038826D01*
X0288570Y0038520D01*
X0288570Y0038043D01*
X0287842Y0038043D01*
X0287842Y0038043D01*
X0288570Y0038043D01*
X0288570Y0036947D01*
X0288461Y0036540D01*
X0288250Y0036175D01*
X0287952Y0035877D01*
X0287588Y0035667D01*
X0287181Y0035557D01*
X0284903Y0035557D01*
X0284903Y0037917D01*
X0284903Y0037917D01*
X0284903Y0035557D01*
X0282626Y0035557D01*
X0282219Y0035667D01*
X0281854Y0035877D01*
X0281556Y0036175D01*
X0281345Y0036540D01*
X0281236Y0036947D01*
X0281236Y0038002D01*
X0280052Y0038002D01*
X0278050Y0036000D01*
X0277368Y0036000D01*
X0277368Y0034038D01*
X0274184Y0034038D01*
X0274184Y0033269D01*
X0274184Y0029888D01*
X0275979Y0029888D01*
X0276386Y0029997D01*
X0276751Y0030208D01*
X0277049Y0030506D01*
X0277259Y0030871D01*
X0277368Y0031278D01*
X0277368Y0033269D01*
X0274184Y0033269D01*
X0273416Y0033269D01*
X0273416Y0029888D01*
X0271621Y0029888D01*
X0271214Y0029997D01*
X0270849Y0030208D01*
X0270551Y0030506D01*
X0270341Y0030871D01*
X0270231Y0031278D01*
X0270231Y0033269D01*
X0273416Y0033269D01*
X0273416Y0034038D01*
X0270231Y0034038D01*
X0270231Y0036000D01*
X0264300Y0036000D01*
X0264272Y0036028D01*
X0263961Y0035848D01*
X0263554Y0035739D01*
X0260400Y0035739D01*
X0260400Y0039888D01*
X0259200Y0039888D01*
X0259200Y0035739D01*
X0256046Y0035739D01*
X0255639Y0035848D01*
X0255274Y0036058D01*
X0254976Y0036356D01*
X0254766Y0036721D01*
X0254657Y0037128D01*
X0254657Y0039888D01*
X0259200Y0039888D01*
X0259200Y0041088D01*
X0254657Y0041088D01*
X0254657Y0043357D01*
X0250550Y0039250D01*
X0236300Y0039250D01*
X0233300Y0042250D01*
X0233300Y0070250D01*
X0238050Y0075000D01*
X0288050Y0075000D01*
X0290800Y0077750D01*
X0290800Y0094750D01*
X0288300Y0097250D01*
X0241943Y0097250D01*
X0241943Y0096088D01*
X0241943Y0096484D02*
X0289066Y0096484D01*
X0289128Y0095285D02*
X0290265Y0095285D01*
X0290800Y0094087D02*
X0289345Y0094087D01*
X0289345Y0092888D02*
X0290800Y0092888D01*
X0290800Y0091690D02*
X0289345Y0091690D01*
X0289345Y0090491D02*
X0290800Y0090491D01*
X0290800Y0089293D02*
X0289345Y0089293D01*
X0289345Y0088094D02*
X0290800Y0088094D01*
X0290800Y0086896D02*
X0282833Y0086896D01*
X0282833Y0085697D02*
X0281633Y0085697D01*
X0281633Y0084499D02*
X0282833Y0084499D01*
X0282833Y0083300D02*
X0281633Y0083300D01*
X0281633Y0082102D02*
X0282833Y0082102D01*
X0282833Y0080903D02*
X0281633Y0080903D01*
X0281633Y0079705D02*
X0282833Y0079705D01*
X0282833Y0078506D02*
X0281633Y0078506D01*
X0275472Y0078506D02*
X0225550Y0078506D01*
X0225550Y0077308D02*
X0290358Y0077308D01*
X0290800Y0078506D02*
X0288994Y0078506D01*
X0289345Y0079705D02*
X0290800Y0079705D01*
X0290800Y0080903D02*
X0289345Y0080903D01*
X0289345Y0082102D02*
X0290800Y0082102D01*
X0290800Y0083300D02*
X0289345Y0083300D01*
X0289345Y0084499D02*
X0290800Y0084499D01*
X0290800Y0085697D02*
X0289345Y0085697D01*
X0289159Y0076109D02*
X0225550Y0076109D01*
X0225550Y0074911D02*
X0237961Y0074911D01*
X0236762Y0073712D02*
X0225550Y0073712D01*
X0225550Y0072514D02*
X0235564Y0072514D01*
X0234365Y0071315D02*
X0225550Y0071315D01*
X0225550Y0070117D02*
X0233300Y0070117D01*
X0233300Y0068918D02*
X0225550Y0068918D01*
X0225550Y0067720D02*
X0233300Y0067720D01*
X0233300Y0066521D02*
X0225550Y0066521D01*
X0225550Y0065323D02*
X0233300Y0065323D01*
X0233300Y0064124D02*
X0225550Y0064124D01*
X0225550Y0062926D02*
X0233300Y0062926D01*
X0233300Y0061727D02*
X0225550Y0061727D01*
X0225550Y0060529D02*
X0233300Y0060529D01*
X0233300Y0059330D02*
X0225550Y0059330D01*
X0225550Y0058132D02*
X0233300Y0058132D01*
X0233300Y0056933D02*
X0225550Y0056933D01*
X0225550Y0055734D02*
X0233300Y0055734D01*
X0233300Y0054536D02*
X0225550Y0054536D01*
X0225550Y0053337D02*
X0233300Y0053337D01*
X0233300Y0052139D02*
X0225550Y0052139D01*
X0225550Y0050940D02*
X0233300Y0050940D01*
X0233300Y0049742D02*
X0225550Y0049742D01*
X0225550Y0048543D02*
X0233300Y0048543D01*
X0233300Y0047345D02*
X0225550Y0047345D01*
X0225550Y0046146D02*
X0233300Y0046146D01*
X0233300Y0044948D02*
X0225550Y0044948D01*
X0225550Y0043749D02*
X0233300Y0043749D01*
X0233300Y0042551D02*
X0225550Y0042551D01*
X0225550Y0041352D02*
X0234198Y0041352D01*
X0235396Y0040154D02*
X0225550Y0040154D01*
X0225550Y0038955D02*
X0254657Y0038955D01*
X0254657Y0037757D02*
X0253852Y0037757D01*
X0253803Y0037940D02*
X0253592Y0038305D01*
X0253294Y0038603D01*
X0252929Y0038814D01*
X0252522Y0038923D01*
X0247400Y0038923D01*
X0247400Y0033198D01*
X0253912Y0033198D01*
X0253912Y0037533D01*
X0253803Y0037940D01*
X0253912Y0036558D02*
X0254860Y0036558D01*
X0253912Y0035360D02*
X0270231Y0035360D01*
X0270231Y0034161D02*
X0253912Y0034161D01*
X0253912Y0031998D02*
X0247400Y0031998D01*
X0247400Y0026274D01*
X0252522Y0026274D01*
X0252929Y0026383D01*
X0253294Y0026594D01*
X0253592Y0026892D01*
X0253803Y0027256D01*
X0253912Y0027663D01*
X0253912Y0031998D01*
X0253912Y0031764D02*
X0270231Y0031764D01*
X0270231Y0032963D02*
X0247400Y0032963D01*
X0247400Y0033198D02*
X0247400Y0031998D01*
X0246200Y0031998D01*
X0246200Y0026274D01*
X0241078Y0026274D01*
X0240671Y0026383D01*
X0240306Y0026594D01*
X0240008Y0026892D01*
X0239797Y0027256D01*
X0239688Y0027663D01*
X0239688Y0031998D01*
X0246200Y0031998D01*
X0246200Y0033198D01*
X0239688Y0033198D01*
X0239688Y0037533D01*
X0239797Y0037940D01*
X0240008Y0038305D01*
X0240306Y0038603D01*
X0240671Y0038814D01*
X0241078Y0038923D01*
X0246200Y0038923D01*
X0246200Y0033198D01*
X0247400Y0033198D01*
X0247400Y0034161D02*
X0246200Y0034161D01*
X0246200Y0032963D02*
X0225550Y0032963D01*
X0225550Y0034161D02*
X0239688Y0034161D01*
X0239688Y0035360D02*
X0225550Y0035360D01*
X0225550Y0036558D02*
X0239688Y0036558D01*
X0239748Y0037757D02*
X0225550Y0037757D01*
X0220800Y0040346D02*
X0220646Y0040500D01*
X0218050Y0040500D01*
X0211800Y0040346D02*
X0211704Y0040346D01*
X0202800Y0049250D01*
X0199376Y0049250D01*
X0199287Y0049161D01*
X0199287Y0046602D02*
X0201948Y0046602D01*
X0204550Y0044000D01*
X0204550Y0041250D01*
X0205300Y0040500D01*
X0199287Y0038013D02*
X0203800Y0033500D01*
X0211646Y0033500D01*
X0211800Y0033654D01*
X0220800Y0033654D02*
X0220800Y0030250D01*
X0221800Y0029250D01*
X0225550Y0029367D02*
X0239688Y0029367D01*
X0239688Y0028169D02*
X0225550Y0028169D01*
X0225550Y0026970D02*
X0239962Y0026970D01*
X0239688Y0030566D02*
X0225550Y0030566D01*
X0225550Y0031764D02*
X0239688Y0031764D01*
X0246200Y0031764D02*
X0247400Y0031764D01*
X0247400Y0030566D02*
X0246200Y0030566D01*
X0246200Y0029367D02*
X0247400Y0029367D01*
X0247400Y0028169D02*
X0246200Y0028169D01*
X0246200Y0026970D02*
X0247400Y0026970D01*
X0253638Y0026970D02*
X0322769Y0026970D01*
X0322769Y0025772D02*
X0225550Y0025772D01*
X0225550Y0024573D02*
X0322969Y0024573D01*
X0322769Y0028169D02*
X0253912Y0028169D01*
X0253912Y0029367D02*
X0317488Y0029367D01*
X0313807Y0030566D02*
X0277083Y0030566D01*
X0277368Y0031764D02*
X0312609Y0031764D01*
X0311410Y0032963D02*
X0277368Y0032963D01*
X0277368Y0034161D02*
X0310212Y0034161D01*
X0303882Y0035360D02*
X0277368Y0035360D01*
X0278608Y0036558D02*
X0281340Y0036558D01*
X0281236Y0037757D02*
X0279807Y0037757D01*
X0284903Y0037757D02*
X0284903Y0037757D01*
X0284903Y0036558D02*
X0284903Y0036558D01*
X0288466Y0036558D02*
X0302830Y0036558D01*
X0302830Y0037757D02*
X0288570Y0037757D01*
X0292050Y0042000D02*
X0295800Y0045750D01*
X0295800Y0047000D01*
X0296400Y0047345D02*
X0302830Y0047345D01*
X0299639Y0050839D02*
X0299550Y0050927D01*
X0299550Y0052000D01*
X0292050Y0052000D01*
X0295200Y0052139D02*
X0296400Y0052139D01*
X0296400Y0053337D02*
X0295200Y0053337D01*
X0295200Y0054536D02*
X0296400Y0054536D01*
X0296400Y0050940D02*
X0295200Y0050940D01*
X0295200Y0049742D02*
X0296400Y0049742D01*
X0296400Y0048543D02*
X0295200Y0048543D01*
X0295200Y0047345D02*
X0291200Y0047345D01*
X0288550Y0046500D02*
X0287800Y0045750D01*
X0284933Y0045750D01*
X0284903Y0045720D01*
X0284903Y0048279D02*
X0281236Y0048279D01*
X0281236Y0047183D01*
X0281326Y0046850D01*
X0278584Y0046794D01*
X0278128Y0047250D01*
X0270972Y0047250D01*
X0270350Y0046629D01*
X0251550Y0046250D01*
X0248050Y0042750D01*
X0238050Y0042750D01*
X0238050Y0065500D01*
X0238300Y0065750D01*
X0255300Y0065750D01*
X0275050Y0051000D01*
X0281236Y0051000D01*
X0281236Y0050839D01*
X0284903Y0050839D01*
X0284903Y0050839D01*
X0281236Y0050839D01*
X0281236Y0049742D01*
X0281285Y0049559D01*
X0281236Y0049376D01*
X0281236Y0048280D01*
X0284903Y0048280D01*
X0284903Y0050765D01*
X0284903Y0050838D01*
X0284903Y0050838D01*
X0284903Y0048280D01*
X0284903Y0048280D01*
X0284903Y0048279D01*
X0284903Y0048543D02*
X0284903Y0048543D01*
X0284903Y0049742D02*
X0284903Y0049742D01*
X0284903Y0053398D02*
X0287652Y0053398D01*
X0288550Y0052500D01*
X0288550Y0046500D01*
X0292050Y0042000D02*
X0299550Y0042000D01*
X0296400Y0042551D02*
X0295200Y0042551D01*
X0295200Y0043749D02*
X0296400Y0043749D01*
X0296400Y0044948D02*
X0295200Y0044948D01*
X0295200Y0046146D02*
X0296400Y0046146D01*
X0296400Y0041352D02*
X0295200Y0041352D01*
X0295200Y0040154D02*
X0296400Y0040154D01*
X0296400Y0038955D02*
X0295200Y0038955D01*
X0281236Y0047345D02*
X0264589Y0047345D01*
X0264624Y0047380D02*
X0264834Y0047745D01*
X0264943Y0048152D01*
X0264943Y0050912D01*
X0260400Y0050912D01*
X0260400Y0052112D01*
X0259200Y0052112D01*
X0259200Y0056261D01*
X0256046Y0056261D01*
X0255639Y0056152D01*
X0255274Y0055942D01*
X0254976Y0055644D01*
X0254766Y0055279D01*
X0254657Y0054872D01*
X0254657Y0052112D01*
X0259200Y0052112D01*
X0259200Y0050912D01*
X0254657Y0050912D01*
X0254657Y0048152D01*
X0254766Y0047745D01*
X0254976Y0047380D01*
X0255274Y0047082D01*
X0255639Y0046871D01*
X0256046Y0046762D01*
X0259200Y0046762D01*
X0259200Y0050912D01*
X0260400Y0050912D01*
X0260400Y0046762D01*
X0263554Y0046762D01*
X0263961Y0046871D01*
X0264326Y0047082D01*
X0264624Y0047380D01*
X0264943Y0048543D02*
X0281236Y0048543D01*
X0281236Y0049742D02*
X0264943Y0049742D01*
X0264943Y0052112D02*
X0260400Y0052112D01*
X0260400Y0056261D01*
X0263554Y0056261D01*
X0263961Y0056152D01*
X0264326Y0055942D01*
X0264624Y0055644D01*
X0264834Y0055279D01*
X0264943Y0054872D01*
X0264943Y0052112D01*
X0264943Y0052139D02*
X0273525Y0052139D01*
X0271920Y0053337D02*
X0264943Y0053337D01*
X0264943Y0054536D02*
X0270315Y0054536D01*
X0268711Y0055734D02*
X0264533Y0055734D01*
X0265501Y0058132D02*
X0253912Y0058132D01*
X0253912Y0058002D02*
X0253912Y0062337D01*
X0253803Y0062744D01*
X0253592Y0063108D01*
X0253294Y0063406D01*
X0252929Y0063617D01*
X0252522Y0063726D01*
X0247400Y0063726D01*
X0247400Y0058002D01*
X0246200Y0058002D01*
X0246200Y0063726D01*
X0241078Y0063726D01*
X0240671Y0063617D01*
X0240306Y0063406D01*
X0240008Y0063108D01*
X0239797Y0062744D01*
X0239688Y0062337D01*
X0239688Y0058002D01*
X0246200Y0058002D01*
X0246200Y0056802D01*
X0239688Y0056802D01*
X0239688Y0052467D01*
X0239797Y0052060D01*
X0240008Y0051695D01*
X0240306Y0051397D01*
X0240671Y0051186D01*
X0241078Y0051077D01*
X0246200Y0051077D01*
X0246200Y0056802D01*
X0247400Y0056802D01*
X0247400Y0058002D01*
X0253912Y0058002D01*
X0253912Y0056802D02*
X0253912Y0052467D01*
X0253803Y0052060D01*
X0253592Y0051695D01*
X0253294Y0051397D01*
X0252929Y0051186D01*
X0252522Y0051077D01*
X0247400Y0051077D01*
X0247400Y0056802D01*
X0253912Y0056802D01*
X0253912Y0055734D02*
X0255067Y0055734D01*
X0254657Y0054536D02*
X0253912Y0054536D01*
X0253912Y0053337D02*
X0254657Y0053337D01*
X0254657Y0052139D02*
X0253824Y0052139D01*
X0254657Y0049742D02*
X0238050Y0049742D01*
X0238050Y0050940D02*
X0259200Y0050940D01*
X0259200Y0049742D02*
X0260400Y0049742D01*
X0260400Y0050940D02*
X0281236Y0050940D01*
X0291050Y0055734D02*
X0302830Y0055734D01*
X0302830Y0056933D02*
X0291983Y0056933D01*
X0293182Y0058132D02*
X0303373Y0058132D01*
X0308531Y0059330D02*
X0296130Y0059330D01*
X0297329Y0060529D02*
X0308531Y0060529D01*
X0308531Y0061727D02*
X0298527Y0061727D01*
X0299726Y0062926D02*
X0308531Y0062926D01*
X0308531Y0064124D02*
X0300924Y0064124D01*
X0302123Y0065323D02*
X0308894Y0065323D01*
X0308531Y0066521D02*
X0303321Y0066521D01*
X0304520Y0067720D02*
X0308531Y0067720D01*
X0308531Y0068918D02*
X0305718Y0068918D01*
X0306917Y0070117D02*
X0308531Y0070117D01*
X0308531Y0071315D02*
X0308115Y0071315D01*
X0309314Y0072514D02*
X0309538Y0072514D01*
X0315062Y0072514D02*
X0349786Y0072514D01*
X0350985Y0071315D02*
X0331228Y0071315D01*
X0331715Y0070117D02*
X0352183Y0070117D01*
X0353300Y0068918D02*
X0331715Y0068918D01*
X0331715Y0066521D02*
X0353300Y0066521D01*
X0353300Y0065323D02*
X0331634Y0065323D01*
X0330900Y0062926D02*
X0353300Y0062926D01*
X0353300Y0064124D02*
X0324257Y0064124D01*
X0324207Y0062926D02*
X0325393Y0062926D01*
X0327762Y0065323D02*
X0328531Y0065323D01*
X0328531Y0066521D02*
X0327762Y0066521D01*
X0328531Y0067720D02*
X0353300Y0067720D01*
X0353300Y0059330D02*
X0337331Y0059330D01*
X0337331Y0058132D02*
X0353300Y0058132D01*
X0353300Y0056933D02*
X0337331Y0056933D01*
X0336792Y0055734D02*
X0353300Y0055734D01*
X0353300Y0054536D02*
X0320666Y0054536D01*
X0324795Y0053337D02*
X0324804Y0053337D01*
X0324054Y0046146D02*
X0353300Y0046146D01*
X0353300Y0044948D02*
X0324054Y0044948D01*
X0327762Y0043749D02*
X0328531Y0043749D01*
X0328531Y0042551D02*
X0327762Y0042551D01*
X0328531Y0041352D02*
X0353300Y0041352D01*
X0353300Y0040154D02*
X0331912Y0040154D01*
X0331912Y0038955D02*
X0353300Y0038955D01*
X0353300Y0037757D02*
X0331300Y0037757D01*
X0331466Y0035360D02*
X0353300Y0035360D01*
X0353300Y0036558D02*
X0327265Y0036558D01*
X0327762Y0037757D02*
X0328531Y0037757D01*
X0328531Y0038955D02*
X0327762Y0038955D01*
X0327762Y0040154D02*
X0328531Y0040154D01*
X0331912Y0042551D02*
X0353300Y0042551D01*
X0353300Y0043749D02*
X0331708Y0043749D01*
X0340762Y0047345D02*
X0341531Y0047345D01*
X0341531Y0048543D02*
X0340762Y0048543D01*
X0340762Y0049742D02*
X0341531Y0049742D01*
X0341531Y0050940D02*
X0340762Y0050940D01*
X0340762Y0052139D02*
X0341531Y0052139D01*
X0341531Y0053337D02*
X0340762Y0053337D01*
X0344430Y0053337D02*
X0353300Y0053337D01*
X0353300Y0052139D02*
X0344715Y0052139D01*
X0344715Y0050940D02*
X0353300Y0050940D01*
X0353300Y0049742D02*
X0344715Y0049742D01*
X0344715Y0048543D02*
X0353300Y0048543D01*
X0353300Y0047345D02*
X0344535Y0047345D01*
X0353300Y0034161D02*
X0332112Y0034161D01*
X0332112Y0032963D02*
X0353300Y0032963D01*
X0353300Y0031764D02*
X0332112Y0031764D01*
X0332112Y0030566D02*
X0353300Y0030566D01*
X0353300Y0029367D02*
X0332112Y0029367D01*
X0330331Y0028169D02*
X0353300Y0028169D01*
X0353300Y0026970D02*
X0330331Y0026970D01*
X0330331Y0025772D02*
X0353300Y0025772D01*
X0353300Y0024573D02*
X0330131Y0024573D01*
X0353300Y0023375D02*
X0225550Y0023375D01*
X0225550Y0022176D02*
X0353300Y0022176D01*
X0353300Y0020978D02*
X0225550Y0020978D01*
X0225550Y0019779D02*
X0353300Y0019779D01*
X0353300Y0018581D02*
X0225550Y0018581D01*
X0225550Y0017382D02*
X0353300Y0017382D01*
X0353300Y0016184D02*
X0225550Y0016184D01*
X0225550Y0014985D02*
X0353300Y0014985D01*
X0353300Y0013787D02*
X0225550Y0013787D01*
X0225550Y0012588D02*
X0353300Y0012588D01*
X0353300Y0011390D02*
X0225550Y0011390D01*
X0225550Y0010191D02*
X0353300Y0010191D01*
X0353300Y0008993D02*
X0225550Y0008993D01*
X0225550Y0007794D02*
X0353300Y0007794D01*
X0353300Y0006596D02*
X0225550Y0006596D01*
X0214800Y0020500D02*
X0214887Y0024913D01*
X0201643Y0024913D01*
X0196550Y0032250D02*
X0191800Y0027500D01*
X0191800Y0024913D01*
X0186879Y0024913D02*
X0186800Y0022992D01*
X0186800Y0027750D01*
X0192300Y0033250D01*
X0192300Y0057000D01*
X0194698Y0059398D01*
X0199287Y0059398D01*
X0199287Y0061957D02*
X0199287Y0064237D01*
X0200550Y0065500D01*
X0199287Y0056839D02*
X0204889Y0056839D01*
X0209550Y0061500D01*
X0219050Y0061500D01*
X0220800Y0059750D01*
X0220800Y0056346D01*
X0220800Y0049654D02*
X0229146Y0049654D01*
X0228800Y0063250D01*
X0238050Y0062926D02*
X0239902Y0062926D01*
X0239688Y0061727D02*
X0238050Y0061727D01*
X0238050Y0060529D02*
X0239688Y0060529D01*
X0239688Y0059330D02*
X0238050Y0059330D01*
X0238050Y0058132D02*
X0239688Y0058132D01*
X0238050Y0056933D02*
X0246200Y0056933D01*
X0246800Y0057402D02*
X0246800Y0066000D01*
X0246550Y0066250D01*
X0246200Y0062926D02*
X0247400Y0062926D01*
X0247400Y0061727D02*
X0246200Y0061727D01*
X0246200Y0060529D02*
X0247400Y0060529D01*
X0247400Y0059330D02*
X0246200Y0059330D01*
X0246200Y0058132D02*
X0247400Y0058132D01*
X0247400Y0056933D02*
X0267106Y0056933D01*
X0263896Y0059330D02*
X0253912Y0059330D01*
X0253912Y0060529D02*
X0262291Y0060529D01*
X0260687Y0061727D02*
X0253912Y0061727D01*
X0253698Y0062926D02*
X0259082Y0062926D01*
X0257477Y0064124D02*
X0238050Y0064124D01*
X0238050Y0065323D02*
X0255872Y0065323D01*
X0259200Y0055734D02*
X0260400Y0055734D01*
X0260400Y0054536D02*
X0259200Y0054536D01*
X0259200Y0053337D02*
X0260400Y0053337D01*
X0260400Y0052139D02*
X0259200Y0052139D01*
X0259200Y0048543D02*
X0260400Y0048543D01*
X0260400Y0047345D02*
X0259200Y0047345D01*
X0255011Y0047345D02*
X0238050Y0047345D01*
X0238050Y0048543D02*
X0254657Y0048543D01*
X0251446Y0046146D02*
X0238050Y0046146D01*
X0238050Y0044948D02*
X0250248Y0044948D01*
X0249049Y0043749D02*
X0238050Y0043749D01*
X0238050Y0052139D02*
X0239776Y0052139D01*
X0239688Y0053337D02*
X0238050Y0053337D01*
X0238050Y0054536D02*
X0239688Y0054536D01*
X0239688Y0055734D02*
X0238050Y0055734D01*
X0246200Y0055734D02*
X0247400Y0055734D01*
X0247400Y0054536D02*
X0246200Y0054536D01*
X0246200Y0053337D02*
X0247400Y0053337D01*
X0247400Y0052139D02*
X0246200Y0052139D01*
X0253851Y0042551D02*
X0254657Y0042551D01*
X0254657Y0041352D02*
X0252652Y0041352D01*
X0251454Y0040154D02*
X0259200Y0040154D01*
X0259200Y0038955D02*
X0260400Y0038955D01*
X0260400Y0037757D02*
X0259200Y0037757D01*
X0259200Y0036558D02*
X0260400Y0036558D01*
X0253912Y0030566D02*
X0270517Y0030566D01*
X0273416Y0030566D02*
X0274184Y0030566D01*
X0274184Y0031764D02*
X0273416Y0031764D01*
X0273416Y0032963D02*
X0274184Y0032963D01*
X0247400Y0035360D02*
X0246200Y0035360D01*
X0246200Y0036558D02*
X0247400Y0036558D01*
X0247400Y0037757D02*
X0246200Y0037757D01*
X0211800Y0049654D02*
X0209733Y0051720D01*
X0199287Y0051720D01*
X0199287Y0054280D02*
X0209733Y0054280D01*
X0211800Y0056346D01*
X0199287Y0044043D02*
X0199287Y0038013D01*
X0196550Y0033500D02*
X0196550Y0032250D01*
X0185800Y0034000D02*
X0185050Y0034750D01*
X0185050Y0048500D01*
X0181830Y0051720D01*
X0176313Y0051720D01*
X0176313Y0049161D02*
X0180139Y0049161D01*
X0182050Y0047250D01*
X0182050Y0023006D01*
X0181957Y0024913D01*
X0176800Y0041000D02*
X0176800Y0043556D01*
X0176313Y0044043D01*
X0176313Y0046602D02*
X0171652Y0046602D01*
X0171550Y0046500D01*
X0176313Y0059398D02*
X0182402Y0059398D01*
X0183050Y0058750D01*
X0159800Y0036654D02*
X0155204Y0036654D01*
X0154550Y0036000D01*
X0159050Y0092000D02*
X0164800Y0092000D01*
X0168800Y0096000D01*
X0168800Y0098260D01*
X0159050Y0092000D02*
X0155050Y0096000D01*
X0147300Y0096000D01*
X0176800Y0121488D02*
X0182288Y0116000D01*
X0176800Y0121488D02*
X0176800Y0129882D01*
X0180540Y0129882D02*
X0180550Y0129892D01*
X0180550Y0134250D01*
X0179800Y0135000D01*
X0167800Y0135000D01*
X0173060Y0140118D02*
X0173060Y0149740D01*
X0171050Y0151750D01*
X0180540Y0148490D02*
X0181550Y0151750D01*
X0180540Y0148490D02*
X0180540Y0140118D01*
X0193300Y0122500D02*
X0193312Y0122488D01*
X0193312Y0116000D01*
X0225550Y0096484D02*
X0231657Y0096484D01*
X0231657Y0094087D02*
X0225550Y0094087D01*
X0225550Y0095285D02*
X0236200Y0095285D01*
X0236200Y0094087D02*
X0237400Y0094087D01*
X0237400Y0095285D02*
X0243996Y0095285D01*
X0241679Y0102476D02*
X0276589Y0102476D01*
X0276452Y0103675D02*
X0241943Y0103675D01*
X0241943Y0104873D02*
X0276452Y0104873D01*
X0275339Y0095285D02*
X0257604Y0095285D01*
X0257912Y0094087D02*
X0275121Y0094087D01*
X0275121Y0092888D02*
X0257912Y0092888D01*
X0257912Y0091690D02*
X0275121Y0091690D01*
X0275121Y0090491D02*
X0257912Y0090491D01*
X0257912Y0085697D02*
X0275121Y0085697D01*
X0275121Y0084499D02*
X0257868Y0084499D01*
X0256620Y0083300D02*
X0275121Y0083300D01*
X0275121Y0082102D02*
X0225550Y0082102D01*
X0225550Y0083300D02*
X0244980Y0083300D01*
X0243732Y0084499D02*
X0225550Y0084499D01*
X0225550Y0085697D02*
X0243688Y0085697D01*
X0243688Y0086896D02*
X0225550Y0086896D01*
X0225550Y0088094D02*
X0243688Y0088094D01*
X0250200Y0086896D02*
X0251400Y0086896D01*
X0251400Y0085697D02*
X0250200Y0085697D01*
X0250200Y0084499D02*
X0251400Y0084499D01*
X0251400Y0083300D02*
X0250200Y0083300D01*
X0250200Y0090491D02*
X0251400Y0090491D01*
X0251400Y0091690D02*
X0250200Y0091690D01*
X0250200Y0092888D02*
X0251400Y0092888D01*
X0251400Y0094087D02*
X0250200Y0094087D01*
X0250200Y0095285D02*
X0251400Y0095285D01*
X0237400Y0092888D02*
X0236200Y0092888D01*
X0236200Y0091690D02*
X0237400Y0091690D01*
X0231784Y0091690D02*
X0225550Y0091690D01*
X0225550Y0092888D02*
X0231657Y0092888D01*
X0231657Y0103675D02*
X0231125Y0103675D01*
X0230800Y0104873D02*
X0231657Y0104873D01*
X0230800Y0106072D02*
X0236200Y0106072D01*
X0236200Y0107270D02*
X0237400Y0107270D01*
X0237400Y0108469D02*
X0236200Y0108469D01*
X0236200Y0109668D02*
X0237400Y0109668D01*
X0237400Y0110866D02*
X0236200Y0110866D01*
X0232199Y0110866D02*
X0230800Y0110866D01*
X0230800Y0109668D02*
X0231657Y0109668D01*
X0231657Y0108469D02*
X0230800Y0108469D01*
X0230800Y0107270D02*
X0231657Y0107270D01*
X0230800Y0116859D02*
X0243688Y0116859D01*
X0243688Y0118057D02*
X0230800Y0118057D01*
X0230800Y0119256D02*
X0243688Y0119256D01*
X0244389Y0120454D02*
X0230800Y0120454D01*
X0230800Y0121653D02*
X0276663Y0121653D01*
X0281881Y0121653D02*
X0283081Y0121653D01*
X0283081Y0120454D02*
X0281881Y0120454D01*
X0281881Y0119256D02*
X0283081Y0119256D01*
X0283081Y0118057D02*
X0281881Y0118057D01*
X0281881Y0116859D02*
X0283081Y0116859D01*
X0283081Y0115660D02*
X0281881Y0115660D01*
X0281881Y0114462D02*
X0283081Y0114462D01*
X0298401Y0122851D02*
X0230800Y0122851D01*
X0230800Y0124050D02*
X0299600Y0124050D01*
X0299026Y0125248D02*
X0230800Y0125248D01*
X0230800Y0126447D02*
X0258333Y0126447D01*
X0258466Y0126403D02*
X0259119Y0126300D01*
X0261850Y0126300D01*
X0261850Y0130300D01*
X0255250Y0130300D01*
X0255250Y0130169D01*
X0255353Y0129516D01*
X0255558Y0128888D01*
X0255858Y0128299D01*
X0256246Y0127764D01*
X0256714Y0127296D01*
X0257249Y0126908D01*
X0257838Y0126608D01*
X0258466Y0126403D01*
X0256365Y0127645D02*
X0230800Y0127645D01*
X0230800Y0128844D02*
X0255580Y0128844D01*
X0255270Y0130042D02*
X0230800Y0130042D01*
X0230800Y0131241D02*
X0245551Y0131241D01*
X0244519Y0132439D02*
X0230800Y0132439D01*
X0230800Y0133638D02*
X0244519Y0133638D01*
X0244519Y0134836D02*
X0230800Y0134836D01*
X0230800Y0136035D02*
X0244519Y0136035D01*
X0244519Y0137233D02*
X0230800Y0137233D01*
X0231362Y0138432D02*
X0245224Y0138432D01*
X0248250Y0139630D02*
X0231533Y0139630D01*
X0232764Y0140829D02*
X0248250Y0140829D01*
X0252587Y0136035D02*
X0306800Y0136035D01*
X0306800Y0134836D02*
X0295679Y0134836D01*
X0301763Y0133638D02*
X0306800Y0133638D01*
X0306800Y0132439D02*
X0303323Y0132439D01*
X0298488Y0126447D02*
X0296362Y0126447D01*
X0288421Y0134836D02*
X0252081Y0134836D01*
X0252081Y0133638D02*
X0256648Y0133638D01*
X0255724Y0132439D02*
X0252081Y0132439D01*
X0251048Y0131241D02*
X0255315Y0131241D01*
X0261850Y0131241D02*
X0262250Y0131241D01*
X0262250Y0132439D02*
X0261850Y0132439D01*
X0261850Y0133638D02*
X0262250Y0133638D01*
X0262250Y0130042D02*
X0261850Y0130042D01*
X0261850Y0128844D02*
X0262250Y0128844D01*
X0262250Y0127645D02*
X0261850Y0127645D01*
X0261850Y0126447D02*
X0262250Y0126447D01*
X0275121Y0080903D02*
X0225550Y0080903D01*
X0225550Y0079705D02*
X0275121Y0079705D01*
X0316068Y0071315D02*
X0318089Y0071315D01*
X0324818Y0071315D02*
X0325065Y0071315D01*
X0327762Y0071315D02*
X0328531Y0071315D01*
X0328531Y0070117D02*
X0327762Y0070117D01*
X0327762Y0068918D02*
X0328531Y0068918D01*
X0213800Y0167384D02*
X0213800Y0176760D01*
X0179300Y0176750D02*
X0175987Y0180063D01*
X0173050Y0180063D01*
X0164050Y0171063D01*
X0164050Y0168500D01*
X0158040Y0162490D01*
X0158040Y0161000D01*
X0164300Y0180063D02*
X0164863Y0180063D01*
X0168800Y0184000D01*
X0179300Y0184000D01*
X0178300Y0184250D01*
X0197646Y0236750D02*
X0199050Y0238154D01*
X0199050Y0239500D01*
X0204704Y0252404D02*
X0205050Y0252500D01*
X0204704Y0252404D02*
X0208800Y0252904D01*
X0200550Y0267000D02*
X0192800Y0267000D01*
X0192800Y0274250D02*
X0191926Y0275124D01*
X0184265Y0275124D01*
X0184265Y0273156D02*
X0184265Y0271187D01*
X0184265Y0267250D02*
X0183550Y0267250D01*
X0185300Y0263750D02*
X0184454Y0262904D01*
X0184454Y0258500D01*
X0189550Y0254154D01*
X0180896Y0244904D02*
X0178550Y0247250D01*
X0178550Y0267000D01*
X0178800Y0272750D02*
X0178613Y0272937D01*
X0184265Y0281030D02*
X0192580Y0281030D01*
X0192800Y0281250D01*
X0193300Y0280750D02*
X0192800Y0280250D01*
X0193300Y0280750D02*
X0193580Y0281030D01*
X0200800Y0281030D01*
X0200800Y0279061D02*
X0193611Y0279061D01*
X0192800Y0278250D01*
X0192800Y0277250D02*
X0192957Y0277093D01*
X0200800Y0277093D01*
X0205300Y0275624D02*
X0205300Y0282250D01*
X0204050Y0283500D01*
X0201300Y0283500D01*
X0196146Y0288654D01*
X0196146Y0289250D01*
X0204550Y0287750D02*
X0206550Y0287750D01*
X0208704Y0285596D01*
X0209800Y0286096D01*
X0200800Y0267250D02*
X0200550Y0267000D01*
X0178550Y0247250D02*
X0176204Y0244904D01*
X0173800Y0244904D01*
X0180896Y0244904D02*
X0183800Y0244904D01*
X0173800Y0251596D02*
X0173954Y0252346D01*
X0166300Y0252500D01*
X0187550Y0313500D02*
X0188111Y0313500D01*
X0189611Y0315000D01*
X0187300Y0313750D02*
X0186924Y0313750D01*
X0185674Y0315000D01*
X0027300Y0084250D02*
X0020893Y0084250D01*
X0020721Y0084421D01*
X0020721Y0079500D02*
X0014300Y0079500D01*
X0014050Y0079750D01*
X0014050Y0081750D01*
D55*
X0014050Y0081750D03*
X0014050Y0089250D03*
X0009050Y0094500D03*
X0027300Y0084250D03*
X0032300Y0077750D03*
X0029300Y0069500D03*
X0029300Y0052500D03*
X0007050Y0059750D03*
X0032300Y0103500D03*
X0043300Y0103500D03*
X0054300Y0102500D03*
X0061300Y0098500D03*
X0066300Y0078500D03*
X0061300Y0066500D03*
X0071300Y0065500D03*
X0072300Y0050500D03*
X0086300Y0074500D03*
X0091550Y0085750D03*
X0104300Y0097250D03*
X0102050Y0124500D03*
X0087800Y0155250D03*
X0083550Y0165750D03*
X0080550Y0181500D03*
X0080550Y0189250D03*
X0054800Y0194750D03*
X0045800Y0187500D03*
X0048050Y0178750D03*
X0047800Y0170500D03*
X0123800Y0252750D03*
X0166300Y0252500D03*
X0185300Y0263750D03*
X0178800Y0272750D03*
X0192800Y0279000D03*
X0195550Y0292500D03*
X0192550Y0298500D03*
X0204550Y0287750D03*
X0208050Y0295000D03*
X0216550Y0283250D03*
X0223550Y0287500D03*
X0222050Y0295000D03*
X0222300Y0305500D03*
X0233050Y0279500D03*
X0227050Y0276750D03*
X0232300Y0273000D03*
X0238300Y0269500D03*
X0233050Y0265750D03*
X0226800Y0259750D03*
X0226800Y0254500D03*
X0227300Y0249000D03*
X0219800Y0245750D03*
X0205050Y0252500D03*
X0208800Y0269500D03*
X0209050Y0279250D03*
X0174050Y0311750D03*
X0243800Y0261750D03*
X0255050Y0248250D03*
X0260300Y0248250D03*
X0250050Y0234250D03*
X0259800Y0228750D03*
X0239800Y0232000D03*
X0217550Y0216250D03*
X0211550Y0226750D03*
X0202800Y0201500D03*
X0185550Y0177500D03*
X0179300Y0176750D03*
X0178300Y0184250D03*
X0173300Y0170750D03*
X0173050Y0164500D03*
X0171050Y0151750D03*
X0181550Y0151750D03*
X0189550Y0166500D03*
X0201550Y0145250D03*
X0217050Y0128750D03*
X0228800Y0143750D03*
X0227050Y0151500D03*
X0220050Y0159000D03*
X0246300Y0146750D03*
X0248300Y0135000D03*
X0261800Y0147500D03*
X0270050Y0140000D03*
X0280550Y0150250D03*
X0293800Y0163250D03*
X0299050Y0165250D03*
X0304550Y0169000D03*
X0302800Y0176750D03*
X0290800Y0177250D03*
X0288550Y0171500D03*
X0283550Y0175750D03*
X0266300Y0168500D03*
X0257800Y0170750D03*
X0271300Y0193250D03*
X0263800Y0196000D03*
X0283550Y0211500D03*
X0283550Y0220500D03*
X0289800Y0226250D03*
X0297050Y0225250D03*
X0310300Y0211750D03*
X0308300Y0199250D03*
X0305050Y0191500D03*
X0318300Y0188500D03*
X0331550Y0188000D03*
X0337550Y0189000D03*
X0343050Y0197250D03*
X0349550Y0193250D03*
X0359550Y0184250D03*
X0341550Y0179500D03*
X0331550Y0199000D03*
X0336050Y0209750D03*
X0336800Y0217240D03*
X0331800Y0225750D03*
X0346800Y0209750D03*
X0358800Y0209500D03*
X0354550Y0225750D03*
X0353050Y0233750D03*
X0352300Y0242250D03*
X0349300Y0249250D03*
X0345550Y0257750D03*
X0333800Y0257500D03*
X0327550Y0249000D03*
X0312800Y0239750D03*
X0312800Y0230000D03*
X0298550Y0243000D03*
X0291300Y0238750D03*
X0285800Y0239000D03*
X0292800Y0253750D03*
X0298050Y0261250D03*
X0308800Y0260750D03*
X0285800Y0261750D03*
X0307050Y0295500D03*
X0311550Y0302500D03*
X0311550Y0307750D03*
X0318800Y0297000D03*
X0331800Y0298500D03*
X0335800Y0311000D03*
X0349800Y0305750D03*
X0329800Y0284250D03*
X0348550Y0272000D03*
X0357050Y0271500D03*
X0355300Y0279750D03*
X0388800Y0311750D03*
X0311800Y0333750D03*
X0292800Y0304000D03*
X0271800Y0329750D03*
X0260300Y0325500D03*
X0295550Y0207000D03*
X0307050Y0151250D03*
X0340050Y0143500D03*
X0367050Y0137000D03*
X0373050Y0152250D03*
X0335550Y0081250D03*
X0352300Y0060750D03*
X0352300Y0050250D03*
X0352300Y0041000D03*
X0352300Y0029750D03*
X0352300Y0019500D03*
X0352300Y0009250D03*
X0326550Y0027500D03*
X0299550Y0042000D03*
X0295800Y0047000D03*
X0292050Y0042000D03*
X0292050Y0052000D03*
X0299550Y0052000D03*
X0311800Y0053750D03*
X0315550Y0061500D03*
X0333550Y0059000D03*
X0275300Y0066250D03*
X0268050Y0041500D03*
X0243050Y0048250D03*
X0228800Y0045000D03*
X0218050Y0040500D03*
X0221800Y0029250D03*
X0228800Y0028000D03*
X0214800Y0020500D03*
X0205300Y0040500D03*
X0196550Y0033500D03*
X0185800Y0034000D03*
X0171550Y0046500D03*
X0170550Y0052500D03*
X0166050Y0056750D03*
X0152550Y0057000D03*
X0152800Y0049000D03*
X0154550Y0036000D03*
X0144300Y0015750D03*
X0097550Y0048000D03*
X0097050Y0063000D03*
X0154550Y0084250D03*
X0161550Y0081500D03*
X0159050Y0092000D03*
X0158800Y0106500D03*
X0158800Y0124250D03*
X0157800Y0142750D03*
X0151050Y0143500D03*
X0141050Y0156250D03*
X0159800Y0188000D03*
X0139800Y0194250D03*
X0141050Y0201500D03*
X0193300Y0122500D03*
X0188800Y0109000D03*
X0201050Y0110000D03*
X0203425Y0103625D03*
X0199050Y0095750D03*
X0186800Y0076250D03*
X0200550Y0065500D03*
X0183050Y0058750D03*
X0228800Y0063250D03*
X0228800Y0075500D03*
X0228050Y0090750D03*
X0245550Y0102750D03*
X0254550Y0103500D03*
D56*
X0262050Y0130500D02*
X0255550Y0137000D01*
X0255550Y0156250D01*
X0258040Y0158740D01*
X0261800Y0158740D01*
X0205050Y0153250D02*
X0203204Y0151404D01*
X0195300Y0166616D02*
X0191300Y0166616D01*
X0189550Y0166500D01*
X0195300Y0174884D02*
X0195300Y0184260D01*
X0195550Y0184260D01*
X0195550Y0191740D02*
X0205050Y0191740D01*
X0205050Y0191500D01*
X0164300Y0177510D02*
X0158290Y0171500D01*
X0100300Y0173750D02*
X0100300Y0155750D01*
X0095800Y0151250D01*
X0070050Y0151250D01*
X0068050Y0153250D01*
X0068050Y0161750D01*
X0071290Y0164990D01*
X0073800Y0164990D01*
X0073800Y0157510D02*
X0074310Y0157000D01*
X0085550Y0157000D01*
X0087300Y0155250D01*
X0087800Y0155250D01*
X0085550Y0157000D02*
X0090050Y0161500D01*
X0091550Y0161500D01*
X0091550Y0166500D02*
X0083800Y0166500D01*
X0083550Y0166250D01*
X0083550Y0165750D01*
X0091550Y0171500D02*
X0065800Y0171500D01*
X0065300Y0171000D01*
X0065300Y0170750D01*
X0062290Y0167740D01*
X0062290Y0165500D01*
X0054810Y0165500D02*
X0052800Y0165500D01*
X0047800Y0170500D01*
X0048050Y0178750D02*
X0051550Y0182250D01*
X0054810Y0182250D01*
X0062290Y0182250D02*
X0079800Y0182250D01*
X0080550Y0181500D01*
X0085800Y0181000D02*
X0085800Y0177000D01*
X0086050Y0177000D01*
X0086550Y0176500D01*
X0091550Y0176500D01*
X0097550Y0176500D01*
X0100300Y0173750D01*
X0091550Y0181500D02*
X0086300Y0181500D01*
X0085800Y0181000D01*
X0086300Y0181500D02*
X0085800Y0182000D01*
X0085800Y0185750D01*
X0086550Y0186500D01*
X0091550Y0186500D01*
X0092300Y0308750D02*
X0089501Y0308877D01*
X0086701Y0308940D01*
X0083899Y0308940D01*
X0081099Y0308877D01*
X0078300Y0308750D01*
X0081812Y0303000D02*
X0095550Y0303000D01*
X0099050Y0299500D01*
X0099050Y0277500D01*
X0100050Y0276500D01*
X0123800Y0252750D01*
X0099050Y0277500D02*
X0098800Y0277750D01*
X0092300Y0296750D02*
X0061550Y0296750D01*
X0060300Y0298000D01*
X0057550Y0298000D01*
X0057550Y0308000D02*
X0065788Y0308000D01*
X0070788Y0303000D01*
X0070538Y0303250D01*
X0070800Y0313750D02*
X0070746Y0313897D01*
X0070688Y0314043D01*
X0070627Y0314188D01*
X0070563Y0314331D01*
X0070495Y0314472D01*
X0070423Y0314611D01*
X0070348Y0314749D01*
X0070270Y0314885D01*
X0070188Y0315019D01*
X0070103Y0315151D01*
X0070015Y0315280D01*
X0069924Y0315408D01*
X0069830Y0315533D01*
X0069732Y0315656D01*
X0069632Y0315776D01*
X0069528Y0315894D01*
X0069422Y0316009D01*
X0069313Y0316122D01*
X0069201Y0316231D01*
X0069086Y0316339D01*
X0068969Y0316443D01*
X0068850Y0316544D01*
X0068728Y0316642D01*
X0068603Y0316738D01*
X0068476Y0316830D01*
X0068347Y0316919D01*
X0068216Y0317005D01*
X0068083Y0317087D01*
X0067947Y0317167D01*
X0067810Y0317243D01*
X0067671Y0317315D01*
X0067530Y0317384D01*
X0067388Y0317450D01*
X0067244Y0317512D01*
X0067099Y0317570D01*
X0066952Y0317625D01*
X0066804Y0317676D01*
X0066654Y0317724D01*
X0066504Y0317768D01*
X0066352Y0317808D01*
X0066200Y0317844D01*
X0066046Y0317877D01*
X0065892Y0317906D01*
X0065737Y0317931D01*
X0065582Y0317952D01*
X0065426Y0317969D01*
X0065270Y0317983D01*
X0065113Y0317992D01*
X0064957Y0317998D01*
X0064800Y0318000D01*
X0057550Y0318000D01*
X0070800Y0313750D02*
X0070863Y0313579D01*
X0070929Y0313409D01*
X0071000Y0313241D01*
X0071075Y0313075D01*
X0071154Y0312910D01*
X0071237Y0312748D01*
X0071324Y0312587D01*
X0071415Y0312429D01*
X0071509Y0312273D01*
X0071608Y0312119D01*
X0071710Y0311968D01*
X0071815Y0311819D01*
X0071925Y0311673D01*
X0072037Y0311530D01*
X0072154Y0311389D01*
X0072273Y0311251D01*
X0072396Y0311117D01*
X0072523Y0310985D01*
X0072652Y0310856D01*
X0072784Y0310731D01*
X0072920Y0310609D01*
X0073058Y0310490D01*
X0073200Y0310374D01*
X0073344Y0310262D01*
X0073490Y0310154D01*
X0073640Y0310049D01*
X0073791Y0309948D01*
X0073946Y0309850D01*
X0074102Y0309756D01*
X0074261Y0309667D01*
X0074422Y0309581D01*
X0074585Y0309499D01*
X0074750Y0309421D01*
X0074917Y0309347D01*
X0075085Y0309277D01*
X0075255Y0309211D01*
X0075427Y0309149D01*
X0075600Y0309092D01*
X0075775Y0309038D01*
X0075950Y0308989D01*
X0076127Y0308945D01*
X0076305Y0308904D01*
X0076484Y0308868D01*
X0076664Y0308837D01*
X0076844Y0308809D01*
X0077025Y0308786D01*
X0077207Y0308768D01*
X0077389Y0308754D01*
X0077571Y0308744D01*
X0077753Y0308739D01*
X0077936Y0308738D01*
X0078118Y0308742D01*
X0078300Y0308750D01*
X0110300Y0308750D02*
X0122800Y0308750D01*
X0123050Y0296750D02*
X0110300Y0296750D01*
X0122800Y0308750D02*
X0123382Y0308743D01*
X0123964Y0308722D01*
X0124546Y0308686D01*
X0125126Y0308636D01*
X0125705Y0308573D01*
X0126282Y0308495D01*
X0126857Y0308403D01*
X0127430Y0308297D01*
X0128000Y0308177D01*
X0128566Y0308043D01*
X0129130Y0307895D01*
X0129689Y0307734D01*
X0130245Y0307559D01*
X0130796Y0307371D01*
X0131342Y0307169D01*
X0131884Y0306954D01*
X0132419Y0306726D01*
X0132949Y0306485D01*
X0133474Y0306230D01*
X0133991Y0305964D01*
X0134502Y0305684D01*
X0135006Y0305393D01*
X0135503Y0305089D01*
X0135992Y0304773D01*
X0136474Y0304445D01*
X0136947Y0304106D01*
X0137412Y0303755D01*
X0137868Y0303393D01*
X0138315Y0303019D01*
X0138753Y0302635D01*
X0139181Y0302241D01*
X0139600Y0301836D01*
X0140009Y0301421D01*
X0140407Y0300996D01*
X0140795Y0300562D01*
X0141172Y0300118D01*
X0141539Y0299665D01*
X0141894Y0299204D01*
X0142237Y0298734D01*
X0142570Y0298255D01*
X0142890Y0297769D01*
X0143198Y0297275D01*
X0143495Y0296774D01*
X0143779Y0296265D01*
X0144050Y0295750D01*
X0136800Y0287750D02*
X0137012Y0287281D01*
X0137235Y0286818D01*
X0137469Y0286360D01*
X0137714Y0285908D01*
X0137970Y0285462D01*
X0138237Y0285023D01*
X0138515Y0284590D01*
X0138803Y0284164D01*
X0139102Y0283745D01*
X0139410Y0283334D01*
X0139729Y0282930D01*
X0140057Y0282535D01*
X0140395Y0282147D01*
X0140743Y0281768D01*
X0141099Y0281397D01*
X0141465Y0281035D01*
X0141839Y0280683D01*
X0142221Y0280339D01*
X0142612Y0280005D01*
X0143011Y0279681D01*
X0143418Y0279366D01*
X0143832Y0279062D01*
X0144254Y0278767D01*
X0144683Y0278483D01*
X0145118Y0278210D01*
X0145560Y0277947D01*
X0146009Y0277696D01*
X0146463Y0277455D01*
X0146923Y0277225D01*
X0147389Y0277007D01*
X0147860Y0276800D01*
X0148335Y0276605D01*
X0148816Y0276421D01*
X0149300Y0276250D01*
X0167704Y0281500D02*
X0167800Y0281596D01*
X0188800Y0288596D02*
X0189454Y0289250D01*
X0167800Y0281597D02*
X0167166Y0281590D01*
X0166533Y0281598D01*
X0165899Y0281622D01*
X0165267Y0281662D01*
X0164636Y0281716D01*
X0164006Y0281787D01*
X0163378Y0281872D01*
X0162752Y0281973D01*
X0162129Y0282089D01*
X0161509Y0282220D01*
X0160893Y0282366D01*
X0160280Y0282527D01*
X0159671Y0282703D01*
X0159067Y0282894D01*
X0158468Y0283099D01*
X0157873Y0283319D01*
X0157285Y0283554D01*
X0156702Y0283803D01*
X0156125Y0284065D01*
X0155555Y0284342D01*
X0154992Y0284633D01*
X0154436Y0284937D01*
X0153888Y0285255D01*
X0153348Y0285586D01*
X0152815Y0285930D01*
X0152292Y0286287D01*
X0151777Y0286657D01*
X0151272Y0287039D01*
X0150775Y0287433D01*
X0150289Y0287839D01*
X0149813Y0288257D01*
X0149347Y0288687D01*
X0148891Y0289127D01*
X0148447Y0289579D01*
X0148014Y0290041D01*
X0147592Y0290514D01*
X0147181Y0290997D01*
X0146783Y0291490D01*
X0146397Y0291992D01*
X0146023Y0292504D01*
X0145661Y0293024D01*
X0145313Y0293553D01*
X0144977Y0294091D01*
X0144655Y0294636D01*
X0144346Y0295190D01*
X0144050Y0295750D01*
X0149300Y0276250D02*
X0150149Y0275973D01*
X0151004Y0275716D01*
X0151865Y0275480D01*
X0152732Y0275265D01*
X0153604Y0275071D01*
X0154480Y0274898D01*
X0155360Y0274747D01*
X0156243Y0274617D01*
X0157130Y0274509D01*
X0158018Y0274423D01*
X0158909Y0274358D01*
X0159801Y0274315D01*
X0160694Y0274294D01*
X0161587Y0274294D01*
X0162479Y0274316D01*
X0163371Y0274360D01*
X0164262Y0274425D01*
X0165150Y0274513D01*
X0166037Y0274621D01*
X0166920Y0274752D01*
X0167800Y0274904D01*
X0191493Y0259596D02*
X0191493Y0258846D01*
X0191146Y0258500D01*
X0136800Y0287750D02*
X0136651Y0288081D01*
X0136494Y0288407D01*
X0136329Y0288730D01*
X0136156Y0289048D01*
X0135976Y0289363D01*
X0135789Y0289673D01*
X0135594Y0289978D01*
X0135391Y0290278D01*
X0135182Y0290574D01*
X0134965Y0290864D01*
X0134741Y0291149D01*
X0134511Y0291429D01*
X0134274Y0291703D01*
X0134030Y0291971D01*
X0133780Y0292233D01*
X0133524Y0292489D01*
X0133261Y0292739D01*
X0132993Y0292982D01*
X0132719Y0293219D01*
X0132439Y0293449D01*
X0132154Y0293672D01*
X0131863Y0293889D01*
X0131567Y0294098D01*
X0131267Y0294300D01*
X0130961Y0294495D01*
X0130651Y0294682D01*
X0130336Y0294862D01*
X0130018Y0295034D01*
X0129695Y0295198D01*
X0129368Y0295355D01*
X0129038Y0295503D01*
X0128704Y0295644D01*
X0128366Y0295776D01*
X0128026Y0295901D01*
X0127683Y0296017D01*
X0127337Y0296124D01*
X0126989Y0296224D01*
X0126638Y0296315D01*
X0126285Y0296397D01*
X0125930Y0296471D01*
X0125574Y0296536D01*
X0125216Y0296593D01*
X0124857Y0296641D01*
X0124497Y0296680D01*
X0124136Y0296711D01*
X0123774Y0296733D01*
X0123412Y0296746D01*
X0123050Y0296750D01*
X0080050Y0260000D02*
X0079800Y0259750D01*
X0068050Y0259750D01*
X0066800Y0264750D02*
X0066631Y0264765D01*
X0066461Y0264775D01*
X0066291Y0264782D01*
X0066121Y0264784D01*
X0065951Y0264782D01*
X0065782Y0264776D01*
X0065612Y0264766D01*
X0065443Y0264751D01*
X0065274Y0264733D01*
X0065105Y0264710D01*
X0064937Y0264683D01*
X0064770Y0264652D01*
X0064604Y0264618D01*
X0064439Y0264579D01*
X0064274Y0264536D01*
X0064111Y0264489D01*
X0063949Y0264438D01*
X0063788Y0264383D01*
X0063629Y0264324D01*
X0063471Y0264261D01*
X0063314Y0264195D01*
X0063160Y0264124D01*
X0063007Y0264050D01*
X0062856Y0263972D01*
X0062707Y0263891D01*
X0062559Y0263806D01*
X0062414Y0263717D01*
X0062272Y0263625D01*
X0062131Y0263530D01*
X0061993Y0263430D01*
X0061858Y0263328D01*
X0061724Y0263222D01*
X0061594Y0263114D01*
X0061466Y0263002D01*
X0061341Y0262887D01*
X0061219Y0262768D01*
X0061100Y0262647D01*
X0060984Y0262523D01*
X0060870Y0262397D01*
X0060760Y0262267D01*
X0060653Y0262135D01*
X0060550Y0262000D01*
X0065050Y0258250D02*
X0064931Y0258117D01*
X0064810Y0257988D01*
X0064685Y0257861D01*
X0064557Y0257737D01*
X0064426Y0257617D01*
X0064292Y0257500D01*
X0064155Y0257386D01*
X0064016Y0257275D01*
X0063873Y0257168D01*
X0063729Y0257064D01*
X0063582Y0256964D01*
X0063432Y0256868D01*
X0063280Y0256775D01*
X0063126Y0256686D01*
X0062970Y0256601D01*
X0062812Y0256519D01*
X0062652Y0256442D01*
X0062490Y0256368D01*
X0062326Y0256298D01*
X0062160Y0256233D01*
X0061993Y0256171D01*
X0061825Y0256114D01*
X0061655Y0256060D01*
X0061484Y0256011D01*
X0061312Y0255966D01*
X0061139Y0255925D01*
X0060965Y0255888D01*
X0060790Y0255856D01*
X0060614Y0255828D01*
X0060438Y0255804D01*
X0060261Y0255785D01*
X0060083Y0255770D01*
X0059906Y0255759D01*
X0059728Y0255752D01*
X0059550Y0255750D01*
X0028050Y0255750D01*
X0029550Y0259750D02*
X0056050Y0259750D01*
X0056199Y0259752D01*
X0056348Y0259758D01*
X0056497Y0259768D01*
X0056645Y0259782D01*
X0056793Y0259799D01*
X0056940Y0259821D01*
X0057087Y0259846D01*
X0057233Y0259876D01*
X0057379Y0259909D01*
X0057523Y0259946D01*
X0057666Y0259987D01*
X0057808Y0260032D01*
X0057949Y0260080D01*
X0058089Y0260133D01*
X0058227Y0260188D01*
X0058364Y0260248D01*
X0058499Y0260311D01*
X0058632Y0260378D01*
X0058763Y0260448D01*
X0058893Y0260521D01*
X0059021Y0260598D01*
X0059146Y0260679D01*
X0059269Y0260762D01*
X0059391Y0260849D01*
X0059509Y0260939D01*
X0059626Y0261033D01*
X0059739Y0261129D01*
X0059850Y0261228D01*
X0059959Y0261330D01*
X0060065Y0261435D01*
X0060168Y0261543D01*
X0060268Y0261653D01*
X0060365Y0261766D01*
X0060459Y0261882D01*
X0060550Y0262000D01*
X0066800Y0264750D02*
X0069800Y0264750D01*
X0070050Y0265000D01*
X0068050Y0259750D02*
X0067919Y0259738D01*
X0067787Y0259722D01*
X0067656Y0259703D01*
X0067526Y0259679D01*
X0067397Y0259652D01*
X0067268Y0259621D01*
X0067141Y0259585D01*
X0067014Y0259546D01*
X0066889Y0259504D01*
X0066765Y0259457D01*
X0066643Y0259407D01*
X0066522Y0259353D01*
X0066403Y0259296D01*
X0066285Y0259235D01*
X0066170Y0259171D01*
X0066056Y0259103D01*
X0065944Y0259031D01*
X0065835Y0258957D01*
X0065728Y0258879D01*
X0065623Y0258798D01*
X0065521Y0258714D01*
X0065422Y0258627D01*
X0065325Y0258537D01*
X0065231Y0258444D01*
X0065139Y0258348D01*
X0065051Y0258250D01*
X0029550Y0259750D02*
X0029233Y0259779D01*
X0028916Y0259816D01*
X0028601Y0259861D01*
X0028286Y0259913D01*
X0027973Y0259974D01*
X0027662Y0260041D01*
X0027352Y0260117D01*
X0027044Y0260200D01*
X0026739Y0260290D01*
X0026436Y0260388D01*
X0026135Y0260493D01*
X0025836Y0260606D01*
X0025541Y0260726D01*
X0025249Y0260853D01*
X0024960Y0260987D01*
X0024674Y0261128D01*
X0024392Y0261276D01*
X0024113Y0261431D01*
X0023838Y0261593D01*
X0023568Y0261761D01*
X0023301Y0261936D01*
X0023039Y0262118D01*
X0022782Y0262305D01*
X0022529Y0262499D01*
X0022281Y0262699D01*
X0022038Y0262905D01*
X0021800Y0263117D01*
X0021567Y0263335D01*
X0021339Y0263559D01*
X0021118Y0263787D01*
X0020901Y0264022D01*
X0020691Y0264261D01*
X0020486Y0264506D01*
X0020288Y0264755D01*
X0020096Y0265009D01*
X0019910Y0265268D01*
X0019730Y0265531D01*
X0019557Y0265799D01*
X0019390Y0266071D01*
X0019230Y0266346D01*
X0019077Y0266626D01*
X0018931Y0266909D01*
X0018792Y0267196D01*
X0018660Y0267486D01*
X0018534Y0267779D01*
X0018417Y0268075D01*
X0018306Y0268374D01*
X0018203Y0268676D01*
X0018107Y0268980D01*
X0018018Y0269286D01*
X0017938Y0269594D01*
X0017864Y0269904D01*
X0017798Y0270216D01*
X0017740Y0270530D01*
X0017690Y0270844D01*
X0017647Y0271160D01*
X0017612Y0271477D01*
X0017585Y0271795D01*
X0017566Y0272113D01*
X0017554Y0272431D01*
X0017550Y0272750D01*
X0017550Y0292750D01*
X0017525Y0292877D01*
X0017505Y0293003D01*
X0017488Y0293131D01*
X0017475Y0293259D01*
X0017467Y0293387D01*
X0017462Y0293516D01*
X0017461Y0293644D01*
X0017464Y0293773D01*
X0017472Y0293901D01*
X0017483Y0294029D01*
X0017498Y0294157D01*
X0017517Y0294284D01*
X0017540Y0294411D01*
X0017567Y0294537D01*
X0017597Y0294661D01*
X0017632Y0294785D01*
X0017670Y0294908D01*
X0017713Y0295030D01*
X0017759Y0295150D01*
X0017808Y0295268D01*
X0017861Y0295385D01*
X0017918Y0295501D01*
X0017979Y0295614D01*
X0018043Y0295726D01*
X0018110Y0295835D01*
X0018180Y0295943D01*
X0018254Y0296048D01*
X0018332Y0296151D01*
X0018412Y0296251D01*
X0018495Y0296349D01*
X0018582Y0296445D01*
X0018671Y0296537D01*
X0018763Y0296627D01*
X0018858Y0296714D01*
X0018955Y0296798D01*
X0019055Y0296879D01*
X0019158Y0296956D01*
X0019262Y0297031D01*
X0019370Y0297102D01*
X0019479Y0297170D01*
X0019590Y0297234D01*
X0019703Y0297295D01*
X0019818Y0297353D01*
X0019935Y0297407D01*
X0020053Y0297457D01*
X0020173Y0297504D01*
X0020294Y0297546D01*
X0020417Y0297585D01*
X0020541Y0297621D01*
X0020665Y0297652D01*
X0020791Y0297680D01*
X0020917Y0297703D01*
X0021044Y0297723D01*
X0021172Y0297739D01*
X0021300Y0297751D01*
X0021300Y0297750D02*
X0024550Y0298000D01*
X0013800Y0309500D02*
X0013772Y0309674D01*
X0013748Y0309848D01*
X0013729Y0310022D01*
X0013713Y0310197D01*
X0013702Y0310373D01*
X0013695Y0310548D01*
X0013692Y0310724D01*
X0013694Y0310900D01*
X0013699Y0311076D01*
X0013709Y0311251D01*
X0013724Y0311426D01*
X0013742Y0311601D01*
X0013765Y0311775D01*
X0013792Y0311949D01*
X0013823Y0312122D01*
X0013858Y0312294D01*
X0013898Y0312466D01*
X0013941Y0312636D01*
X0013989Y0312805D01*
X0014041Y0312973D01*
X0014097Y0313140D01*
X0014157Y0313305D01*
X0014220Y0313469D01*
X0014288Y0313631D01*
X0014360Y0313791D01*
X0014435Y0313950D01*
X0014515Y0314107D01*
X0014598Y0314262D01*
X0014685Y0314414D01*
X0014776Y0314565D01*
X0014870Y0314713D01*
X0014967Y0314859D01*
X0015069Y0315003D01*
X0015173Y0315144D01*
X0015282Y0315283D01*
X0015393Y0315419D01*
X0015508Y0315552D01*
X0015626Y0315682D01*
X0015747Y0315810D01*
X0015871Y0315934D01*
X0015998Y0316056D01*
X0016128Y0316174D01*
X0016260Y0316289D01*
X0016396Y0316401D01*
X0016534Y0316510D01*
X0016675Y0316615D01*
X0016818Y0316717D01*
X0016964Y0316815D01*
X0017112Y0316910D01*
X0017262Y0317001D01*
X0017415Y0317089D01*
X0017569Y0317172D01*
X0017726Y0317252D01*
X0017884Y0317329D01*
X0018044Y0317401D01*
X0018206Y0317469D01*
X0018370Y0317534D01*
X0018535Y0317594D01*
X0018701Y0317651D01*
X0018869Y0317703D01*
X0019038Y0317752D01*
X0019208Y0317796D01*
X0019379Y0317836D01*
X0019551Y0317872D01*
X0019724Y0317904D01*
X0019898Y0317931D01*
X0020072Y0317955D01*
X0020247Y0317974D01*
X0020422Y0317989D01*
X0020597Y0317999D01*
X0020773Y0318006D01*
X0020949Y0318008D01*
X0021124Y0318006D01*
X0021300Y0318000D01*
X0024550Y0318000D01*
X0013800Y0309750D02*
X0013800Y0309500D01*
X0013800Y0277750D01*
X0013799Y0277750D02*
X0013852Y0276250D01*
X0013870Y0274750D01*
X0013852Y0273250D01*
X0013799Y0271750D01*
X0013800Y0271750D02*
X0013787Y0271379D01*
X0013783Y0271009D01*
X0013788Y0270638D01*
X0013802Y0270267D01*
X0013825Y0269897D01*
X0013857Y0269528D01*
X0013897Y0269159D01*
X0013947Y0268792D01*
X0014006Y0268426D01*
X0014073Y0268061D01*
X0014149Y0267698D01*
X0014234Y0267338D01*
X0014328Y0266979D01*
X0014430Y0266622D01*
X0014541Y0266269D01*
X0014661Y0265918D01*
X0014789Y0265570D01*
X0014925Y0265225D01*
X0015070Y0264884D01*
X0015223Y0264546D01*
X0015384Y0264212D01*
X0015553Y0263882D01*
X0015730Y0263556D01*
X0015914Y0263235D01*
X0016107Y0262918D01*
X0016307Y0262606D01*
X0016515Y0262298D01*
X0016730Y0261996D01*
X0016952Y0261700D01*
X0017181Y0261408D01*
X0017418Y0261123D01*
X0017661Y0260843D01*
X0017911Y0260569D01*
X0018167Y0260301D01*
X0018430Y0260040D01*
X0018699Y0259785D01*
X0018975Y0259536D01*
X0019256Y0259295D01*
X0019543Y0259060D01*
X0019835Y0258832D01*
X0020133Y0258611D01*
X0020437Y0258398D01*
X0020745Y0258192D01*
X0021058Y0257994D01*
X0021376Y0257803D01*
X0021698Y0257620D01*
X0022025Y0257445D01*
X0022356Y0257277D01*
X0022691Y0257118D01*
X0023030Y0256967D01*
X0023372Y0256824D01*
X0023717Y0256690D01*
X0024066Y0256564D01*
X0024418Y0256446D01*
X0024772Y0256337D01*
X0025129Y0256237D01*
X0025488Y0256145D01*
X0025849Y0256062D01*
X0026213Y0255988D01*
X0026578Y0255923D01*
X0026944Y0255866D01*
X0027312Y0255818D01*
X0027681Y0255780D01*
X0028050Y0255750D01*
X0056800Y0196250D02*
X0056300Y0195750D01*
X0056050Y0195750D01*
X0055050Y0194750D01*
X0054800Y0194750D01*
X0056800Y0196250D02*
X0091300Y0196250D01*
X0091550Y0196500D01*
X0091550Y0191500D02*
X0091300Y0191250D01*
X0082550Y0191250D01*
X0080550Y0189250D01*
X0047550Y0189250D01*
X0045800Y0187500D01*
X0046550Y0114500D02*
X0040050Y0114500D01*
X0039560Y0114010D01*
X0039560Y0109382D01*
X0043300Y0109382D02*
X0043300Y0103500D01*
X0047040Y0109382D02*
X0047300Y0109642D01*
X0047300Y0112500D01*
X0047925Y0113125D02*
X0046550Y0114500D01*
X0054300Y0110154D02*
X0054300Y0102500D01*
X0061300Y0098500D02*
X0062300Y0098500D01*
X0062898Y0099098D01*
X0069300Y0099098D01*
X0059812Y0078012D02*
X0059812Y0077500D01*
X0071300Y0065500D02*
X0071631Y0065169D01*
X0078300Y0065169D01*
X0032300Y0103500D02*
X0032300Y0108988D01*
X0268050Y0041500D02*
X0271800Y0045250D01*
X0277300Y0045250D01*
X0279389Y0043161D01*
X0284903Y0043161D01*
X0284903Y0040602D02*
X0274056Y0040602D01*
X0273800Y0040346D01*
X0280402Y0053398D02*
X0279800Y0054000D01*
X0280402Y0053398D02*
X0284903Y0053398D01*
X0295800Y0047000D02*
X0299639Y0050839D01*
X0306697Y0050839D01*
X0306697Y0053398D02*
X0311448Y0053398D01*
X0311800Y0053750D01*
X0315300Y0052846D02*
X0315300Y0049000D01*
X0314580Y0048280D01*
X0306697Y0048280D01*
X0306697Y0045720D01*
X0306697Y0043161D02*
X0319292Y0043161D01*
X0321454Y0041000D01*
X0321454Y0050000D01*
X0315300Y0052846D02*
X0321454Y0059000D01*
X0321454Y0068000D01*
X0312896Y0068000D01*
X0312300Y0068596D01*
X0312300Y0061904D02*
X0315146Y0061904D01*
X0315550Y0061500D01*
X0328146Y0059000D02*
X0333550Y0059000D01*
X0334454Y0050250D02*
X0334204Y0050000D01*
X0328146Y0050000D01*
X0328146Y0041000D02*
X0352300Y0041000D01*
X0352300Y0050250D02*
X0341146Y0050250D01*
X0341146Y0067154D01*
X0340300Y0068000D01*
X0328146Y0068000D01*
X0311948Y0040602D02*
X0306697Y0040602D01*
X0306697Y0038043D02*
X0310007Y0038043D01*
X0316050Y0032000D01*
X0321454Y0032000D01*
X0324050Y0036000D02*
X0316550Y0036000D01*
X0311948Y0040602D01*
X0324050Y0036000D02*
X0327050Y0033000D01*
X0327050Y0028000D01*
X0326550Y0027500D01*
X0328146Y0032000D02*
X0324146Y0036000D01*
X0324050Y0036000D01*
X0357733Y0136750D02*
X0366800Y0136750D01*
X0367050Y0137000D01*
X0373050Y0152250D02*
X0372800Y0155750D01*
X0372800Y0166250D01*
X0365550Y0173500D02*
X0365131Y0173919D01*
X0335300Y0173919D01*
X0341550Y0149260D02*
X0341550Y0145000D01*
X0340050Y0143500D01*
X0351310Y0209500D02*
X0351300Y0209510D01*
X0373050Y0215500D02*
X0373300Y0215250D01*
X0375300Y0215250D01*
X0376050Y0214500D01*
X0373050Y0215500D02*
X0373050Y0239000D01*
X0313810Y0280750D02*
X0316060Y0288750D01*
D57*
X0322290Y0290000D02*
X0323540Y0288750D01*
X0321290Y0280750D01*
X0320800Y0280260D01*
X0320800Y0276000D01*
X0320050Y0275250D01*
X0313300Y0275250D01*
X0310999Y0272949D01*
X0310999Y0269770D01*
X0309030Y0269770D02*
X0309030Y0262770D01*
X0308800Y0260750D01*
X0306050Y0264250D02*
X0301050Y0264250D01*
X0298050Y0261250D01*
X0297550Y0261750D01*
X0285800Y0261750D01*
X0285408Y0269770D02*
X0285408Y0308642D01*
X0284050Y0310000D01*
X0284050Y0314951D01*
X0284099Y0315000D01*
X0287377Y0314341D02*
X0288036Y0315000D01*
X0287377Y0314341D02*
X0287377Y0269770D01*
X0289345Y0269770D02*
X0289345Y0307295D01*
X0292050Y0310000D01*
X0292050Y0314923D01*
X0291973Y0315000D01*
X0295910Y0315000D02*
X0295910Y0307110D01*
X0292800Y0304000D01*
X0299800Y0304500D02*
X0291314Y0296014D01*
X0291314Y0269770D01*
X0293282Y0269770D02*
X0293282Y0288482D01*
X0293300Y0288500D01*
X0293300Y0295250D01*
X0303784Y0305734D01*
X0303784Y0315000D01*
X0299847Y0315000D02*
X0299800Y0314953D01*
X0299800Y0304500D01*
X0304300Y0299000D02*
X0313800Y0299000D01*
X0315800Y0301000D01*
X0321300Y0301000D01*
X0321800Y0300500D01*
X0329800Y0300500D01*
X0331800Y0298500D01*
X0331300Y0299000D01*
X0330969Y0290000D02*
X0322290Y0290000D01*
X0318800Y0297000D02*
X0315550Y0297000D01*
X0310050Y0291500D01*
X0305300Y0291500D01*
X0301156Y0287356D01*
X0301156Y0269770D01*
X0299188Y0269770D02*
X0299188Y0290638D01*
X0304050Y0295500D01*
X0307050Y0295500D01*
X0304300Y0299000D02*
X0297219Y0291919D01*
X0297219Y0269770D01*
X0295251Y0269770D02*
X0295251Y0293951D01*
X0307800Y0306500D01*
X0310300Y0306500D01*
X0311550Y0307750D01*
X0311800Y0302750D02*
X0311550Y0302500D01*
X0311800Y0302750D02*
X0314050Y0302750D01*
X0315550Y0304250D01*
X0315550Y0314955D01*
X0315595Y0315000D01*
X0311658Y0315000D02*
X0311658Y0323108D01*
X0315800Y0327250D01*
X0331050Y0327250D01*
X0335800Y0322500D01*
X0335800Y0316750D01*
X0337050Y0315500D01*
X0339800Y0315500D01*
X0344550Y0310750D01*
X0344550Y0261000D01*
X0345550Y0260000D01*
X0345550Y0257750D01*
X0349300Y0249250D02*
X0354050Y0249250D01*
X0359550Y0243750D01*
X0376300Y0243750D01*
X0378300Y0241750D01*
X0378300Y0236000D01*
X0380050Y0234250D01*
X0385800Y0234250D01*
X0387800Y0232250D01*
X0387800Y0192500D01*
X0386300Y0191000D01*
X0378300Y0191000D01*
X0373550Y0186250D01*
X0372800Y0186250D01*
X0359050Y0200240D02*
X0354678Y0204612D01*
X0319070Y0204612D01*
X0319070Y0202644D02*
X0348146Y0202644D01*
X0350550Y0200240D01*
X0343050Y0197250D02*
X0341300Y0195500D01*
X0324800Y0195500D01*
X0323562Y0196738D01*
X0319070Y0196738D01*
X0319070Y0194770D02*
X0322280Y0194770D01*
X0323550Y0193500D01*
X0340050Y0193500D01*
X0345800Y0187750D01*
X0337550Y0189000D02*
X0335050Y0191500D01*
X0322550Y0191500D01*
X0321300Y0192750D01*
X0319019Y0192750D01*
X0318300Y0188500D02*
X0318310Y0187990D01*
X0318310Y0181250D01*
X0318310Y0172500D01*
X0313550Y0168250D02*
X0313550Y0190500D01*
X0312050Y0192000D01*
X0312050Y0195250D01*
X0315507Y0198707D01*
X0319070Y0198707D01*
X0319070Y0200675D02*
X0322375Y0200675D01*
X0324050Y0199000D01*
X0331550Y0199000D01*
X0331550Y0209760D02*
X0332060Y0209750D01*
X0336050Y0209750D01*
X0332040Y0209750D02*
X0331550Y0209760D01*
X0332040Y0209750D02*
X0326300Y0209750D01*
X0323564Y0212486D01*
X0319070Y0212486D01*
X0319070Y0210518D02*
X0322532Y0210518D01*
X0323550Y0209500D01*
X0323550Y0206750D01*
X0323381Y0206581D01*
X0319070Y0206581D01*
X0295969Y0206581D01*
X0295550Y0207000D01*
X0289300Y0215500D02*
X0285300Y0211500D01*
X0283550Y0211500D01*
X0289300Y0215500D02*
X0313800Y0215500D01*
X0314845Y0214455D01*
X0319070Y0214455D01*
X0319070Y0216423D02*
X0315877Y0216423D01*
X0314300Y0218000D01*
X0286550Y0218000D01*
X0283550Y0220500D01*
X0285800Y0222750D01*
X0285800Y0239000D01*
X0291300Y0238750D02*
X0291300Y0227750D01*
X0289800Y0226250D01*
X0297050Y0225250D02*
X0298066Y0226266D01*
X0319070Y0226266D01*
X0319070Y0224297D02*
X0330347Y0224297D01*
X0331800Y0225750D01*
X0339550Y0225000D02*
X0340060Y0225000D01*
X0338721Y0217829D02*
X0338133Y0217240D01*
X0336800Y0217240D01*
X0331550Y0217240D01*
X0319070Y0208549D02*
X0319020Y0208500D01*
X0311550Y0208500D01*
X0310300Y0209750D01*
X0310300Y0211750D01*
X0308300Y0199250D02*
X0309050Y0198500D01*
X0309050Y0189500D01*
X0307062Y0187512D01*
X0307062Y0184730D01*
X0309030Y0184730D02*
X0309030Y0158250D01*
X0309280Y0158000D01*
X0320050Y0158000D01*
X0322828Y0155222D01*
X0322828Y0153892D01*
X0321436Y0148000D02*
X0322828Y0146608D01*
X0321436Y0148000D02*
X0320800Y0148000D01*
X0314908Y0153892D01*
X0313772Y0153892D01*
X0309692Y0153892D01*
X0307050Y0151250D01*
X0306530Y0155750D02*
X0309030Y0158250D01*
X0306530Y0155750D02*
X0297562Y0155750D01*
X0295251Y0163799D02*
X0293800Y0163250D01*
X0295251Y0163799D02*
X0295251Y0184730D01*
X0297219Y0184730D02*
X0297219Y0167081D01*
X0299050Y0165250D01*
X0301050Y0169500D02*
X0304050Y0169500D01*
X0304550Y0169000D01*
X0301050Y0169500D02*
X0299188Y0171362D01*
X0299188Y0184730D01*
X0301156Y0184730D02*
X0301156Y0178394D01*
X0302800Y0176750D01*
X0305093Y0184730D02*
X0305093Y0190957D01*
X0305050Y0191000D01*
X0305050Y0191500D01*
X0310999Y0184730D02*
X0310999Y0163801D01*
X0313550Y0161250D01*
X0324300Y0161250D01*
X0327550Y0158000D01*
X0327550Y0143500D01*
X0325800Y0141750D01*
X0315300Y0141750D01*
X0313800Y0143250D01*
X0313800Y0146581D01*
X0313772Y0146608D01*
X0313664Y0146500D01*
X0297562Y0146500D01*
X0286538Y0146500D02*
X0284300Y0146500D01*
X0280550Y0150250D01*
X0286050Y0155750D01*
X0286538Y0155750D01*
X0288550Y0171500D02*
X0287377Y0172673D01*
X0287377Y0184730D01*
X0285408Y0184730D02*
X0285408Y0177608D01*
X0283550Y0175750D01*
X0290800Y0177250D02*
X0293282Y0179732D01*
X0293282Y0184730D01*
X0271300Y0192750D02*
X0271300Y0193250D01*
X0271300Y0192750D02*
X0269300Y0192750D01*
X0267550Y0191000D01*
X0265050Y0191000D01*
X0263755Y0189705D01*
X0263755Y0184730D01*
X0261800Y0184717D02*
X0261786Y0184730D01*
X0261800Y0184717D02*
X0261800Y0158740D01*
X0261800Y0151260D02*
X0261800Y0147500D01*
X0266800Y0144750D02*
X0270050Y0141500D01*
X0270050Y0140000D01*
X0266800Y0144750D02*
X0266800Y0168000D01*
X0266300Y0168500D01*
X0257800Y0170750D02*
X0257849Y0175549D01*
X0257849Y0184730D01*
X0259818Y0184730D02*
X0259818Y0200232D01*
X0259835Y0200250D01*
X0263300Y0200250D01*
X0263800Y0199750D01*
X0263800Y0196000D01*
X0259818Y0200232D02*
X0259800Y0200250D01*
X0252800Y0189500D02*
X0227550Y0189500D01*
X0224800Y0186750D01*
X0224800Y0156250D01*
X0222550Y0154000D01*
X0222550Y0146000D01*
X0224800Y0143750D01*
X0228800Y0143750D01*
X0233550Y0148500D01*
X0237550Y0148500D01*
X0227800Y0152500D02*
X0227800Y0174500D01*
X0231050Y0177750D01*
X0242050Y0177750D01*
X0244050Y0179750D01*
X0244050Y0184711D01*
X0244070Y0184730D01*
X0249975Y0184730D02*
X0249975Y0181425D01*
X0244050Y0175500D01*
X0239050Y0175500D01*
X0234300Y0168500D01*
X0234550Y0170500D01*
X0234550Y0164750D01*
X0246550Y0152750D01*
X0246550Y0147000D01*
X0246300Y0146750D01*
X0250550Y0137250D02*
X0248300Y0135000D01*
X0250550Y0137250D02*
X0250550Y0168750D01*
X0251944Y0171644D01*
X0251944Y0184730D01*
X0253912Y0184730D02*
X0253912Y0188388D01*
X0252800Y0189500D01*
X0234030Y0192801D02*
X0222601Y0192801D01*
X0221800Y0192000D01*
X0221800Y0185500D01*
X0220550Y0184250D01*
X0213810Y0184250D01*
X0213800Y0184240D01*
X0219030Y0194770D02*
X0217550Y0196250D01*
X0217550Y0216250D01*
X0213099Y0220360D02*
X0211800Y0219061D01*
X0213099Y0220360D02*
X0234030Y0220360D01*
X0234030Y0228234D02*
X0227284Y0228234D01*
X0224050Y0225000D01*
X0214050Y0225000D01*
X0211550Y0226750D01*
X0212060Y0226990D01*
X0212060Y0230250D01*
X0219540Y0230250D02*
X0233983Y0230250D01*
X0234030Y0230203D01*
X0234030Y0232171D02*
X0239629Y0232171D01*
X0239800Y0232000D01*
X0225050Y0238500D02*
X0225050Y0246750D01*
X0227300Y0249000D01*
X0226800Y0253825D02*
X0226800Y0254500D01*
X0226800Y0253825D02*
X0234030Y0253825D01*
X0234030Y0259730D02*
X0234011Y0259750D01*
X0226800Y0259750D01*
X0229999Y0263750D02*
X0232050Y0261699D01*
X0233050Y0262699D01*
X0233050Y0265750D01*
X0229999Y0263750D02*
X0220800Y0263750D01*
X0219800Y0264750D01*
X0206300Y0264750D01*
X0204550Y0266500D01*
X0204550Y0268500D01*
X0203831Y0269219D01*
X0200800Y0269219D01*
X0200800Y0271187D02*
X0207863Y0271187D01*
X0208050Y0271000D01*
X0208050Y0269750D01*
X0208550Y0269750D01*
X0208800Y0269500D01*
X0209050Y0269250D01*
X0237800Y0269250D01*
X0238050Y0269500D01*
X0238300Y0269500D01*
X0238300Y0271250D01*
X0240621Y0271250D01*
X0242101Y0269770D01*
X0246038Y0269770D02*
X0246038Y0273012D01*
X0245300Y0273750D01*
X0237550Y0273750D01*
X0235800Y0275500D01*
X0235800Y0276510D01*
X0233060Y0279250D01*
X0233060Y0281260D01*
X0233050Y0279500D01*
X0228800Y0282250D02*
X0228800Y0282750D01*
X0229800Y0283750D01*
X0238812Y0283750D01*
X0241142Y0281420D01*
X0240540Y0279250D01*
X0243040Y0276750D01*
X0245050Y0276750D01*
X0248050Y0273750D01*
X0248050Y0269813D01*
X0248007Y0269770D01*
X0246050Y0269781D02*
X0246038Y0269770D01*
X0249975Y0269770D02*
X0249975Y0264825D01*
X0250050Y0264750D01*
X0250050Y0261750D02*
X0243800Y0261750D01*
X0253550Y0261500D02*
X0253550Y0250000D01*
X0255050Y0248250D01*
X0258800Y0251250D02*
X0260300Y0248250D01*
X0258800Y0251250D02*
X0258800Y0259000D01*
X0260550Y0260750D01*
X0271800Y0260750D01*
X0275566Y0264516D01*
X0275566Y0269770D01*
X0277534Y0269770D02*
X0277534Y0300516D01*
X0268300Y0309750D01*
X0268300Y0314949D01*
X0268351Y0315000D01*
X0264550Y0315136D02*
X0264414Y0315000D01*
X0264550Y0315136D02*
X0264550Y0328750D01*
X0265550Y0329750D01*
X0271800Y0329750D01*
X0260300Y0325500D02*
X0260300Y0315177D01*
X0260477Y0315000D01*
X0256550Y0314990D02*
X0256550Y0310500D01*
X0271629Y0295421D01*
X0271629Y0269770D01*
X0273597Y0269770D02*
X0273597Y0266047D01*
X0271300Y0263750D01*
X0255800Y0263750D01*
X0253550Y0261500D01*
X0253912Y0269770D02*
X0253912Y0285138D01*
X0249800Y0289250D01*
X0238300Y0289250D01*
X0228550Y0299000D01*
X0220050Y0299000D01*
X0209300Y0309750D01*
X0209300Y0314996D01*
X0209296Y0315000D01*
X0205550Y0314809D02*
X0205359Y0315000D01*
X0205550Y0314809D02*
X0205550Y0302250D01*
X0209300Y0298500D01*
X0211300Y0298500D01*
X0218800Y0291000D01*
X0226300Y0291000D01*
X0227050Y0290250D01*
X0227050Y0283750D01*
X0225800Y0282500D01*
X0222300Y0282500D01*
X0222050Y0282250D01*
X0219300Y0282250D01*
X0218300Y0283250D01*
X0216550Y0283250D01*
X0216300Y0287500D02*
X0223550Y0287500D01*
X0228800Y0282250D02*
X0226800Y0280250D01*
X0223550Y0280250D01*
X0222704Y0279404D01*
X0209800Y0279404D01*
X0209204Y0279404D01*
X0209050Y0279250D01*
X0205300Y0275624D02*
X0205300Y0275374D01*
X0225674Y0275374D01*
X0227050Y0276750D01*
X0232144Y0273156D02*
X0232300Y0273000D01*
X0232144Y0273156D02*
X0200800Y0273156D01*
X0200800Y0275124D02*
X0205050Y0275124D01*
X0205300Y0275374D01*
X0208550Y0271250D02*
X0208800Y0271000D01*
X0208800Y0269500D01*
X0200800Y0279061D02*
X0192861Y0279061D01*
X0192800Y0279000D01*
X0200550Y0279000D01*
X0196146Y0289250D02*
X0196050Y0290346D01*
X0195550Y0292500D01*
X0199300Y0294000D02*
X0199300Y0298000D01*
X0197550Y0299750D01*
X0197550Y0314935D01*
X0197485Y0315000D01*
X0193550Y0314998D02*
X0193548Y0315000D01*
X0193550Y0314998D02*
X0193550Y0303250D01*
X0192550Y0302250D01*
X0192550Y0298500D01*
X0199300Y0294000D02*
X0202050Y0291250D01*
X0212550Y0291250D01*
X0216300Y0287500D01*
X0222050Y0295000D02*
X0223550Y0296500D01*
X0228050Y0296500D01*
X0238050Y0286500D01*
X0249550Y0286500D01*
X0251944Y0284106D01*
X0251944Y0269770D01*
X0255881Y0269770D02*
X0255881Y0286419D01*
X0250550Y0291750D01*
X0239300Y0291750D01*
X0229800Y0301250D01*
X0220800Y0301250D01*
X0213300Y0308750D01*
X0213300Y0314933D01*
X0213233Y0315000D01*
X0201422Y0315000D02*
X0201422Y0297878D01*
X0204300Y0295000D01*
X0208050Y0295000D01*
X0222300Y0305500D02*
X0225044Y0308244D01*
X0225044Y0315000D01*
X0228981Y0315000D02*
X0229050Y0314931D01*
X0229050Y0305000D01*
X0240300Y0293750D01*
X0251550Y0293750D01*
X0257849Y0287451D01*
X0257849Y0269770D01*
X0259818Y0269770D02*
X0259818Y0288732D01*
X0252550Y0296000D01*
X0241050Y0296000D01*
X0232800Y0304250D01*
X0232800Y0314882D01*
X0232918Y0315000D01*
X0236800Y0314945D02*
X0236855Y0315000D01*
X0236800Y0314945D02*
X0236800Y0303250D01*
X0241800Y0298250D01*
X0253300Y0298250D01*
X0261786Y0289764D01*
X0261786Y0269770D01*
X0263755Y0269770D02*
X0263755Y0290795D01*
X0254050Y0300500D01*
X0242550Y0300500D01*
X0240800Y0302250D01*
X0240800Y0314992D01*
X0240792Y0315000D01*
X0244729Y0315000D02*
X0244800Y0314929D01*
X0244800Y0304000D01*
X0246300Y0302500D01*
X0255050Y0302500D01*
X0265723Y0291827D01*
X0265723Y0269770D01*
X0267692Y0269770D02*
X0267692Y0293108D01*
X0255800Y0305000D01*
X0250050Y0305000D01*
X0248550Y0306500D01*
X0248550Y0314884D01*
X0248666Y0315000D01*
X0252550Y0314947D02*
X0252603Y0315000D01*
X0252550Y0314947D02*
X0252550Y0308250D01*
X0253550Y0307250D01*
X0256800Y0307250D01*
X0269660Y0294390D01*
X0269660Y0269770D01*
X0279503Y0269770D02*
X0279503Y0302547D01*
X0272300Y0309750D01*
X0272300Y0314988D01*
X0272288Y0315000D01*
X0276225Y0315000D02*
X0276300Y0314925D01*
X0276300Y0309750D01*
X0281471Y0304579D01*
X0281471Y0269770D01*
X0283440Y0269770D02*
X0283440Y0306860D01*
X0280300Y0310000D01*
X0280300Y0314862D01*
X0280162Y0315000D01*
X0256550Y0314990D02*
X0256540Y0315000D01*
X0307721Y0315000D02*
X0307721Y0329671D01*
X0311800Y0333750D01*
X0319532Y0315000D02*
X0321550Y0315000D01*
X0323469Y0315000D01*
X0346800Y0294000D02*
X0350800Y0298000D01*
X0346800Y0294000D02*
X0346800Y0273750D01*
X0348550Y0272000D01*
X0371550Y0249000D01*
X0373050Y0249000D01*
X0378050Y0247750D02*
X0378050Y0251750D01*
X0375800Y0254000D01*
X0371050Y0254000D01*
X0357550Y0267500D01*
X0357550Y0271000D01*
X0357050Y0271500D01*
X0360800Y0270250D02*
X0360800Y0274250D01*
X0355300Y0279750D01*
X0360800Y0270250D02*
X0365050Y0266000D01*
X0374800Y0266000D01*
X0378050Y0262750D01*
X0378050Y0256250D01*
X0381550Y0252750D01*
X0381550Y0250500D01*
X0383050Y0249000D01*
X0378050Y0247750D02*
X0383300Y0242500D01*
X0383300Y0239250D01*
X0383050Y0239000D01*
X0387550Y0236000D02*
X0385800Y0234250D01*
X0387550Y0236000D02*
X0387550Y0251750D01*
X0383050Y0256250D01*
X0383050Y0259000D01*
X0373050Y0239000D02*
X0366300Y0239000D01*
X0361290Y0233990D01*
X0359550Y0233990D01*
X0359550Y0226510D02*
X0358790Y0225750D01*
X0354550Y0225750D01*
X0329800Y0249189D02*
X0327739Y0249189D01*
X0327550Y0249000D01*
X0333800Y0257500D02*
X0333538Y0257762D01*
X0319070Y0257762D01*
X0307062Y0265262D02*
X0307062Y0269770D01*
X0309030Y0269770D02*
X0309030Y0275970D01*
X0313810Y0280750D01*
X0329800Y0284250D02*
X0329800Y0272811D01*
X0338800Y0264250D02*
X0339550Y0265000D01*
X0339550Y0284750D01*
X0349800Y0305750D02*
X0359300Y0315250D01*
X0385300Y0315250D01*
X0388800Y0311750D01*
X0319070Y0240045D02*
X0319024Y0240000D01*
X0313300Y0240000D01*
X0313050Y0239750D01*
X0312800Y0239750D01*
X0319070Y0234140D02*
X0300910Y0234140D01*
X0298550Y0236500D01*
X0298550Y0243000D01*
X0313050Y0230000D02*
X0313300Y0230250D01*
X0319022Y0230250D01*
X0319070Y0230203D01*
X0313050Y0230000D02*
X0312800Y0230000D01*
X0306050Y0264250D02*
X0307062Y0265262D01*
X0234030Y0261699D02*
X0232050Y0261699D01*
X0219800Y0245750D02*
X0218800Y0244750D01*
X0209300Y0244750D01*
X0190954Y0236750D02*
X0190800Y0236596D01*
X0190800Y0227000D01*
X0190954Y0236750D02*
X0190954Y0252750D01*
X0189550Y0254154D01*
X0183800Y0251596D02*
X0180800Y0254596D01*
X0180800Y0266250D01*
X0181800Y0267250D01*
X0184265Y0267250D01*
X0184265Y0269219D02*
X0180769Y0269219D01*
X0178550Y0267000D01*
X0181113Y0271187D02*
X0178800Y0272750D01*
X0181113Y0271187D02*
X0184265Y0271187D01*
X0184265Y0277093D02*
X0169989Y0277093D01*
X0167800Y0274904D01*
X0170335Y0279061D02*
X0167800Y0281596D01*
X0170335Y0279061D02*
X0184265Y0279061D01*
X0146300Y0201740D02*
X0146060Y0201500D01*
X0141050Y0201500D01*
X0168550Y0170750D02*
X0167800Y0170000D01*
X0167800Y0168250D01*
X0163050Y0163500D01*
X0163050Y0156750D01*
X0160550Y0154250D01*
X0155050Y0154250D01*
X0151050Y0150250D01*
X0151050Y0143500D01*
X0157550Y0143000D02*
X0157800Y0142750D01*
X0157550Y0143000D02*
X0157550Y0148500D01*
X0160550Y0151500D01*
X0161050Y0151500D01*
X0165800Y0156250D01*
X0165800Y0162250D01*
X0168050Y0164500D01*
X0173050Y0164500D01*
X0173300Y0170750D02*
X0168550Y0170750D01*
X0185550Y0177500D02*
X0185550Y0122750D01*
X0187300Y0121000D01*
X0187300Y0109750D01*
X0188800Y0109000D01*
X0201050Y0110000D02*
X0201550Y0110500D01*
X0201550Y0145250D01*
X0217050Y0128750D02*
X0219060Y0126740D01*
X0220300Y0126740D01*
X0203425Y0103625D02*
X0201925Y0103625D01*
X0201300Y0103000D01*
X0199050Y0095750D02*
X0199050Y0095500D01*
X0166050Y0062500D01*
X0166050Y0056750D01*
X0166139Y0056839D01*
X0176313Y0056839D01*
X0176313Y0054280D02*
X0172330Y0054280D01*
X0170550Y0052500D01*
X0176313Y0054280D02*
X0176342Y0054250D01*
X0187050Y0054250D01*
X0188300Y0055500D01*
X0188300Y0062250D01*
X0186800Y0063750D01*
X0186800Y0076250D01*
X0161550Y0079250D02*
X0158300Y0076000D01*
X0147300Y0076000D01*
X0147300Y0086000D02*
X0147550Y0086250D01*
X0152800Y0086250D01*
X0154550Y0084250D01*
X0161550Y0081500D02*
X0161550Y0079250D01*
X0152550Y0057000D02*
X0149790Y0057000D01*
X0149290Y0057500D01*
X0141810Y0057500D02*
X0137800Y0057500D01*
X0136550Y0056250D01*
X0136550Y0030750D01*
X0147166Y0020134D01*
X0156550Y0020134D01*
X0150050Y0026250D02*
X0141800Y0034500D01*
X0141800Y0048990D01*
X0141810Y0049000D01*
X0149290Y0049000D02*
X0152800Y0049000D01*
X0150050Y0026250D02*
X0163550Y0026250D01*
X0164800Y0025000D01*
X0164800Y0020134D01*
X0164800Y0011866D02*
X0156550Y0011866D01*
X0145916Y0011866D01*
X0144300Y0015750D01*
X0020721Y0069657D02*
X0020379Y0070000D01*
X0020721Y0084421D02*
X0020393Y0084750D01*
X0020643Y0084500D02*
X0020721Y0084421D01*
X0020629Y0089250D02*
X0020721Y0089343D01*
X0023036Y0101500D02*
X0023300Y0101500D01*
X0219030Y0194770D02*
X0224050Y0194770D01*
X0224050Y0201250D01*
X0224050Y0194770D02*
X0234030Y0194770D01*
X0227800Y0152500D02*
X0227050Y0151750D01*
X0227050Y0151500D01*
X0300312Y0079885D02*
X0304355Y0079885D01*
X0304355Y0079322D02*
X0304457Y0078941D01*
X0304655Y0078599D01*
X0304934Y0078319D01*
X0305276Y0078122D01*
X0305658Y0078020D01*
X0310867Y0078020D01*
X0310867Y0086500D01*
X0311867Y0086500D01*
X0311867Y0087500D01*
X0318379Y0087500D01*
X0318379Y0094678D01*
X0318277Y0095059D01*
X0318079Y0095401D01*
X0317800Y0095681D01*
X0317458Y0095878D01*
X0317076Y0095980D01*
X0311867Y0095980D01*
X0311867Y0087500D01*
X0310867Y0087500D01*
X0310867Y0095980D01*
X0305658Y0095980D01*
X0305276Y0095878D01*
X0304934Y0095681D01*
X0304870Y0095616D01*
X0304907Y0101642D01*
X0308619Y0101642D01*
X0308619Y0111500D01*
X0309619Y0111500D01*
X0309619Y0112500D01*
X0315048Y0112500D01*
X0315048Y0121056D01*
X0314946Y0121437D01*
X0314748Y0121779D01*
X0314469Y0122059D01*
X0314127Y0122256D01*
X0313746Y0122358D01*
X0309619Y0122358D01*
X0309619Y0112500D01*
X0308619Y0112500D01*
X0308619Y0122358D01*
X0305034Y0122358D01*
X0305050Y0125000D01*
X0305788Y0125604D01*
X0306060Y0125331D01*
X0306402Y0125134D01*
X0306784Y0125031D01*
X0308662Y0125031D01*
X0308662Y0127250D01*
X0309631Y0127250D01*
X0309631Y0125031D01*
X0311509Y0125031D01*
X0311891Y0125134D01*
X0312233Y0125331D01*
X0312512Y0125610D01*
X0312710Y0125953D01*
X0312812Y0126334D01*
X0312812Y0127250D01*
X0317300Y0127250D01*
X0322550Y0122000D01*
X0322550Y0081250D01*
X0317550Y0076250D01*
X0306550Y0076250D01*
X0288550Y0058250D01*
X0282050Y0058250D01*
X0281050Y0057250D01*
X0281050Y0053500D01*
X0280300Y0052750D01*
X0278550Y0052750D01*
X0277550Y0053750D01*
X0277550Y0057750D01*
X0304355Y0083817D01*
X0304355Y0079322D01*
X0304488Y0078887D02*
X0299285Y0078887D01*
X0298258Y0077888D02*
X0319188Y0077888D01*
X0318079Y0078599D02*
X0318277Y0078941D01*
X0318379Y0079322D01*
X0318379Y0086500D01*
X0311867Y0086500D01*
X0311867Y0078020D01*
X0317076Y0078020D01*
X0317458Y0078122D01*
X0317800Y0078319D01*
X0318079Y0078599D01*
X0318245Y0078887D02*
X0320187Y0078887D01*
X0321185Y0079885D02*
X0318379Y0079885D01*
X0318379Y0080884D02*
X0322184Y0080884D01*
X0322550Y0081882D02*
X0318379Y0081882D01*
X0318379Y0082881D02*
X0322550Y0082881D01*
X0322550Y0083879D02*
X0318379Y0083879D01*
X0318379Y0084878D02*
X0322550Y0084878D01*
X0322550Y0085876D02*
X0318379Y0085876D01*
X0318379Y0087873D02*
X0322550Y0087873D01*
X0322550Y0086875D02*
X0311867Y0086875D01*
X0311867Y0087873D02*
X0310867Y0087873D01*
X0310867Y0088872D02*
X0311867Y0088872D01*
X0311867Y0089870D02*
X0310867Y0089870D01*
X0310867Y0090869D02*
X0311867Y0090869D01*
X0311867Y0091868D02*
X0310867Y0091868D01*
X0310867Y0092866D02*
X0311867Y0092866D01*
X0311867Y0093865D02*
X0310867Y0093865D01*
X0310867Y0094863D02*
X0311867Y0094863D01*
X0311867Y0095862D02*
X0310867Y0095862D01*
X0309619Y0101642D02*
X0313746Y0101642D01*
X0314127Y0101744D01*
X0314469Y0101941D01*
X0314748Y0102221D01*
X0314946Y0102563D01*
X0315048Y0102944D01*
X0315048Y0111500D01*
X0309619Y0111500D01*
X0309619Y0101642D01*
X0309619Y0101853D02*
X0308619Y0101853D01*
X0308619Y0102851D02*
X0309619Y0102851D01*
X0309619Y0103850D02*
X0308619Y0103850D01*
X0308619Y0104848D02*
X0309619Y0104848D01*
X0309619Y0105847D02*
X0308619Y0105847D01*
X0308619Y0106845D02*
X0309619Y0106845D01*
X0309619Y0107844D02*
X0308619Y0107844D01*
X0308619Y0108842D02*
X0309619Y0108842D01*
X0309619Y0109841D02*
X0308619Y0109841D01*
X0308619Y0110839D02*
X0309619Y0110839D01*
X0309619Y0111838D02*
X0322550Y0111838D01*
X0322550Y0112836D02*
X0315048Y0112836D01*
X0315048Y0113835D02*
X0322550Y0113835D01*
X0322550Y0114833D02*
X0315048Y0114833D01*
X0315048Y0115832D02*
X0322550Y0115832D01*
X0322550Y0116830D02*
X0315048Y0116830D01*
X0315048Y0117829D02*
X0322550Y0117829D01*
X0322550Y0118827D02*
X0315048Y0118827D01*
X0315048Y0119826D02*
X0322550Y0119826D01*
X0322550Y0120824D02*
X0315048Y0120824D01*
X0314705Y0121823D02*
X0322550Y0121823D01*
X0321729Y0122821D02*
X0305037Y0122821D01*
X0305043Y0123820D02*
X0320730Y0123820D01*
X0319732Y0124818D02*
X0305049Y0124818D01*
X0308662Y0125817D02*
X0309631Y0125817D01*
X0309631Y0126815D02*
X0308662Y0126815D01*
X0312631Y0125817D02*
X0318733Y0125817D01*
X0317735Y0126815D02*
X0312812Y0126815D01*
X0309619Y0121823D02*
X0308619Y0121823D01*
X0308619Y0120824D02*
X0309619Y0120824D01*
X0309619Y0119826D02*
X0308619Y0119826D01*
X0308619Y0118827D02*
X0309619Y0118827D01*
X0309619Y0117829D02*
X0308619Y0117829D01*
X0308619Y0116830D02*
X0309619Y0116830D01*
X0309619Y0115832D02*
X0308619Y0115832D01*
X0308619Y0114833D02*
X0309619Y0114833D01*
X0309619Y0113835D02*
X0308619Y0113835D01*
X0308619Y0112836D02*
X0309619Y0112836D01*
X0315048Y0110839D02*
X0322550Y0110839D01*
X0322550Y0109841D02*
X0315048Y0109841D01*
X0315048Y0108842D02*
X0322550Y0108842D01*
X0322550Y0107844D02*
X0315048Y0107844D01*
X0315048Y0106845D02*
X0322550Y0106845D01*
X0322550Y0105847D02*
X0315048Y0105847D01*
X0315048Y0104848D02*
X0322550Y0104848D01*
X0322550Y0103850D02*
X0315048Y0103850D01*
X0315023Y0102851D02*
X0322550Y0102851D01*
X0322550Y0101853D02*
X0314315Y0101853D01*
X0317486Y0095862D02*
X0322550Y0095862D01*
X0322550Y0096860D02*
X0304877Y0096860D01*
X0304871Y0095862D02*
X0305248Y0095862D01*
X0304883Y0097859D02*
X0322550Y0097859D01*
X0322550Y0098857D02*
X0304890Y0098857D01*
X0304896Y0099856D02*
X0322550Y0099856D01*
X0322550Y0100854D02*
X0304902Y0100854D01*
X0318329Y0094863D02*
X0322550Y0094863D01*
X0322550Y0093865D02*
X0318379Y0093865D01*
X0318379Y0092866D02*
X0322550Y0092866D01*
X0322550Y0091868D02*
X0318379Y0091868D01*
X0318379Y0090869D02*
X0322550Y0090869D01*
X0322550Y0089870D02*
X0318379Y0089870D01*
X0318379Y0088872D02*
X0322550Y0088872D01*
X0311867Y0085876D02*
X0310867Y0085876D01*
X0310867Y0084878D02*
X0311867Y0084878D01*
X0311867Y0083879D02*
X0310867Y0083879D01*
X0310867Y0082881D02*
X0311867Y0082881D01*
X0311867Y0081882D02*
X0310867Y0081882D01*
X0310867Y0080884D02*
X0311867Y0080884D01*
X0311867Y0079885D02*
X0310867Y0079885D01*
X0310867Y0078887D02*
X0311867Y0078887D01*
X0318190Y0076890D02*
X0297232Y0076890D01*
X0296205Y0075891D02*
X0306191Y0075891D01*
X0305193Y0074893D02*
X0295178Y0074893D01*
X0294151Y0073894D02*
X0304194Y0073894D01*
X0303196Y0072896D02*
X0293124Y0072896D01*
X0292098Y0071897D02*
X0302197Y0071897D01*
X0301199Y0070899D02*
X0291071Y0070899D01*
X0290044Y0069900D02*
X0300200Y0069900D01*
X0299202Y0068902D02*
X0289017Y0068902D01*
X0287991Y0067903D02*
X0298203Y0067903D01*
X0297205Y0066905D02*
X0286964Y0066905D01*
X0285937Y0065906D02*
X0296206Y0065906D01*
X0295208Y0064908D02*
X0284910Y0064908D01*
X0283884Y0063909D02*
X0294209Y0063909D01*
X0293211Y0062911D02*
X0282857Y0062911D01*
X0281830Y0061912D02*
X0292212Y0061912D01*
X0291214Y0060914D02*
X0280803Y0060914D01*
X0279776Y0059915D02*
X0290215Y0059915D01*
X0289217Y0058917D02*
X0278750Y0058917D01*
X0277723Y0057918D02*
X0281718Y0057918D01*
X0281050Y0056920D02*
X0277550Y0056920D01*
X0277550Y0055921D02*
X0281050Y0055921D01*
X0281050Y0054923D02*
X0277550Y0054923D01*
X0277550Y0053924D02*
X0281050Y0053924D01*
X0280476Y0052926D02*
X0278374Y0052926D01*
X0301339Y0080884D02*
X0304355Y0080884D01*
X0304355Y0081882D02*
X0302365Y0081882D01*
X0303392Y0082881D02*
X0304355Y0082881D01*
X0332800Y0149010D02*
X0334800Y0149010D01*
X0339540Y0149010D01*
X0332800Y0156490D02*
X0332540Y0156750D01*
X0332540Y0161760D01*
X0328300Y0166000D01*
X0315800Y0166000D01*
X0313550Y0168250D01*
X0325790Y0172500D02*
X0325790Y0181250D01*
X0333969Y0181250D01*
X0335300Y0182581D01*
X0331800Y0187831D01*
X0331550Y0188000D01*
D58*
X0333050Y0156740D02*
X0332800Y0156490D01*
X0333050Y0156740D02*
X0341550Y0156740D01*
X0341550Y0149260D02*
X0335050Y0149260D01*
X0334800Y0149010D01*
X0259800Y0200250D02*
X0259800Y0228750D01*
X0250050Y0234250D02*
X0250050Y0261750D01*
X0250050Y0264750D01*
X0219540Y0234510D02*
X0219540Y0230250D01*
X0219540Y0234510D02*
X0219050Y0235000D01*
X0218800Y0235000D01*
X0218550Y0235250D01*
X0205300Y0235250D01*
X0205050Y0235000D01*
X0205050Y0201500D02*
X0202800Y0201500D01*
X0173050Y0187937D02*
X0164300Y0187937D01*
X0159863Y0187937D01*
X0159800Y0188000D01*
X0153560Y0194240D01*
X0146300Y0194260D01*
X0139810Y0194240D01*
X0139800Y0194250D01*
X0138050Y0194250D01*
X0135300Y0191500D01*
X0128550Y0191500D01*
X0128550Y0196500D02*
X0123300Y0196500D01*
X0121550Y0194750D01*
X0121550Y0187500D01*
X0122550Y0186500D01*
X0128550Y0186500D01*
X0128550Y0181500D01*
X0128550Y0176500D01*
X0128550Y0171500D02*
X0150810Y0171500D01*
X0145060Y0166500D02*
X0150560Y0161000D01*
X0145060Y0166500D02*
X0128550Y0166500D01*
X0128550Y0161500D02*
X0135800Y0161500D01*
X0141050Y0156250D01*
X0151794Y0136179D02*
X0166621Y0136179D01*
X0167800Y0135000D01*
X0173060Y0129882D02*
X0172550Y0129372D01*
X0172550Y0124750D01*
X0171800Y0124000D01*
X0167050Y0124000D01*
X0162550Y0119500D01*
X0162550Y0117750D01*
X0157121Y0112321D01*
X0151755Y0112321D01*
X0151755Y0124250D02*
X0158800Y0124250D01*
X0112300Y0096000D02*
X0105550Y0096000D01*
X0104300Y0097250D01*
X0104300Y0086000D02*
X0112300Y0086000D01*
X0104300Y0086000D02*
X0092800Y0074500D01*
X0086300Y0074500D01*
X0082709Y0074500D01*
X0082040Y0073831D01*
X0074560Y0073831D02*
X0074300Y0074091D01*
X0074300Y0079500D01*
X0069300Y0084500D01*
X0046300Y0084500D01*
X0040954Y0089846D01*
X0037300Y0089846D01*
X0036796Y0089343D01*
X0020721Y0089343D01*
X0020629Y0089250D02*
X0031800Y0089250D01*
X0032300Y0088750D01*
X0032300Y0077750D01*
X0037300Y0077500D02*
X0037300Y0071846D01*
X0037300Y0077500D02*
X0048788Y0077500D01*
X0059812Y0078012D02*
X0065812Y0078012D01*
X0066300Y0078500D01*
X0069300Y0072500D02*
X0073229Y0072500D01*
X0074560Y0073831D01*
X0069300Y0072500D02*
X0066300Y0069500D01*
X0066300Y0060500D01*
X0068300Y0058500D01*
X0087300Y0058500D01*
X0087300Y0058750D01*
X0089300Y0060750D01*
X0089300Y0066250D01*
X0092550Y0069500D01*
X0097550Y0069500D01*
X0103800Y0075750D01*
X0112050Y0075750D01*
X0112300Y0076000D01*
X0112300Y0066000D02*
X0107050Y0066000D01*
X0101300Y0060250D01*
X0097704Y0060250D01*
X0097550Y0060096D01*
X0097050Y0060596D01*
X0097050Y0063000D01*
X0097550Y0053404D02*
X0097550Y0048000D01*
X0078300Y0051012D02*
X0072812Y0051012D01*
X0072300Y0050500D01*
X0069300Y0040500D02*
X0077788Y0040500D01*
X0078300Y0039988D01*
X0069300Y0040500D02*
X0057300Y0052500D01*
X0029300Y0052500D01*
X0036883Y0064736D02*
X0020721Y0064736D01*
X0011064Y0064736D01*
X0008550Y0067250D01*
X0008550Y0094000D01*
X0009050Y0094500D01*
X0005050Y0097750D02*
X0005050Y0060500D01*
X0005800Y0059750D01*
X0007050Y0059750D01*
X0020721Y0069657D02*
X0025457Y0069657D01*
X0027300Y0071500D01*
X0029300Y0069500D01*
X0027300Y0071500D02*
X0027300Y0078500D01*
X0026300Y0079500D01*
X0020721Y0079500D01*
X0020471Y0079750D01*
X0014050Y0079750D01*
X0012300Y0079750D01*
X0012050Y0080000D01*
X0012050Y0088750D01*
X0012550Y0089250D01*
X0014050Y0089250D01*
X0019536Y0099500D02*
X0020721Y0099185D01*
X0023036Y0101500D01*
X0023300Y0101500D02*
X0023300Y0117500D01*
X0025812Y0120012D01*
X0032300Y0120012D01*
X0039166Y0120012D01*
X0039560Y0119618D01*
X0047300Y0112500D02*
X0047925Y0113125D01*
X0051646Y0116846D01*
X0054300Y0116846D01*
X0061355Y0123902D01*
X0069300Y0123902D01*
X0083918Y0123902D01*
X0083820Y0112500D01*
X0084070Y0123750D01*
X0084070Y0136250D01*
X0099030Y0136250D02*
X0107235Y0136250D01*
X0107306Y0136179D01*
X0107017Y0124500D02*
X0102050Y0124500D01*
X0107017Y0124500D02*
X0107267Y0124250D01*
X0107166Y0112500D02*
X0098780Y0112500D01*
X0107166Y0112500D02*
X0107267Y0112400D01*
X0087800Y0089500D02*
X0091550Y0085750D01*
X0087800Y0089500D02*
X0048300Y0089500D01*
X0040300Y0097500D01*
X0028300Y0097500D01*
X0028050Y0097500D01*
X0025550Y0100000D01*
X0021550Y0100000D01*
X0020800Y0099250D01*
X0006550Y0099250D01*
X0005050Y0097750D01*
X0020721Y0099185D02*
X0021536Y0100000D01*
X0021550Y0100000D01*
X0025550Y0100000D02*
X0025800Y0100000D01*
X0028300Y0097500D01*
X0037300Y0083154D02*
X0037300Y0077500D01*
X0037300Y0065154D02*
X0059954Y0065154D01*
X0061300Y0066500D01*
X0037300Y0065154D02*
X0036883Y0064736D01*
X0147300Y0066000D02*
X0157800Y0066000D01*
X0213800Y0159116D02*
X0215184Y0159116D01*
X0220050Y0159000D01*
X0164300Y0177510D02*
X0164300Y0180063D01*
X0145810Y0201250D02*
X0146300Y0201740D01*
X0145810Y0201250D02*
X0135300Y0201250D01*
X0134300Y0200250D01*
X0134300Y0198500D01*
X0132300Y0196500D01*
X0128550Y0196500D01*
X0166396Y0274904D02*
X0167800Y0274904D01*
X0327406Y0315000D02*
X0335800Y0311000D01*
X0331343Y0315000D02*
X0327406Y0315000D01*
X0279800Y0059250D02*
X0279800Y0054000D01*
D59*
X0240800Y0066250D02*
X0240050Y0066250D01*
X0202800Y0103000D02*
X0201300Y0103000D01*
X0186800Y0103000D01*
X0185300Y0101500D01*
X0181060Y0105740D01*
X0168800Y0105740D01*
X0159540Y0105750D01*
X0158800Y0106500D01*
X0181060Y0105740D02*
X0182288Y0106969D01*
X0182288Y0116000D01*
X0185300Y0101500D02*
X0181800Y0098000D01*
X0181800Y0089000D01*
X0158800Y0066000D01*
X0157800Y0066000D01*
X0159800Y0064000D01*
X0159800Y0043346D01*
X0164454Y0043346D01*
X0166800Y0041000D01*
X0176800Y0041000D01*
X0202800Y0103000D02*
X0203425Y0103625D01*
X0211800Y0112000D01*
X0220800Y0112000D01*
X0220300Y0112500D01*
X0220300Y0119260D01*
X0220800Y0112000D02*
X0231312Y0112000D01*
X0236800Y0106512D01*
X0205300Y0153250D02*
X0205050Y0153250D01*
X0205050Y0200000D02*
X0205050Y0201500D01*
X0202800Y0258596D02*
X0201800Y0259596D01*
X0200550Y0259596D01*
X0195454Y0259596D01*
X0194800Y0260250D01*
X0194800Y0261250D01*
X0192800Y0263250D01*
X0192800Y0267000D01*
X0192800Y0274250D01*
X0192800Y0277250D01*
X0192800Y0278250D01*
X0192800Y0279000D01*
X0192800Y0280250D01*
X0192800Y0281250D01*
X0192800Y0282250D01*
X0189454Y0289250D02*
X0185550Y0289250D01*
X0184050Y0290750D01*
X0184050Y0306000D01*
X0187550Y0309500D01*
X0187550Y0312939D01*
X0188111Y0313500D01*
X0187550Y0313500D02*
X0187300Y0313750D01*
X0177800Y0315000D02*
X0177300Y0315000D01*
X0174050Y0311750D01*
X0191493Y0259596D02*
X0195454Y0259596D01*
X0201800Y0259596D02*
X0208800Y0259596D01*
X0321550Y0308500D02*
X0321550Y0315000D01*
X0321550Y0308500D02*
X0323800Y0305000D01*
X0338050Y0305000D01*
X0339550Y0303500D01*
X0339550Y0290000D01*
X0339631Y0290000D01*
X0339550Y0289919D01*
X0339550Y0284750D01*
X0339550Y0231500D01*
X0339550Y0225000D01*
X0339550Y0224000D01*
X0338721Y0222329D02*
X0339550Y0221500D01*
X0339550Y0220250D01*
X0339550Y0218657D01*
X0338721Y0217829D01*
X0339550Y0220250D02*
X0346800Y0213000D01*
X0346800Y0209750D01*
X0351300Y0209510D02*
X0351300Y0214250D01*
X0353050Y0216000D01*
X0365300Y0216000D01*
X0365550Y0215750D01*
X0365550Y0214000D01*
X0365550Y0173500D01*
X0365550Y0155750D01*
X0361300Y0151500D01*
X0353300Y0151500D01*
X0348300Y0146500D01*
X0348300Y0141500D01*
X0342800Y0136000D01*
X0305050Y0136000D01*
X0304300Y0136750D01*
X0365550Y0155500D02*
X0365550Y0155750D01*
D60*
X0365550Y0214000D02*
X0367050Y0215500D01*
X0373050Y0215500D01*
X0254550Y0104750D02*
X0254550Y0103500D01*
X0245800Y0103750D02*
X0245550Y0103500D01*
X0245550Y0102750D01*
X0246800Y0057402D02*
X0243050Y0053652D01*
X0243050Y0048250D01*
X0193300Y0280750D02*
X0188800Y0285250D01*
X0188800Y0288596D01*
X0181737Y0315000D02*
X0177800Y0315000D01*
D61*
X0200550Y0259596D02*
X0199050Y0258096D01*
X0199050Y0239500D01*
X0201550Y0237000D01*
X0203050Y0237000D01*
X0205050Y0235000D01*
X0205050Y0200000D01*
X0205050Y0194500D01*
X0205050Y0191500D01*
X0205050Y0153500D01*
X0205300Y0153250D01*
X0205550Y0153250D02*
X0210550Y0148250D01*
X0210800Y0148250D01*
X0222550Y0136500D01*
X0236550Y0136500D01*
X0236800Y0136750D01*
X0205550Y0153250D02*
X0205050Y0153250D01*
X0240800Y0066250D02*
X0246550Y0066250D01*
X0275300Y0066250D01*
X0335550Y0081250D02*
X0337800Y0083500D01*
X0338050Y0119750D01*
X0341050Y0123750D01*
X0363550Y0123750D01*
X0376300Y0117000D01*
X0379867Y0111000D01*
X0386867Y0118000D01*
X0386867Y0136750D01*
X0350733Y0111000D02*
X0350733Y0095699D01*
X0355550Y0089132D01*
X0366550Y0084750D02*
X0366550Y0069577D01*
X0365973Y0069000D01*
X0366550Y0084750D02*
X0372532Y0090732D01*
X0372282Y0089132D01*
D62*
X0302454Y0128500D02*
X0300454Y0130500D01*
X0292050Y0130500D01*
X0262300Y0115250D02*
X0262050Y0115500D01*
X0262050Y0130500D01*
X0205050Y0194500D02*
X0205989Y0195439D01*
X0211800Y0195439D01*
X0292800Y0252500D02*
X0297050Y0248250D01*
X0309050Y0248250D01*
X0313800Y0253000D01*
X0313800Y0263750D01*
X0315300Y0265250D01*
X0337800Y0265250D01*
X0338800Y0264250D01*
X0292800Y0253750D02*
X0292800Y0252500D01*
X0346800Y0209750D02*
X0347300Y0209500D01*
X0351310Y0209500D01*
M02*
