G75*
%MOIN*%
%OFA0B0*%
%FSLAX25Y25*%
%IPPOS*%
%LPD*%
%AMOC8*
5,1,8,0,0,1.08239X$1,22.5*
%
%ADD10R,0.06706X0.05918*%
%ADD11R,0.11824X0.10249*%
%ADD12R,0.04737X0.05131*%
%ADD13R,0.07099X0.07887*%
%ADD14R,0.07887X0.07099*%
%ADD15R,0.05131X0.04737*%
%ADD16C,0.06400*%
%ADD17OC8,0.06400*%
%ADD18R,0.06312X0.06312*%
%ADD19C,0.06000*%
%ADD20R,0.11824X0.15761*%
%ADD21R,0.08674X0.16154*%
%ADD22C,0.13398*%
%ADD23R,0.09461X0.03162*%
%ADD24R,0.12375X0.14894*%
%ADD25R,0.04331X0.01969*%
%ADD26R,0.04700X0.02000*%
%ADD27R,0.06400X0.06400*%
%ADD28C,0.10400*%
%ADD29C,0.13600*%
%ADD30R,0.09658X0.18517*%
%ADD31R,0.06706X0.04737*%
%ADD32R,0.08300X0.04800*%
%ADD33R,0.02965X0.05524*%
%ADD34R,0.04343X0.04343*%
%ADD35R,0.04737X0.06312*%
%ADD36R,0.04300X0.02001*%
%ADD37R,0.05918X0.03950*%
%ADD38R,0.12611X0.09068*%
%ADD39R,0.03162X0.07493*%
%ADD40R,0.04737X0.11430*%
%ADD41R,0.09068X0.09068*%
%ADD42C,0.12611*%
%ADD43R,0.05918X0.04934*%
%ADD44R,0.01981X0.05524*%
%ADD45R,0.05524X0.01981*%
%ADD46R,0.05524X0.05524*%
%ADD47R,0.05918X0.06706*%
%ADD48R,0.05524X0.04737*%
%ADD49R,0.04737X0.05524*%
%ADD50R,0.04737X0.08674*%
%ADD51R,0.04737X0.04737*%
%ADD52R,0.08600X0.03000*%
%ADD53C,0.04343*%
%ADD54R,0.03162X0.08674*%
%ADD55R,0.08674X0.10643*%
%ADD56C,0.03950*%
%ADD57OC8,0.09300*%
%ADD58R,0.04762X0.04762*%
D10*
X0073800Y0157510D03*
X0073800Y0164990D03*
X0146300Y0194260D03*
X0146300Y0201740D03*
X0195550Y0191740D03*
X0195550Y0184260D03*
X0213800Y0184240D03*
X0213800Y0176760D03*
X0261800Y0158740D03*
X0261800Y0151260D03*
X0220300Y0126740D03*
X0220300Y0119260D03*
X0168800Y0105740D03*
X0168800Y0098260D03*
X0332800Y0149010D03*
X0332800Y0156490D03*
X0341550Y0156740D03*
X0341550Y0149260D03*
X0350550Y0192760D03*
X0350550Y0200240D03*
X0359050Y0200240D03*
X0359050Y0192760D03*
X0331550Y0209760D03*
X0331550Y0217240D03*
X0359550Y0226510D03*
X0359550Y0233990D03*
D11*
X0250800Y0114402D03*
X0250800Y0089598D03*
X0246800Y0057402D03*
X0246800Y0032598D03*
X0069300Y0099098D03*
X0069300Y0123902D03*
D12*
X0054300Y0116846D03*
X0054300Y0110154D03*
X0097550Y0060096D03*
X0097550Y0053404D03*
X0159800Y0043346D03*
X0159800Y0036654D03*
X0211800Y0033654D03*
X0211800Y0040346D03*
X0220800Y0040346D03*
X0220800Y0033654D03*
X0220800Y0049654D03*
X0220800Y0056346D03*
X0211800Y0056346D03*
X0211800Y0049654D03*
X0273800Y0040346D03*
X0273800Y0033654D03*
X0312300Y0061904D03*
X0312300Y0068596D03*
X0321454Y0068000D03*
X0328146Y0068000D03*
X0328146Y0059000D03*
X0321454Y0059000D03*
X0334454Y0050250D03*
X0341146Y0050250D03*
X0197646Y0236750D03*
X0190954Y0236750D03*
X0208800Y0252904D03*
X0208800Y0259596D03*
X0191146Y0258500D03*
X0184454Y0258500D03*
X0189454Y0289250D03*
X0196146Y0289250D03*
X0209800Y0286096D03*
X0209800Y0279404D03*
D13*
X0286538Y0155750D03*
X0297562Y0155750D03*
X0297562Y0146500D03*
X0286538Y0146500D03*
X0193312Y0116000D03*
X0182288Y0116000D03*
X0059812Y0077500D03*
X0048788Y0077500D03*
X0070788Y0303000D03*
X0081812Y0303000D03*
D14*
X0032300Y0120012D03*
X0032300Y0108988D03*
X0078300Y0051012D03*
X0078300Y0039988D03*
X0236800Y0095488D03*
X0236800Y0106512D03*
X0259800Y0051512D03*
X0259800Y0040488D03*
D15*
X0321454Y0041000D03*
X0328146Y0041000D03*
X0328146Y0032000D03*
X0321454Y0032000D03*
X0321454Y0050000D03*
X0328146Y0050000D03*
X0309146Y0128500D03*
X0302454Y0128500D03*
X0183800Y0244904D03*
X0183800Y0251596D03*
X0173800Y0251596D03*
X0173800Y0244904D03*
X0167800Y0274904D03*
X0167800Y0281596D03*
X0037300Y0089846D03*
X0037300Y0083154D03*
X0037300Y0071846D03*
X0037300Y0065154D03*
D16*
X0080050Y0230000D03*
X0070050Y0235000D03*
X0070050Y0245000D03*
X0080050Y0240000D03*
X0080050Y0250000D03*
X0070050Y0255000D03*
X0080050Y0260000D03*
X0383050Y0239000D03*
X0382800Y0166250D03*
D17*
X0372800Y0166250D03*
X0372800Y0176250D03*
X0372800Y0186250D03*
X0382800Y0186250D03*
X0382800Y0176250D03*
X0382800Y0196250D03*
X0382800Y0206250D03*
X0372800Y0206250D03*
X0372800Y0196250D03*
X0373050Y0239000D03*
X0373050Y0249000D03*
X0383050Y0249000D03*
X0383050Y0259000D03*
X0373050Y0259000D03*
D18*
X0099030Y0136250D03*
X0084070Y0136250D03*
X0083820Y0112500D03*
X0098780Y0112500D03*
D19*
X0259450Y0130500D02*
X0264650Y0130500D01*
X0289450Y0130500D02*
X0294650Y0130500D01*
D20*
X0282233Y0087000D03*
X0311367Y0087000D03*
X0350733Y0111000D03*
X0357733Y0136750D03*
X0386867Y0136750D03*
X0379867Y0111000D03*
D21*
X0372282Y0089132D03*
X0355550Y0089132D03*
D22*
X0026800Y0028000D03*
X0026550Y0371250D03*
X0370550Y0371500D03*
X0371800Y0028000D03*
D23*
X0147300Y0066000D03*
X0147300Y0076000D03*
X0147300Y0086000D03*
X0147300Y0096000D03*
X0112300Y0096000D03*
X0112300Y0086000D03*
X0112300Y0076000D03*
X0112300Y0066000D03*
D24*
X0295800Y0047000D03*
D25*
X0284875Y0045720D03*
X0284875Y0043161D03*
X0284875Y0040602D03*
X0284875Y0038043D03*
X0284875Y0048280D03*
X0284875Y0050839D03*
X0284875Y0053398D03*
X0284875Y0055957D03*
X0306725Y0055957D03*
X0306725Y0053398D03*
X0306725Y0050839D03*
X0306725Y0048280D03*
X0306725Y0045720D03*
X0306725Y0043161D03*
X0306725Y0040602D03*
X0306725Y0038043D03*
D26*
X0199287Y0044043D03*
X0199287Y0046602D03*
X0199287Y0049161D03*
X0199287Y0051720D03*
X0199287Y0054280D03*
X0199287Y0056839D03*
X0199287Y0059398D03*
X0199287Y0061957D03*
X0176313Y0061957D03*
X0176313Y0059398D03*
X0176313Y0056839D03*
X0176313Y0054280D03*
X0176313Y0051720D03*
X0176313Y0049161D03*
X0176313Y0046602D03*
X0176313Y0044043D03*
D27*
X0070050Y0265000D03*
D28*
X0057050Y0278500D03*
X0057050Y0216500D03*
D29*
X0045050Y0225000D03*
X0045050Y0270000D03*
D30*
X0282481Y0112000D03*
X0309119Y0112000D03*
D31*
X0110300Y0296750D03*
X0110300Y0308750D03*
X0092300Y0308750D03*
X0092300Y0296750D03*
D32*
X0057550Y0298000D03*
X0057550Y0308000D03*
X0057550Y0318000D03*
X0024550Y0318000D03*
X0024550Y0308000D03*
X0024550Y0298000D03*
D33*
X0173060Y0140118D03*
X0180540Y0140118D03*
X0180540Y0129882D03*
X0176800Y0129882D03*
X0173060Y0129882D03*
X0047040Y0119618D03*
X0039560Y0119618D03*
X0039560Y0109382D03*
X0043300Y0109382D03*
X0047040Y0109382D03*
D34*
X0107267Y0112400D03*
X0107267Y0124250D03*
X0107306Y0136179D03*
X0151794Y0136179D03*
X0151755Y0124250D03*
X0151755Y0112321D03*
D35*
X0082040Y0073831D03*
X0074560Y0073831D03*
X0078300Y0065169D03*
D36*
X0184265Y0267250D03*
X0184265Y0269219D03*
X0184265Y0271187D03*
X0184265Y0273156D03*
X0184265Y0275124D03*
X0184265Y0277093D03*
X0184265Y0279061D03*
X0184265Y0281030D03*
X0200800Y0281030D03*
X0200800Y0279061D03*
X0200800Y0277093D03*
X0200800Y0275124D03*
X0200800Y0273156D03*
X0200800Y0271187D03*
X0200800Y0269219D03*
X0200800Y0267250D03*
D37*
X0020721Y0099185D03*
X0020721Y0094264D03*
X0020721Y0089343D03*
X0020721Y0084421D03*
X0020721Y0079500D03*
X0020721Y0074579D03*
X0020721Y0069657D03*
X0020721Y0064736D03*
X0020721Y0059815D03*
D38*
X0009894Y0049776D03*
X0009894Y0109224D03*
D39*
X0181957Y0024913D03*
X0186879Y0024913D03*
X0191800Y0024913D03*
X0196721Y0024913D03*
X0201643Y0024913D03*
D40*
X0208926Y0011921D03*
X0174674Y0011921D03*
D41*
X0365973Y0069000D03*
X0387627Y0069000D03*
D42*
X0385816Y0050496D03*
X0385816Y0087504D03*
D43*
X0322828Y0146608D03*
X0322828Y0153892D03*
X0313772Y0153892D03*
X0313772Y0146608D03*
D44*
X0310999Y0184730D03*
X0309030Y0184730D03*
X0307062Y0184730D03*
X0305093Y0184730D03*
X0303125Y0184730D03*
X0301156Y0184730D03*
X0299188Y0184730D03*
X0297219Y0184730D03*
X0295251Y0184730D03*
X0293282Y0184730D03*
X0291314Y0184730D03*
X0289345Y0184730D03*
X0287377Y0184730D03*
X0285408Y0184730D03*
X0283440Y0184730D03*
X0281471Y0184730D03*
X0279503Y0184730D03*
X0277534Y0184730D03*
X0275566Y0184730D03*
X0273597Y0184730D03*
X0271629Y0184730D03*
X0269660Y0184730D03*
X0267692Y0184730D03*
X0265723Y0184730D03*
X0263755Y0184730D03*
X0261786Y0184730D03*
X0259818Y0184730D03*
X0257849Y0184730D03*
X0255881Y0184730D03*
X0253912Y0184730D03*
X0251944Y0184730D03*
X0249975Y0184730D03*
X0248007Y0184730D03*
X0246038Y0184730D03*
X0244070Y0184730D03*
X0242101Y0184730D03*
X0242101Y0269770D03*
X0244070Y0269770D03*
X0246038Y0269770D03*
X0248007Y0269770D03*
X0249975Y0269770D03*
X0251944Y0269770D03*
X0253912Y0269770D03*
X0255881Y0269770D03*
X0257849Y0269770D03*
X0259818Y0269770D03*
X0261786Y0269770D03*
X0263755Y0269770D03*
X0265723Y0269770D03*
X0267692Y0269770D03*
X0269660Y0269770D03*
X0271629Y0269770D03*
X0273597Y0269770D03*
X0275566Y0269770D03*
X0277534Y0269770D03*
X0279503Y0269770D03*
X0281471Y0269770D03*
X0283440Y0269770D03*
X0285408Y0269770D03*
X0287377Y0269770D03*
X0289345Y0269770D03*
X0291314Y0269770D03*
X0293282Y0269770D03*
X0295251Y0269770D03*
X0297219Y0269770D03*
X0299188Y0269770D03*
X0301156Y0269770D03*
X0303125Y0269770D03*
X0305093Y0269770D03*
X0307062Y0269770D03*
X0309030Y0269770D03*
X0310999Y0269770D03*
D45*
X0319070Y0261699D03*
X0319070Y0259730D03*
X0319070Y0257762D03*
X0319070Y0255793D03*
X0319070Y0253825D03*
X0319070Y0251856D03*
X0319070Y0249888D03*
X0319070Y0247919D03*
X0319070Y0245951D03*
X0319070Y0243982D03*
X0319070Y0242014D03*
X0319070Y0240045D03*
X0319070Y0238077D03*
X0319070Y0236108D03*
X0319070Y0234140D03*
X0319070Y0232171D03*
X0319070Y0230203D03*
X0319070Y0228234D03*
X0319070Y0226266D03*
X0319070Y0224297D03*
X0319070Y0222329D03*
X0319070Y0220360D03*
X0319070Y0218392D03*
X0319070Y0216423D03*
X0319070Y0214455D03*
X0319070Y0212486D03*
X0319070Y0210518D03*
X0319070Y0208549D03*
X0319070Y0206581D03*
X0319070Y0204612D03*
X0319070Y0202644D03*
X0319070Y0200675D03*
X0319070Y0198707D03*
X0319070Y0196738D03*
X0319070Y0194770D03*
X0319070Y0192801D03*
X0234030Y0192801D03*
X0234030Y0194770D03*
X0234030Y0196738D03*
X0234030Y0198707D03*
X0234030Y0200675D03*
X0234030Y0202644D03*
X0234030Y0204612D03*
X0234030Y0206581D03*
X0234030Y0208549D03*
X0234030Y0210518D03*
X0234030Y0212486D03*
X0234030Y0214455D03*
X0234030Y0216423D03*
X0234030Y0218392D03*
X0234030Y0220360D03*
X0234030Y0222329D03*
X0234030Y0224297D03*
X0234030Y0226266D03*
X0234030Y0228234D03*
X0234030Y0230203D03*
X0234030Y0232171D03*
X0234030Y0234140D03*
X0234030Y0236108D03*
X0234030Y0238077D03*
X0234030Y0240045D03*
X0234030Y0242014D03*
X0234030Y0243982D03*
X0234030Y0245951D03*
X0234030Y0247919D03*
X0234030Y0249888D03*
X0234030Y0251856D03*
X0234030Y0253825D03*
X0234030Y0255793D03*
X0234030Y0257762D03*
X0234030Y0259730D03*
X0234030Y0261699D03*
D46*
X0195300Y0174884D03*
X0195300Y0166616D03*
X0213800Y0167384D03*
X0213800Y0159116D03*
X0164800Y0020134D03*
X0156550Y0020134D03*
X0156550Y0011866D03*
X0164800Y0011866D03*
D47*
X0149290Y0049000D03*
X0141810Y0049000D03*
X0141810Y0057500D03*
X0149290Y0057500D03*
X0150560Y0161000D03*
X0158040Y0161000D03*
X0158290Y0171500D03*
X0150810Y0171500D03*
X0212060Y0230250D03*
X0219540Y0230250D03*
X0233060Y0279250D03*
X0240540Y0279250D03*
X0313810Y0280750D03*
X0321290Y0280750D03*
X0323540Y0288750D03*
X0316060Y0288750D03*
X0340060Y0242250D03*
X0347540Y0242250D03*
X0347540Y0233750D03*
X0340060Y0233750D03*
X0340060Y0225000D03*
X0347540Y0225000D03*
X0351310Y0209500D03*
X0358790Y0209500D03*
X0325790Y0181250D03*
X0318310Y0181250D03*
X0318310Y0172500D03*
X0325790Y0172500D03*
X0062290Y0165500D03*
X0054810Y0165500D03*
X0054810Y0182250D03*
X0062290Y0182250D03*
D48*
X0330969Y0290000D03*
X0339631Y0290000D03*
D49*
X0335300Y0182581D03*
X0335300Y0173919D03*
D50*
X0329800Y0249189D03*
X0329800Y0272811D03*
X0211800Y0219061D03*
X0211800Y0195439D03*
D51*
X0173050Y0187937D03*
X0173050Y0180063D03*
X0164300Y0180063D03*
X0164300Y0187937D03*
D52*
X0128550Y0186500D03*
X0128550Y0181500D03*
X0128550Y0176500D03*
X0128550Y0171500D03*
X0128550Y0166500D03*
X0128550Y0161500D03*
X0128550Y0191500D03*
X0128550Y0196500D03*
X0091550Y0196500D03*
X0091550Y0191500D03*
X0091550Y0186500D03*
X0091550Y0181500D03*
X0091550Y0176500D03*
X0091550Y0171500D03*
X0091550Y0166500D03*
X0091550Y0161500D03*
D53*
X0028550Y0170110D03*
X0028550Y0183890D03*
D54*
X0177800Y0315000D03*
X0181737Y0315000D03*
X0185674Y0315000D03*
X0189611Y0315000D03*
X0193548Y0315000D03*
X0197485Y0315000D03*
X0201422Y0315000D03*
X0205359Y0315000D03*
X0209296Y0315000D03*
X0213233Y0315000D03*
X0217170Y0315000D03*
X0221107Y0315000D03*
X0225044Y0315000D03*
X0228981Y0315000D03*
X0232918Y0315000D03*
X0236855Y0315000D03*
X0240792Y0315000D03*
X0244729Y0315000D03*
X0248666Y0315000D03*
X0252603Y0315000D03*
X0256540Y0315000D03*
X0260477Y0315000D03*
X0264414Y0315000D03*
X0268351Y0315000D03*
X0272288Y0315000D03*
X0276225Y0315000D03*
X0280162Y0315000D03*
X0284099Y0315000D03*
X0288036Y0315000D03*
X0291973Y0315000D03*
X0295910Y0315000D03*
X0299847Y0315000D03*
X0303784Y0315000D03*
X0307721Y0315000D03*
X0311658Y0315000D03*
X0315595Y0315000D03*
X0319532Y0315000D03*
X0323469Y0315000D03*
X0327406Y0315000D03*
X0331343Y0315000D03*
D55*
X0343154Y0322874D03*
X0165989Y0322874D03*
D56*
X0169068Y0118073D03*
X0169068Y0086577D03*
D57*
X0237550Y0148500D03*
X0234300Y0168500D03*
X0250550Y0168750D03*
X0274050Y0162500D03*
X0265300Y0115500D03*
X0224050Y0201250D03*
X0190800Y0227000D03*
X0209300Y0244750D03*
X0225050Y0238500D03*
X0175550Y0287000D03*
X0175300Y0298500D03*
X0350800Y0298000D03*
X0364800Y0279000D03*
D58*
X0355300Y0279750D03*
X0357050Y0271500D03*
X0348550Y0272000D03*
X0345550Y0257750D03*
X0349300Y0249250D03*
X0352300Y0242250D03*
X0353050Y0233750D03*
X0354550Y0225750D03*
X0358800Y0209500D03*
X0346800Y0209750D03*
X0336050Y0209750D03*
X0336800Y0217240D03*
X0331800Y0225750D03*
X0312800Y0230000D03*
X0312800Y0239750D03*
X0298550Y0243000D03*
X0291300Y0238750D03*
X0285800Y0239000D03*
X0292800Y0253750D03*
X0298050Y0261250D03*
X0308800Y0260750D03*
X0327550Y0249000D03*
X0333800Y0257500D03*
X0329800Y0284250D03*
X0318800Y0297000D03*
X0311550Y0302500D03*
X0311550Y0307750D03*
X0307050Y0295500D03*
X0292800Y0304000D03*
X0271800Y0329750D03*
X0260300Y0325500D03*
X0222300Y0305500D03*
X0222050Y0295000D03*
X0223550Y0287500D03*
X0216550Y0283250D03*
X0209050Y0279250D03*
X0204550Y0287750D03*
X0208050Y0295000D03*
X0195550Y0292500D03*
X0192550Y0298500D03*
X0174050Y0311750D03*
X0192800Y0279000D03*
X0178800Y0272750D03*
X0185300Y0263750D03*
X0166300Y0252500D03*
X0205050Y0252500D03*
X0219800Y0245750D03*
X0227300Y0249000D03*
X0226800Y0254500D03*
X0226800Y0259750D03*
X0233050Y0265750D03*
X0238300Y0269500D03*
X0232300Y0273000D03*
X0227050Y0276750D03*
X0233050Y0279500D03*
X0243800Y0261750D03*
X0255050Y0248250D03*
X0260300Y0248250D03*
X0250050Y0234250D03*
X0259800Y0228750D03*
X0239800Y0232000D03*
X0217550Y0216250D03*
X0211550Y0226750D03*
X0202800Y0201500D03*
X0185550Y0177500D03*
X0179300Y0176750D03*
X0178300Y0184250D03*
X0173300Y0170750D03*
X0173050Y0164500D03*
X0171050Y0151750D03*
X0181550Y0151750D03*
X0189550Y0166500D03*
X0201550Y0145250D03*
X0217050Y0128750D03*
X0228800Y0143750D03*
X0227050Y0151500D03*
X0220050Y0159000D03*
X0246300Y0146750D03*
X0248300Y0135000D03*
X0261800Y0147500D03*
X0270050Y0140000D03*
X0280550Y0150250D03*
X0293800Y0163250D03*
X0299050Y0165250D03*
X0304550Y0169000D03*
X0302800Y0176750D03*
X0290800Y0177250D03*
X0288550Y0171500D03*
X0283550Y0175750D03*
X0266300Y0168500D03*
X0257800Y0170750D03*
X0271300Y0193250D03*
X0263800Y0196000D03*
X0283550Y0211500D03*
X0283550Y0220500D03*
X0289800Y0226250D03*
X0297050Y0225250D03*
X0310300Y0211750D03*
X0308300Y0199250D03*
X0305050Y0191500D03*
X0318300Y0188500D03*
X0331550Y0188000D03*
X0337550Y0189000D03*
X0343050Y0197250D03*
X0349550Y0193250D03*
X0359550Y0184250D03*
X0341550Y0179500D03*
X0331550Y0199000D03*
X0295550Y0207000D03*
X0285800Y0261750D03*
X0331800Y0298500D03*
X0335800Y0311000D03*
X0349800Y0305750D03*
X0311800Y0333750D03*
X0388800Y0311750D03*
X0373050Y0152250D03*
X0367050Y0137000D03*
X0340050Y0143500D03*
X0307050Y0151250D03*
X0254550Y0103500D03*
X0245550Y0102750D03*
X0228050Y0090750D03*
X0228800Y0075500D03*
X0228800Y0063250D03*
X0228800Y0045000D03*
X0218050Y0040500D03*
X0221800Y0029250D03*
X0228800Y0028000D03*
X0214800Y0020500D03*
X0205300Y0040500D03*
X0196550Y0033500D03*
X0185800Y0034000D03*
X0171550Y0046500D03*
X0170550Y0052500D03*
X0166050Y0056750D03*
X0152550Y0057000D03*
X0152800Y0049000D03*
X0154550Y0036000D03*
X0144300Y0015750D03*
X0097550Y0048000D03*
X0097050Y0063000D03*
X0086300Y0074500D03*
X0091550Y0085750D03*
X0104300Y0097250D03*
X0102050Y0124500D03*
X0087800Y0155250D03*
X0083550Y0165750D03*
X0080550Y0181500D03*
X0080550Y0189250D03*
X0054800Y0194750D03*
X0045800Y0187500D03*
X0048050Y0178750D03*
X0047800Y0170500D03*
X0043300Y0103500D03*
X0032300Y0103500D03*
X0027300Y0084250D03*
X0032300Y0077750D03*
X0029300Y0069500D03*
X0029300Y0052500D03*
X0007050Y0059750D03*
X0014050Y0081750D03*
X0014050Y0089250D03*
X0009050Y0094500D03*
X0054300Y0102500D03*
X0061300Y0098500D03*
X0066300Y0078500D03*
X0061300Y0066500D03*
X0071300Y0065500D03*
X0072300Y0050500D03*
X0154550Y0084250D03*
X0161550Y0081500D03*
X0159050Y0092000D03*
X0158800Y0106500D03*
X0158800Y0124250D03*
X0157800Y0142750D03*
X0151050Y0143500D03*
X0141050Y0156250D03*
X0159800Y0188000D03*
X0139800Y0194250D03*
X0141050Y0201500D03*
X0123800Y0252750D03*
X0208800Y0269500D03*
X0193300Y0122500D03*
X0188800Y0109000D03*
X0201050Y0110000D03*
X0203425Y0103625D03*
X0199050Y0095750D03*
X0186800Y0076250D03*
X0200550Y0065500D03*
X0183050Y0058750D03*
X0243050Y0048250D03*
X0268050Y0041500D03*
X0292050Y0042000D03*
X0295800Y0047000D03*
X0299550Y0042000D03*
X0299550Y0052000D03*
X0292050Y0052000D03*
X0275300Y0066250D03*
X0311800Y0053750D03*
X0315550Y0061500D03*
X0333550Y0059000D03*
X0352300Y0060750D03*
X0352300Y0050250D03*
X0352300Y0041000D03*
X0352300Y0029750D03*
X0352300Y0019500D03*
X0352300Y0009250D03*
X0326550Y0027500D03*
X0335550Y0081250D03*
M02*
