%
M48
M72
T01C0.02362
T02C0.03150
T03C0.03200
T04C0.03543
T05C0.03600
T06C0.05200
T07C0.05512
T08C0.06400
T09C0.11811
T10C0.12598
T11C0.12800
%
T01
X29300Y52500
X29300Y69500
X32300Y77750
X27300Y84250
X14050Y81750
X14050Y89250
X9050Y94500
X32300Y103500
X43300Y103500
X54300Y102500
X61300Y98500
X66300Y78500
X61300Y66500
X71300Y65500
X72300Y50500
X86300Y74500
X91550Y85750
X104300Y97250
X102050Y124500
X87800Y155250
X83550Y165750
X80550Y181500
X80550Y189250
X54800Y194750
X45800Y187500
X48050Y178750
X47800Y170500
X123800Y252750
X166300Y252500
X185300Y263750
X178800Y272750
X192800Y279000
X195550Y292500
X192550Y298500
X204550Y287750
X208050Y295000
X216550Y283250
X223550Y287500
X222050Y295000
X222300Y305500
X233050Y279500
X227050Y276750
X232300Y273000
X238300Y269500
X233050Y265750
X226800Y259750
X226800Y254500
X227300Y249000
X219800Y245750
X205050Y252500
X208800Y269500
X209050Y279250
X174050Y311750
X243800Y261750
X255050Y248250
X260300Y248250
X250050Y234250
X259800Y228750
X239800Y232000
X217550Y216250
X211550Y226750
X202800Y201500
X185550Y177500
X179300Y176750
X178300Y184250
X173300Y170750
X173050Y164500
X171050Y151750
X181550Y151750
X189550Y166500
X201550Y145250
X217050Y128750
X228800Y143750
X227050Y151500
X220050Y159000
X246300Y146750
X248300Y135000
X261800Y147500
X270050Y140000
X280550Y150250
X293800Y163250
X299050Y165250
X304550Y169000
X302800Y176750
X290800Y177250
X288550Y171500
X283550Y175750
X266300Y168500
X257800Y170750
X271300Y193250
X263800Y196000
X283550Y211500
X283550Y220500
X289800Y226250
X297050Y225250
X310300Y211750
X308300Y199250
X305050Y191500
X318300Y188500
X331550Y188000
X337550Y189000
X343050Y197250
X349550Y193250
X359550Y184250
X341550Y179500
X331550Y199000
X336050Y209750
X336800Y217240
X331800Y225750
X346800Y209750
X358800Y209500
X354550Y225750
X353050Y233750
X352300Y242250
X349300Y249250
X345550Y257750
X333800Y257500
X327550Y249000
X312800Y239750
X312800Y230000
X298550Y243000
X291300Y238750
X285800Y239000
X292800Y253750
X298050Y261250
X308800Y260750
X285800Y261750
X307050Y295500
X311550Y302500
X311550Y307750
X318800Y297000
X331800Y298500
X335800Y311000
X349800Y305750
X329800Y284250
X348550Y272000
X357050Y271500
X355300Y279750
X388800Y311750
X311800Y333750
X292800Y304000
X271800Y329750
X260300Y325500
X295550Y207000
X307050Y151250
X340050Y143500
X367050Y137000
X373050Y152250
X335550Y81250
X352300Y60750
X352300Y50250
X352300Y41000
X352300Y29750
X352300Y19500
X352300Y9250
X326550Y27500
X299550Y42000
X295800Y47000
X292050Y42000
X292050Y52000
X299550Y52000
X311800Y53750
X315550Y61500
X333550Y59000
X275300Y66250
X268050Y41500
X243050Y48250
X228800Y45000
X218050Y40500
X221800Y29250
X228800Y28000
X214800Y20500
X205300Y40500
X196550Y33500
X185800Y34000
X171550Y46500
X170550Y52500
X166050Y56750
X152550Y57000
X152800Y49000
X154550Y36000
X144300Y15750
X97550Y48000
X97050Y63000
X154550Y84250
X161550Y81500
X159050Y92000
X158800Y106500
X158800Y124250
X157800Y142750
X151050Y143500
X141050Y156250
X159800Y188000
X139800Y194250
X141050Y201500
X193300Y122500
X188800Y109000
X201050Y110000
X203425Y103625
X199050Y95750
X186800Y76250
X200550Y65500
X183050Y58750
X228800Y63250
X228800Y75500
X228050Y90750
X245550Y102750
X254550Y103500
X7050Y59750
T02
X169068Y86577
X169068Y118073
T03
X262050Y130500
X292050Y130500
T04
X28550Y170110
X28550Y183890
T05
X80050Y230000
X70050Y235000
X70050Y245000
X80050Y240000
X80050Y250000
X70050Y255000
X70050Y265000
X80050Y260000
X373050Y259000
X383050Y259000
X383050Y249000
X383050Y239000
X373050Y239000
X373050Y249000
X372800Y206250
X372800Y196250
X382800Y196250
X382800Y206250
X382800Y186250
X382800Y176250
X372800Y176250
X372800Y186250
X372800Y166250
X382800Y166250
T06
X274050Y162500
X250550Y168750
X234300Y168500
X237550Y148500
X265300Y115500
X224050Y201250
X190800Y227000
X209300Y244750
X225050Y238500
X175550Y287000
X175300Y298500
X350800Y298000
X364800Y279000
T07
X365973Y69000
X387627Y69000
T08
X57050Y216500
X57050Y278500
T09
X385816Y87504
X385816Y50496
T10
X26800Y28000
X26550Y371250
X370550Y371500
X371800Y28000
T11
X45050Y225000
X45050Y270000
M30
